<?xml version="1.0" encoding="utf-8"?>
<!-- Generator: Adobe Illustrator 20.0.0, SVG Export Plug-In . SVG Version: 6.00 Build 0)  -->
<svg version="1.1" id="Layer_3" xmlns="http://www.w3.org/2000/svg" xmlns:xlink="http://www.w3.org/1999/xlink" x="0px" y="0px"
	 width="76px" height="54px" viewBox="0 0 76 54" style="enable-background:new 0 0 76 54;" xml:space="preserve">
<style type="text/css">
	.st0{fill:#E8EAEA;}
	.st1{fill:#ABABAB;}
	.st2{fill:none;stroke:#ABABAB;stroke-width:2;stroke-miterlimit:10;}
	.st3{fill:none;stroke:#ABABAB;stroke-width:1.5;stroke-linecap:round;stroke-miterlimit:10;}
</style>
<g>
	<ellipse class="st0" cx="28.5" cy="51.7" rx="28.1" ry="1.2"/>
</g>
<g>
	<path class="st1" d="M22.4,50.8c-5.8,0-10.8,0-12.6,0c-2.6,0-4.3-0.5-5.1-1.4c-0.4-0.5-0.4-1-0.4-1.1C4.1,32.7,7,7.5,7.1,6.7
		c0-0.3,0.2-3,4.9-4.4c0.2-0.1,18.8-5.4,34.8,0.8c1.3,0.5,2.3,1.4,2.9,2.5c0.4,0.7,0.6,1.6,0.7,2.5l0,0c1.7,18.9,2.5,32,2.5,33
		c0,0.9,0.1,4.3,0.2,6.6c0.1,2.6-3.8,2.9-3.9,3C49,50.8,34,50.8,22.4,50.8z M29.1,0.8c-9.4,0-16.8,2.1-16.9,2.2
		C7.9,4.3,7.8,6.7,7.8,6.8l0,0c0,0.3-3,25.8-2.9,41.5l0,0l0,0c0,0,0,0.3,0.3,0.6c0.5,0.5,1.7,1.1,4.6,1.2c5.4,0.1,39.1,0,39.4,0
		c0,0,3.4-0.3,3.3-2.3c-0.1-2.3-0.2-5.8-0.2-6.6c0-0.7-0.7-13.1-2.5-33l0,0c-0.1-0.9-0.3-1.6-0.6-2.3c-0.5-1-1.4-1.8-2.6-2.2
		C40.8,1.5,34.6,0.8,29.1,0.8z"/>
</g>
<g>
	<path class="st1" d="M31.3,7.8c-6.2,0-13.3-0.2-17.6-0.6c-2.6-0.2-4.1-0.9-4.3-1.9c-0.3-1.2,1.2-2.4,1.4-2.5l0.4,0.5
		c-0.4,0.3-1.3,1.2-1.1,1.8c0.1,0.4,0.7,1.1,3.8,1.4C21,7.2,36.4,7.3,41.4,6.8c2-0.4,5.3-1.3,5.5-2.3C47,4.3,46.8,4,46.5,3.7
		l0.4-0.5c0.6,0.5,0.8,1,0.7,1.5c-0.1,0.3-0.7,1.8-6.1,2.8C39.4,7.7,35.6,7.8,31.3,7.8z"/>
</g>
<g>
	<path class="st1" d="M47.3,15.6c-0.2,0-0.3-0.1-0.3-0.3c0-0.4-0.1-1.5-0.2-3.2c-0.1-1-0.8-1.8-1.7-2c-0.9-0.2-1.9-0.4-3.2-0.5
		c-0.2,0-0.3-0.2-0.3-0.4c0-0.2,0.2-0.3,0.4-0.3c1.3,0.2,2.4,0.3,3.3,0.6c1.2,0.3,2.1,1.3,2.2,2.6c0.1,1.1,0.2,2.6,0.2,3.2
		C47.6,15.5,47.4,15.6,47.3,15.6z"/>
</g>
<g>
	<path class="st1" d="M10,15.8C10,15.8,10,15.8,10,15.8c-0.2,0-0.3-0.2-0.3-0.4l0.5-3.8c0.2-1.2,1.1-2.1,2.3-2.3
		c0.9-0.1,1.9-0.2,1.9-0.2c0.2,0,0.3,0.1,0.4,0.3c0,0.2-0.1,0.3-0.3,0.4c0,0-0.9,0.1-1.8,0.2c-0.9,0.1-1.6,0.8-1.7,1.7l-0.5,3.8
		C10.3,15.7,10.2,15.8,10,15.8z"/>
</g>
<g>
	<path class="st2" d="M50.8,46.2"/>
</g>
<g>
	<path class="st1" d="M45.8,47.8c-0.2,0-0.3-0.1-0.3-0.3c0-0.2,0.1-0.3,0.3-0.4c1.9-0.4,3.6-0.8,5-1.2c0.2-0.1,0.4,0,0.4,0.2
		c0.1,0.2,0,0.4-0.2,0.4C49.5,47,47.8,47.4,45.8,47.8C45.8,47.8,45.8,47.8,45.8,47.8z"/>
</g>
<g>
	<path class="st2" d="M40.5,48.2"/>
</g>
<g>
	<path class="st1" d="M27.5,49.2c-1.1,0-1.8,0-1.8,0c-3,0-5.9-0.2-8.7-0.5c-0.2,0-0.3-0.2-0.3-0.4c0-0.2,0.2-0.3,0.4-0.3
		c2.8,0.3,5.7,0.5,8.6,0.5c0.1,0,7.4,0.2,14.7-0.6c0.2,0,0.3,0.1,0.4,0.3c0,0.2-0.1,0.3-0.3,0.4C35.3,49.1,30.1,49.2,27.5,49.2z"/>
</g>
<g>
	<path class="st2" d="M17,48.4"/>
</g>
<g>
	<path class="st2" d="M11,47.4"/>
</g>
<g>
	<path class="st1" d="M11,47.7C11,47.7,11,47.7,11,47.7c-2.1-0.4-3.6-0.9-4.5-1.2c-0.2-0.1-0.3-0.2-0.2-0.4c0.1-0.2,0.2-0.3,0.4-0.2
		c0.9,0.3,2.4,0.7,4.3,1.2c0.2,0,0.3,0.2,0.2,0.4C11.3,47.6,11.2,47.7,11,47.7z"/>
</g>
<g>
	<path class="st2" d="M6.6,46.2"/>
</g>
<g>
	<path class="st2" d="M44.5,30.6"/>
</g>
<g>
	<path class="st2" d="M44.5,28.8"/>
</g>
<g>
	<path class="st1" d="M28,46.3c-0.3,0-7.3-0.1-14.7-4.5c-0.2-0.1-1.5-0.9-1.4-3.5l0.8-23.6c-0.1-0.7,0.2-2,1.6-2.3
		c0.6-0.1,14.5-2.6,28.4,0c0.6,0.1,1.8,0.6,1.9,2.3c0,0.6,0.1,3.3,0.1,5.5l0.2,10.4c0.1,4.4,0.1,8.1,0.1,8.1c0,0.1,0.2,2.1-2.2,3.5
		C42.7,42.3,36.1,46.3,28,46.3C28,46.3,28,46.3,28,46.3z M29,11.9c-8.1,0-14.3,1.1-14.6,1.1c-1.2,0.2-1.1,1.5-1.1,1.6l0,0l0,0
		l-0.8,23.6c-0.1,2.3,1,2.9,1.1,2.9l0,0c7.4,4.5,14.3,4.4,14.4,4.4c7.9,0,14.4-3.9,14.5-4c2-1.2,1.9-2.9,1.9-2.9
		c0,0-0.1-3.7-0.1-8.1l-0.1-7.5v0L44,20.2c-0.1-3.1-0.1-5-0.1-5.4c0-1.5-1.2-1.7-1.3-1.7C37.9,12.2,33.2,11.9,29,11.9z"/>
</g>
<g>
	<path class="st2" d="M44.4,23.1"/>
</g>
<g>
	<path class="st1" d="M39.5,32H18.2c-0.7,0-1.3-0.6-1.3-1.3V16.5c0-0.7,0.6-1.3,1.3-1.3h21.2c0.7,0,1.3,0.6,1.3,1.3v14.1
		C40.8,31.4,40.2,32,39.5,32z M18.2,15.8c-0.4,0-0.7,0.3-0.7,0.7v14.1c0,0.4,0.3,0.7,0.7,0.7h21.2c0.4,0,0.7-0.3,0.7-0.7V16.5
		c0-0.4-0.3-0.7-0.7-0.7H18.2z"/>
</g>
<g>
	<path class="st1" d="M37.9,30.4c-0.2,0-0.3-0.1-0.3-0.3V16.9c0-0.2,0.1-0.3,0.3-0.3c0.2,0,0.3,0.1,0.3,0.3v13.2
		C38.2,30.3,38.1,30.4,37.9,30.4z"/>
</g>
<g>
	<path class="st1" d="M20,30.4c-0.2,0-0.3-0.1-0.3-0.3V16.9c0-0.2,0.1-0.3,0.3-0.3c0.2,0,0.3,0.1,0.3,0.3v13.2
		C20.3,30.3,20.1,30.4,20,30.4z"/>
</g>
<g>
	<path class="st1" d="M29.2,42.1c-1.2,0-2.4-0.7-3.1-1.8c-0.5-1-0.6-2.2-0.1-3.2c0.1-0.1,0.2-0.2,0.3-0.1c0.1,0.1,0.2,0.2,0.1,0.3
		c-0.4,0.9-0.4,1.9,0,2.8c0.8,1.5,2.6,2,4.1,1.2c0.1-0.1,0.3,0,0.3,0.1c0.1,0.1,0,0.3-0.1,0.3C30.3,42,29.8,42.1,29.2,42.1z"/>
</g>
<g>
	<path class="st2" d="M31.7,44.3"/>
</g>
<g>
	<path class="st2" d="M34.2,41.9"/>
</g>
<g>
	<path class="st1" d="M32.1,40.4c0,0-0.1,0-0.1,0c-0.1-0.1-0.2-0.2-0.1-0.3c0.5-0.9,0.4-1.9,0-2.8c-0.4-0.7-1-1.2-1.8-1.5
		c-0.8-0.2-1.6-0.1-2.3,0.2c-0.1,0.1-0.3,0-0.3-0.1c-0.1-0.1,0-0.3,0.1-0.3c0.8-0.4,1.8-0.5,2.7-0.3c0.9,0.3,1.6,0.9,2.1,1.7
		c0.6,1,0.6,2.2,0,3.3C32.3,40.3,32.2,40.4,32.1,40.4z"/>
</g>
<g>
	<path class="st1" d="M29.2,44c-3,0-5.4-2.4-5.4-5.4c0-3,2.4-5.4,5.4-5.4c3,0,5.4,2.4,5.4,5.4C34.6,41.6,32.2,44,29.2,44z
		 M29.2,33.7c-2.7,0-4.9,2.2-4.9,4.9s2.2,4.9,4.9,4.9c2.7,0,4.9-2.2,4.9-4.9S31.9,33.7,29.2,33.7z"/>
</g>
<g>
	<g>
		<circle class="st1" cx="28.9" cy="18.3" r="0.3"/>
	</g>
	<g>
		<circle class="st1" cx="28.9" cy="28.7" r="0.3"/>
	</g>
	<g>
		<circle class="st1" cx="23.7" cy="23.5" r="0.3"/>
	</g>
	<g>
		<circle class="st1" cx="24" cy="25.2" r="0.3"/>
	</g>
	<g>
		<circle class="st1" cx="33.8" cy="25.2" r="0.3"/>
	</g>
	<g>
		<circle class="st1" cx="32.9" cy="26.9" r="0.3"/>
	</g>
	<g>
		<circle class="st1" cx="24.9" cy="26.9" r="0.3"/>
	</g>
	<g>
		<circle class="st1" cx="26.5" cy="28.2" r="0.3"/>
	</g>
	<g>
		<circle class="st1" cx="31.3" cy="28.2" r="0.3"/>
	</g>
	<g>
		<circle class="st1" cx="34.1" cy="23.5" r="0.3"/>
	</g>
	<g>
		<circle class="st1" cx="33.9" cy="21.9" r="0.3"/>
	</g>
	<g>
		<circle class="st1" cx="24" cy="21.9" r="0.3"/>
	</g>
	<g>
		<circle class="st1" cx="24.9" cy="20.2" r="0.3"/>
	</g>
	<g>
		<circle class="st1" cx="32.9" cy="20.2" r="0.3"/>
	</g>
	<g>
		<circle class="st1" cx="31.3" cy="18.9" r="0.3"/>
	</g>
	<g>
		<circle class="st1" cx="26.5" cy="18.9" r="0.3"/>
	</g>
</g>
<g>
	<path class="st1" d="M73.2,31c0,0-0.1,0-0.1,0c-0.1,0-11.5-0.2-20.8-0.1c-0.2,0-0.3-0.1-0.3-0.3c0-0.2,0.1-0.3,0.3-0.3
		c9.3-0.1,20.7,0.1,20.8,0.1c1.4,0,2.1-0.7,2.2-2.1c0.1-1.6-1.1-1.9-1.1-2c-1.4-0.5-5.7-0.9-5.7-0.9l-0.2,0l-0.1-0.1
		c-0.6-0.9-1.5-1.1-2.2-1.2c-0.1,0-0.3,0-0.4-0.1c-0.5-0.1-7.5-0.5-10.6-0.4c-1.3,0-2.2-0.2-2.7-0.8c-0.4-0.4-0.4-0.8-0.4-1
		c0-0.4-0.6-1.1-1-1.6c-0.1-0.1-0.1-0.3,0-0.5c0.1-0.1,0.3-0.1,0.5,0c0.2,0.2,1,1.3,1.1,2l0,0l0,0c0,0,0,0.3,0.2,0.5
		c0.3,0.3,0.8,0.6,2.2,0.6c2.8-0.1,10.1,0.3,10.7,0.5c0.1,0,0.2,0,0.3,0.1c0.7,0.1,1.8,0.3,2.5,1.3c0.8,0.1,4.4,0.4,5.7,0.9
		c0.6,0.2,1.7,1,1.6,2.6C75.8,30,74.8,31,73.2,31z"/>
</g>
<g>
	<path class="st1" d="M51.5,25.6c-0.2,0-0.3-0.1-0.3-0.3c0-0.2,0.1-0.3,0.3-0.3c0.6,0,15.6-0.4,17.2-0.3c0.2,0,0.3,0.2,0.3,0.4
		c0,0.2-0.2,0.3-0.4,0.3C67.1,25.1,51.7,25.6,51.5,25.6C51.5,25.6,51.5,25.6,51.5,25.6z"/>
</g>
<g>
	<path class="st1" d="M65,36.2c-6,0-12.5-0.3-12.6-0.3c-0.2,0-0.3-0.2-0.3-0.3c0-0.2,0.2-0.3,0.3-0.3c0.1,0,14.8,0.6,20.4,0
		c0.1,0,1.5-0.2,1.6-2.3c0-0.1,0-2-2.4-2.1c-0.2,0-0.3-0.2-0.3-0.3c0-0.2,0.2-0.3,0.3-0.3c3.1,0.2,3.1,2.8,3.1,2.8
		c-0.2,2.6-2.2,2.9-2.2,2.9C71,36.2,68.1,36.2,65,36.2z"/>
</g>
<g>
	<path class="st1" d="M63.4,41.6c-4.9,0-10.3-0.3-10.7-0.3c-0.2,0-0.3-0.2-0.3-0.3c0-0.2,0.2-0.3,0.3-0.3c0.1,0,12.7,0.6,16.9,0
		c1-0.1,3.8-0.6,4-1.9l0,0c0,0,0.3-1-0.3-1.8c-0.5-0.6-1.4-0.9-2.7-0.8c-0.2,0-0.3-0.1-0.3-0.3c0-0.2,0.1-0.3,0.3-0.3
		c1.6,0,2.6,0.3,3.2,1.1c0.7,1,0.4,2.2,0.4,2.4c-0.4,2-4.4,2.4-4.6,2.4C68.3,41.5,65.9,41.6,63.4,41.6z"/>
</g>
<g>
	<path class="st1" d="M59.6,46.8c-3.6,0-6.5-0.2-6.7-0.2c-0.2,0-0.3-0.2-0.3-0.3c0-0.2,0.2-0.3,0.3-0.3c0.1,0,11.7,0.6,17-0.6
		c0.1,0,2.8-0.5,2.6-2.7c0,0,0-0.8-0.5-1.2c-0.4-0.3-1-0.4-1.8-0.2c-0.2,0-0.3-0.1-0.4-0.3c0-0.2,0.1-0.3,0.3-0.4
		c1-0.2,1.8-0.1,2.4,0.4c0.8,0.6,0.8,1.7,0.8,1.7c0.1,2.2-2,3.2-3.2,3.4C67.3,46.7,63.1,46.8,59.6,46.8z"/>
</g>
<g>
	<path class="st1" d="M51.5,25c-0.1,0-0.2,0-0.2-0.1c-0.1-0.1-0.2-0.2-0.1-0.3c0-0.1,0.1-0.2,0.3-0.2c0.1-0.1,0.8-0.6,0.6-2.2
		c0-0.2,0.1-0.3,0.3-0.4c0.2,0,0.3,0.1,0.4,0.3c0.1,1.8-0.6,2.6-1,2.9C51.7,25,51.6,25,51.5,25z"/>
</g>
<g>
	<path class="st1" d="M55.4,25.2c0,0-0.1,0-0.1,0c-0.1-0.1-0.1-0.2-0.1-0.3c0.4-0.5-0.3-1.5-0.3-1.6c-0.1-0.1,0-0.3,0.1-0.3
		c0.1-0.1,0.3,0,0.3,0.1c0,0.1,0.9,1.3,0.3,2.1C55.5,25.2,55.4,25.2,55.4,25.2z"/>
</g>
<g>
	<path class="st1" d="M57.1,25.2c0,0-0.1,0-0.1,0c-0.1-0.1-0.2-0.2-0.1-0.3c0.5-0.8-0.2-1.5-0.2-1.5c-0.1-0.1-0.1-0.2,0-0.3
		c0.1-0.1,0.2-0.1,0.3,0c0.4,0.3,0.9,1.2,0.3,2.1C57.3,25.1,57.2,25.2,57.1,25.2z"/>
</g>
<g>
	<path class="st1" d="M58.9,25.2c0,0-0.1,0-0.1,0c-0.1-0.1-0.1-0.2-0.1-0.3c0.5-0.8-0.2-1.4-0.2-1.4c-0.1-0.1-0.1-0.2,0-0.3
		c0.1-0.1,0.2-0.1,0.3,0c0.4,0.3,0.9,1.2,0.3,2.1C59,25.2,59,25.2,58.9,25.2z"/>
</g>
<g>
	<path class="st1" d="M60.5,25.2c0,0-0.1,0-0.1,0c-0.1-0.1-0.1-0.2-0.1-0.3c0.5-0.7-0.2-1.3-0.2-1.4c-0.1-0.1-0.1-0.2,0-0.3
		c0.1-0.1,0.2-0.1,0.3,0c0.4,0.3,0.9,1.1,0.3,2C60.7,25.1,60.6,25.2,60.5,25.2z"/>
</g>
<g>
	<path class="st1" d="M62.6,25.2c0,0-0.1,0-0.1,0c-0.1-0.1-0.1-0.2-0.1-0.3c0.5-0.7-0.2-1.3-0.2-1.3c-0.1-0.1-0.1-0.2,0-0.3
		c0.1-0.1,0.2-0.1,0.3,0c0.4,0.3,0.9,1.1,0.3,1.9C62.8,25.2,62.7,25.2,62.6,25.2z"/>
</g>
<g>
	<path class="st1" d="M64.6,25.2c-0.1,0-0.1,0-0.1-0.1c-0.1-0.1-0.1-0.2,0-0.3c0.1-0.2,0.2-0.3,0.1-0.5c0-0.3-0.4-0.6-0.4-0.6
		c-0.1-0.1-0.1-0.2,0-0.3c0.1-0.1,0.2-0.1,0.3,0c0,0,0.5,0.4,0.6,0.9c0,0.3,0,0.6-0.2,0.8C64.8,25.2,64.7,25.2,64.6,25.2z"/>
</g>
<g>
	<path class="st1" d="M53.9,30.6c0,0-0.1,0-0.1,0c-0.1-0.1-0.2-0.2-0.1-0.3c1.5-2.8-0.4-4.8-0.4-4.9c-0.1-0.1-0.1-0.3,0-0.3
		c0.1-0.1,0.3-0.1,0.3,0c0,0,2.2,2.3,0.5,5.4C54.1,30.6,54,30.6,53.9,30.6z"/>
</g>
<g>
	<path class="st1" d="M56.5,30.6c0,0-0.1,0-0.1,0c-0.1-0.1-0.2-0.2-0.1-0.3c1.5-2.8-0.4-4.8-0.4-4.9c-0.1-0.1-0.1-0.3,0-0.3
		c0.1-0.1,0.3-0.1,0.3,0c0,0,2.2,2.3,0.5,5.4C56.7,30.6,56.6,30.6,56.5,30.6z"/>
</g>
<g>
	<path class="st1" d="M59,30.6c0,0-0.1,0-0.1,0c-0.1-0.1-0.2-0.2-0.1-0.3c1.5-2.8-0.4-4.8-0.4-4.9c-0.1-0.1-0.1-0.3,0-0.3
		c0.1-0.1,0.3-0.1,0.3,0c0,0,2.2,2.3,0.5,5.4C59.2,30.6,59.1,30.6,59,30.6z"/>
</g>
<g>
	<path class="st1" d="M61.4,30.6c0,0-0.1,0-0.1,0c-0.1-0.1-0.2-0.2-0.1-0.3c1.5-2.8-0.4-4.8-0.4-4.9c-0.1-0.1-0.1-0.3,0-0.3
		c0.1-0.1,0.3-0.1,0.3,0c0,0,2.2,2.3,0.5,5.4C61.6,30.6,61.5,30.6,61.4,30.6z"/>
</g>
<g>
	<path class="st1" d="M63.8,30.6c0,0-0.1,0-0.1,0c-0.1-0.1-0.2-0.2-0.1-0.3c1.5-2.8-0.4-4.8-0.4-4.9c-0.1-0.1-0.1-0.3,0-0.3
		c0.1-0.1,0.3-0.1,0.3,0c0,0,2.2,2.3,0.5,5.4C63.9,30.6,63.8,30.6,63.8,30.6z"/>
</g>
<g>
	<path class="st1" d="M66.2,30.6c0,0-0.1,0-0.1,0c-0.1-0.1-0.2-0.2-0.1-0.3c1.5-2.8-0.4-4.8-0.4-4.9c-0.1-0.1-0.1-0.3,0-0.3
		c0.1-0.1,0.3-0.1,0.3,0c0,0,2.2,2.3,0.5,5.4C66.3,30.6,66.2,30.6,66.2,30.6z"/>
</g>
<g>
	<path class="st1" d="M68.4,30.6c0,0-0.1,0-0.1,0c-0.1-0.1-0.2-0.2-0.1-0.3c1.5-2.8-0.4-4.8-0.4-4.9c-0.1-0.1-0.1-0.3,0-0.3
		c0.1-0.1,0.3-0.1,0.3,0c0,0,2.2,2.3,0.5,5.4C68.6,30.6,68.5,30.6,68.4,30.6z"/>
</g>
<g>
	<path class="st1" d="M70.5,30.6c0,0-0.1,0-0.1,0c-0.1-0.1-0.2-0.2-0.1-0.3c1.5-2.8-0.4-4.8-0.4-4.9c-0.1-0.1-0.1-0.3,0-0.3
		c0.1-0.1,0.3-0.1,0.3,0c0,0,2.2,2.3,0.5,5.4C70.7,30.6,70.6,30.6,70.5,30.6z"/>
</g>
<g>
	<path class="st1" d="M72.8,30.6c0,0-0.1,0-0.1,0c-0.1-0.1-0.2-0.2-0.1-0.3c1.5-2.8-0.1-4.5-0.2-4.5c-0.1-0.1-0.1-0.2,0-0.3
		c0.1-0.1,0.2-0.1,0.3,0c0,0,2,2,0.3,5.1C73,30.6,72.9,30.6,72.8,30.6z"/>
</g>
<g>
	<path class="st1" d="M53.9,35.9c0,0-0.1,0-0.1,0c-0.1-0.1-0.2-0.2-0.1-0.3c1.5-2.8-0.4-4.8-0.4-4.9c-0.1-0.1-0.1-0.3,0-0.3
		c0.1-0.1,0.3-0.1,0.3,0c0,0,2.2,2.3,0.5,5.4C54.1,35.9,54,35.9,53.9,35.9z"/>
</g>
<g>
	<path class="st1" d="M56.5,35.9c0,0-0.1,0-0.1,0c-0.1-0.1-0.2-0.2-0.1-0.3c1.5-2.8-0.4-4.8-0.4-4.9c-0.1-0.1-0.1-0.3,0-0.3
		c0.1-0.1,0.3-0.1,0.3,0c0,0,2.2,2.3,0.5,5.4C56.7,35.9,56.6,35.9,56.5,35.9z"/>
</g>
<g>
	<path class="st1" d="M59,35.9c0,0-0.1,0-0.1,0c-0.1-0.1-0.2-0.2-0.1-0.3c1.5-2.8-0.4-4.8-0.4-4.9c-0.1-0.1-0.1-0.3,0-0.3
		c0.1-0.1,0.3-0.1,0.3,0c0,0,2.2,2.3,0.5,5.4C59.2,35.9,59.1,35.9,59,35.9z"/>
</g>
<g>
	<path class="st1" d="M61.4,35.9c0,0-0.1,0-0.1,0c-0.1-0.1-0.2-0.2-0.1-0.3c1.5-2.8-0.4-4.8-0.4-4.9c-0.1-0.1-0.1-0.3,0-0.3
		c0.1-0.1,0.3-0.1,0.3,0c0,0,2.2,2.3,0.5,5.4C61.6,35.9,61.5,35.9,61.4,35.9z"/>
</g>
<g>
	<path class="st1" d="M63.8,35.9c0,0-0.1,0-0.1,0c-0.1-0.1-0.2-0.2-0.1-0.3c1.5-2.8-0.4-4.8-0.4-4.9c-0.1-0.1-0.1-0.3,0-0.3
		c0.1-0.1,0.3-0.1,0.3,0c0,0,2.2,2.3,0.5,5.4C63.9,35.8,63.8,35.9,63.8,35.9z"/>
</g>
<g>
	<path class="st1" d="M66.2,35.9c0,0-0.1,0-0.1,0c-0.1-0.1-0.2-0.2-0.1-0.3c1.5-2.8-0.4-4.8-0.4-4.9c-0.1-0.1-0.1-0.3,0-0.3
		c0.1-0.1,0.3-0.1,0.3,0c0,0,2.2,2.3,0.5,5.4C66.3,35.9,66.2,35.9,66.2,35.9z"/>
</g>
<g>
	<path class="st1" d="M68.4,35.9c0,0-0.1,0-0.1,0c-0.1-0.1-0.2-0.2-0.1-0.3c1.5-2.8-0.4-4.8-0.4-4.9c-0.1-0.1-0.1-0.3,0-0.3
		c0.1-0.1,0.3-0.1,0.3,0c0,0,2.2,2.3,0.5,5.4C68.6,35.9,68.5,35.9,68.4,35.9z"/>
</g>
<g>
	<path class="st1" d="M70.5,35.9c0,0-0.1,0-0.1,0c-0.1-0.1-0.2-0.2-0.1-0.3c1.5-2.8-0.4-4.8-0.4-4.9c-0.1-0.1-0.1-0.3,0-0.3
		c0.1-0.1,0.3-0.1,0.3,0c0,0,2.2,2.3,0.5,5.4C70.7,35.9,70.6,35.9,70.5,35.9z"/>
</g>
<g>
	<path class="st1" d="M72.6,35.9c0,0-0.1,0-0.1,0c-0.1-0.1-0.2-0.2-0.1-0.3c1.5-2.8-0.1-4.5-0.2-4.5c-0.1-0.1-0.1-0.2,0-0.3
		c0.1-0.1,0.2-0.1,0.3,0c0,0,2,2,0.3,5.1C72.8,35.9,72.7,35.9,72.6,35.9z"/>
</g>
<g>
	<path class="st1" d="M53.9,41.1c0,0-0.1,0-0.1,0c-0.1-0.1-0.2-0.2-0.1-0.3c1.5-2.8-0.4-4.8-0.4-4.9c-0.1-0.1-0.1-0.3,0-0.3
		c0.1-0.1,0.3-0.1,0.3,0c0,0,2.2,2.3,0.5,5.4C54.1,41,54,41.1,53.9,41.1z"/>
</g>
<g>
	<path class="st1" d="M56.5,41.1c0,0-0.1,0-0.1,0c-0.1-0.1-0.2-0.2-0.1-0.3c1.5-2.8-0.4-4.8-0.4-4.9c-0.1-0.1-0.1-0.3,0-0.3
		c0.1-0.1,0.3-0.1,0.3,0c0,0,2.2,2.3,0.5,5.4C56.7,41,56.6,41.1,56.5,41.1z"/>
</g>
<g>
	<path class="st1" d="M59,41.1c0,0-0.1,0-0.1,0c-0.1-0.1-0.2-0.2-0.1-0.3c1.2-2.2,0.3-3.9-0.2-4.6c-0.1-0.1-0.1-0.3,0.1-0.3
		c0.1-0.1,0.3-0.1,0.3,0.1c0.5,0.7,1.6,2.6,0.2,5.1C59.2,41,59.1,41.1,59,41.1z"/>
</g>
<g>
	<path class="st1" d="M61.4,41.4c0,0-0.1,0-0.1,0c-0.1-0.1-0.2-0.2-0.1-0.3c1.2-2.3,0.4-4-0.2-4.8c-0.1-0.1-0.1-0.3,0.1-0.3
		c0.1-0.1,0.3-0.1,0.3,0.1c0.5,0.8,1.6,2.8,0.2,5.4C61.6,41.4,61.5,41.4,61.4,41.4z"/>
</g>
<g>
	<path class="st1" d="M63.8,41.2c0,0-0.1,0-0.1,0c-0.1-0.1-0.2-0.2-0.1-0.3c1.5-2.8-0.4-4.8-0.4-4.9c-0.1-0.1-0.1-0.3,0-0.3
		c0.1-0.1,0.3-0.1,0.3,0c0,0,2.2,2.3,0.5,5.4C63.9,41.2,63.9,41.2,63.8,41.2z"/>
</g>
<g>
	<path class="st1" d="M66.2,41.3c0,0-0.1,0-0.1,0c-0.1-0.1-0.2-0.2-0.1-0.3c1.5-2.8-0.4-4.8-0.4-4.9c-0.1-0.1-0.1-0.3,0-0.3
		c0.1-0.1,0.3-0.1,0.3,0c0,0,2.2,2.3,0.5,5.4C66.3,41.3,66.2,41.3,66.2,41.3z"/>
</g>
<g>
	<path class="st1" d="M68.4,41.2c0,0-0.1,0-0.1,0c-0.1-0.1-0.2-0.2-0.1-0.3c1.5-2.8-0.4-4.8-0.4-4.9c-0.1-0.1-0.1-0.3,0-0.3
		c0.1-0.1,0.3-0.1,0.3,0c0,0,2.2,2.3,0.5,5.4C68.6,41.2,68.5,41.2,68.4,41.2z"/>
</g>
<g>
	<path class="st1" d="M70.6,41.1c0,0-0.1,0-0.1,0c-0.1-0.1-0.2-0.2-0.1-0.3c1.2-2.3,0.2-4-0.3-4.7c-0.1-0.1-0.1-0.3,0-0.3
		c0.1-0.1,0.3-0.1,0.3,0c0.6,0.7,1.7,2.7,0.3,5.2C70.8,41,70.7,41.1,70.6,41.1z"/>
</g>
<g>
	<path class="st1" d="M54.4,46.6c0,0-0.1,0-0.1,0c-0.1-0.1-0.2-0.2-0.1-0.3c1.5-2.8-0.4-4.8-0.4-4.9c-0.1-0.1-0.1-0.3,0-0.3
		c0.1-0.1,0.3-0.1,0.3,0c0,0,2.2,2.3,0.5,5.4C54.6,46.6,54.5,46.6,54.4,46.6z"/>
</g>
<g>
	<path class="st1" d="M57,46.6c0,0-0.1,0-0.1,0c-0.1-0.1-0.2-0.2-0.1-0.3c1.5-2.8-0.4-4.8-0.4-4.9c-0.1-0.1-0.1-0.3,0-0.3
		c0.1-0.1,0.3-0.1,0.3,0c0,0,2.2,2.3,0.5,5.4C57.2,46.6,57.1,46.6,57,46.6z"/>
</g>
<g>
	<path class="st1" d="M59.3,46.3c0,0-0.1,0-0.1,0C59,46.2,59,46.1,59.1,46c1.2-2.2,0.3-3.9-0.2-4.6c-0.1-0.1-0.1-0.3,0.1-0.3
		c0.1-0.1,0.3-0.1,0.3,0.1c0.5,0.7,1.6,2.6,0.2,5.1C59.4,46.3,59.4,46.3,59.3,46.3z"/>
</g>
<g>
	<path class="st1" d="M61.7,46.6c0,0-0.1,0-0.1,0c-0.1-0.1-0.2-0.2-0.1-0.3c1.2-2.3,0.4-4-0.2-4.8c-0.1-0.1-0.1-0.3,0.1-0.3
		c0.1-0.1,0.3-0.1,0.3,0.1c0.5,0.8,1.6,2.8,0.2,5.4C61.8,46.6,61.8,46.6,61.7,46.6z"/>
</g>
<g>
	<path class="st1" d="M64.1,46.6c0,0-0.1,0-0.1,0c-0.1-0.1-0.2-0.2-0.1-0.3c1.5-2.8-0.4-4.8-0.4-4.9c-0.1-0.1-0.1-0.3,0-0.3
		c0.1-0.1,0.3-0.1,0.3,0c0,0,2.2,2.3,0.5,5.4C64.3,46.6,64.2,46.6,64.1,46.6z"/>
</g>
<g>
	<path class="st1" d="M66.5,46.5c0,0-0.1,0-0.1,0c-0.1-0.1-0.2-0.2-0.1-0.3c1.5-2.8-0.4-4.8-0.4-4.9c-0.1-0.1-0.1-0.3,0-0.3
		c0.1-0.1,0.3-0.1,0.3,0c0,0,2.2,2.3,0.5,5.4C66.7,46.5,66.6,46.5,66.5,46.5z"/>
</g>
<g>
	<path class="st3" d="M68.8,46.2"/>
</g>
<g>
	<path class="st1" d="M69,45.9C69,45.9,69,45.9,69,45.9c-0.2-0.1-0.3-0.2-0.2-0.3c1-2.5-0.6-4.2-0.7-4.3c-0.1-0.1-0.1-0.3,0-0.3
		c0.1-0.1,0.3-0.1,0.3,0c0,0,1.9,2,0.8,4.8C69.2,45.8,69.1,45.9,69,45.9z"/>
</g>
<g>
	<path class="st1" d="M71.3,45.6C71.3,45.6,71.2,45.6,71.3,45.6c-0.2-0.1-0.3-0.2-0.2-0.3c0.8-2-0.1-3.5-0.6-4
		c-0.1-0.1-0.1-0.3,0-0.3c0.1-0.1,0.3-0.1,0.3,0c0.5,0.6,1.5,2.3,0.6,4.5C71.5,45.6,71.4,45.6,71.3,45.6z"/>
</g>
<g>
	<path class="st3" d="M70.3,35.9"/>
</g>
</svg>
