<?xml version="1.0" encoding="utf-8"?>
<!-- Generator: Adobe Illustrator 20.0.0, SVG Export Plug-In . SVG Version: 6.00 Build 0)  -->
<svg version="1.1" id="Layer_3" xmlns="http://www.w3.org/2000/svg" xmlns:xlink="http://www.w3.org/1999/xlink" x="0px" y="0px"
	 width="99px" height="80px" viewBox="0 0 99 80" style="enable-background:new 0 0 99 80;" xml:space="preserve">
<style type="text/css">
	.st0{fill:#E8EAEA;}
	.st1{fill:#ABABAB;}
</style>
<g>
	<g>
		<path class="st0" d="M0.4,56.1l17,14.8c0,0,6.9,5.9,7.2,6.1c0.3,0.2,3.9,2.4,5.1,2.5c0.3,0-0.8-0.4-2.7-2.8
			c-0.9-1.2-0.9-1.9-1.4-3.6c-0.4-1.4-0.8-7.8-0.7-14.7l-0.5-8.1l-1.5-1c-0.2-0.2-0.6-0.2-0.8,0l-1.4,0.7l-0.8-0.8l-1.1,0.4
			c-0.4-0.3-1-0.5-1-0.5l-0.1,0c-0.9-0.5-1.6-0.6-2.2-0.4l0,0c-0.4-0.1-0.7-0.1-1-0.1c-0.9,0-1.7,0.1-2.3,0.5
			c-0.2,0-0.3,0.1-0.5,0.1c-0.5,0-1,0-1.4,0.1c-0.6-0.1-1.2-0.1-1.8,0C5,49.6,4.2,52,4.1,53.3l-1.5,0.3l1,0.8L0.7,55
			C0.1,55.2,0,55.8,0.4,56.1z M16.6,50.1c0-0.1,0.1-0.1,0.1-0.2c0.1,0.1,0.2,0.1,0.3,0.2c0,0.1,0,0.1-0.1,0.2
			C16.8,50.2,16.7,50.2,16.6,50.1z M15.7,49.7c-0.1-0.1-0.2-0.1-0.3-0.2c0.1-0.1,0.1-0.1,0.2-0.2c0.2,0.1,0.3,0.1,0.5,0.2
			c-0.1,0.1-0.1,0.2-0.2,0.3C15.9,49.8,15.8,49.7,15.7,49.7z M15,50.3C15,50.3,15,50.3,15,50.3c0.2,0.1,0.4,0.1,0.6,0.2
			c0,0,0,0,0,0.1C15.4,50.5,15.2,50.4,15,50.3z M13.6,51.3c0-0.2,0-0.4,0-0.6c0.2,0.1,0.4,0.2,0.7,0.3c0,0,0,0.1,0,0.1L13.6,51.3z
			 M12.3,51.6c0-0.4,0-0.9,0.2-1.2c0.2,0.1,0.3,0.1,0.5,0.2c0,0.3,0,0.7,0,1L12.3,51.6z M11.2,51.8c0-0.5,0.2-1.2,0.6-1.7
			c0,0,0,0,0,0c-0.2,0.5-0.2,1.1-0.2,1.6L11.2,51.8z M10,52.1c0.1-0.6,0.4-1.3,0.9-1.8c-0.3,0.6-0.4,1.2-0.4,1.6L10,52.1z M8.7,52.4
			c0.2-0.7,0.5-1.6,1.3-2c-0.4,0.6-0.6,1.3-0.7,1.9L8.7,52.4z M7.6,52.6c0.1-0.4,0.4-0.9,0.8-1.4C8.2,51.7,8,52.1,8,52.5L7.6,52.6z
			 M6.3,52.9c0.1-0.3,0.3-0.7,0.6-1.1c0.3-0.3,0.6-0.7,0.9-0.9c-0.5,0.6-0.8,1.4-0.9,1.9L6.3,52.9z M4.9,53.2
			c0.1-0.5,0.3-1.2,0.7-1.8c0.5-0.6,1.1-1,2-1.3c-0.5,0.3-0.9,0.7-1.3,1.2c-0.4,0.6-0.7,1.3-0.8,1.8L4.9,53.2z"/>
	</g>
	<g>
		<g>
			<path class="st1" d="M27.2,76.7l0.6-53.4l39.5-1.8c0.3,0,0.6,0.1,0.8,0.4c0.2,0.2,0.3,0.5,0.3,0.9l-2.6,49.2
				c-0.1,2.1-1.7,3.8-3.8,4.1l-31.6,4l0,0C28.6,79.9,27.2,78.5,27.2,76.7z M28.5,23.9l-0.6,52.8c0,1.4,1.1,2.5,2.5,2.5l31.6-4
				c1.8-0.2,3.1-1.7,3.2-3.4l2.6-49.2c0-0.1,0-0.3-0.1-0.3c-0.1-0.1-0.2-0.1-0.3-0.1L28.5,23.9z"/>
		</g>
	</g>
	<g>
		<g>
			<path class="st1" d="M27.5,78.2l0.6-0.3c0,0-1.4-2.6-2.1-4.1c-0.6-1.5-0.7-7.6-0.7-8.7c0-0.5-0.5-16.2-0.5-16.9
				c-0.2-7.4-0.6-26.6-0.4-27.6c0.1-0.5,0.2-0.7,0.3-0.8l3.2,4.1l0.5-0.4l-3.5-4.5l-0.2,0c-0.1,0-0.8,0.2-1,1.5
				c-0.2,1.2,0.4,26.6,0.4,27.7c0,0.2,0.5,16.4,0.5,16.9c0,0.1,0.1,7.2,0.8,8.9C26.1,75.6,27.5,78.1,27.5,78.2z"/>
		</g>
	</g>
	<g>
		<g>
			<path class="st1" d="M34.1,65.6c-2.8-2.5-4.4-6-4.4-9.8V25.4l36.7-1.6l-1.4,28.9c-0.4,7.9-5.9,14-13.5,15L44,68.7
				c-0.5,0.1-1,0.1-1.6,0.1C39.4,68.8,36.4,67.7,34.1,65.6z M30.4,26.1v29.7c0,3.6,1.5,6.9,4.2,9.3c2.6,2.3,6,3.3,9.3,2.9l7.5-0.9
				c7.2-0.9,12.5-6.8,12.9-14.3l1.4-28.2L30.4,26.1z"/>
		</g>
	</g>
	<g>
		<g>
			<path class="st1" d="M52.9,54c-0.2-0.1-0.2-0.3-0.2-0.6v-5.2c0-0.5,0.4-0.9,0.9-0.9l6.9-0.5c0.3,0,0.5,0.1,0.7,0.2
				c0.2,0.2,0.3,0.4,0.3,0.7l-0.2,5.3c0,0.3-0.3,0.6-0.6,0.6l-7.1,0.6c0,0,0,0-0.1,0C53.3,54.2,53.1,54.1,52.9,54z M60.5,47.2
				l-6.9,0.5c-0.2,0-0.4,0.2-0.4,0.4v5.2c0,0.1,0,0.1,0.1,0.2c0,0,0.1,0.1,0.2,0.1l7.1-0.6c0.1,0,0.1-0.1,0.1-0.1l0.2-5.3
				c0-0.1,0-0.2-0.1-0.3C60.7,47.3,60.6,47.2,60.5,47.2C60.5,47.2,60.5,47.2,60.5,47.2z"/>
		</g>
	</g>
	<g>
		<g>
			<path class="st1" d="M43.7,54.9c-0.2-0.1-0.2-0.3-0.2-0.6v-5.2c0-0.5,0.4-0.9,0.9-0.9l6.9-0.5c0.3,0,0.5,0.1,0.7,0.2
				c0.2,0.2,0.3,0.4,0.3,0.7L52,53.8c0,0.3-0.3,0.6-0.6,0.6L44.3,55c0,0,0,0-0.1,0C44,55.1,43.9,55,43.7,54.9z M51.2,48.1l-6.9,0.5
				c-0.2,0-0.4,0.2-0.4,0.4v5.2c0,0.1,0,0.1,0.1,0.2c0,0,0.1,0.1,0.2,0.1l7.1-0.6c0.1,0,0.1-0.1,0.1-0.1l0.2-5.3
				c0-0.1,0-0.2-0.1-0.3C51.5,48.1,51.4,48.1,51.2,48.1C51.3,48.1,51.2,48.1,51.2,48.1z"/>
		</g>
	</g>
	<g>
		<g>
			<path class="st1" d="M34.5,55.6c-0.2-0.1-0.2-0.3-0.2-0.6v-5.2c0-0.5,0.4-0.9,0.9-0.9l6.9-0.5c0.3,0,0.5,0.1,0.7,0.2
				c0.2,0.2,0.3,0.4,0.3,0.7l-0.2,5.3c0,0.3-0.3,0.6-0.6,0.6l-7.1,0.6c0,0,0,0-0.1,0C34.9,55.8,34.7,55.7,34.5,55.6z M42.1,48.9
				l-6.9,0.5c-0.2,0-0.4,0.2-0.4,0.4V55c0,0.1,0,0.1,0.1,0.2c0,0,0.1,0.1,0.2,0.1l7.1-0.6c0.1,0,0.1-0.1,0.1-0.1l0.2-5.3
				c0-0.1,0-0.2-0.1-0.3C42.3,48.9,42.2,48.9,42.1,48.9C42.1,48.9,42.1,48.9,42.1,48.9z"/>
		</g>
	</g>
	<g>
		<g>
			<path class="st1" d="M34.2,30.5l28.2-1.3l-0.5,13.5l-27.5,1.6l-0.4,0L34.2,30.5z M61.6,29.9l-26.8,1.3l-0.2,12.3L61.1,42
				L61.6,29.9z"/>
		</g>
	</g>
	<g>
		<g>
			
				<rect x="65.6" y="18.1" transform="matrix(0.6506 -0.7595 0.7595 0.6506 7.5788 57.2387)" class="st1" width="0.7" height="4.6"/>
		</g>
	</g>
	<g>
		<g>
			<path class="st1" d="M35.5,21.6c0.6,0,1.1,0,1.6-0.1c0.3,0,0.6,0,0.8,0c1,0,1.4-0.7,1.6-1.3l4.4-0.1c0.2,0.3,0.6,0.8,1.2,1.1
				c0.6,0.3,1.5,0.2,2.5,0.1c0.4,0,0.8-0.1,1.2-0.1c0.9,0,1.4-0.5,1.5-1c0.1-0.2,0.1-0.4,0.2-0.5l6.3-0.4l0.8,0.7
				c0.2,0.2,0.5,0.3,0.9,0.3H62c0.5,0,0.9-0.4,0.9-0.9v-0.2l2.7-0.2c0.6,0,1-0.5,1-1l-0.1-5.4c0-0.4-0.2-0.7-0.6-0.9L64.3,11
				l-0.6,0.2l1.9,1.3c0.1,0,0.2,0.1,0.2,0.2l0.1,5.4c0,0.2-0.1,0.3-0.3,0.3l-3.4,0.2v0.9c0,0.1-0.1,0.2-0.2,0.2h-3.4
				c-0.2,0-0.3-0.1-0.4-0.1l-1.1-0.9l-7.3,0.4l0,0.3c0,0.2,0,1.1-1.1,1.1c-0.4,0-0.9,0.1-1.3,0.1c-0.9,0.1-1.7,0.2-2.1-0.1
				c-0.6-0.3-1-1-1.1-1l-0.1-0.2l-5.4,0.1l0,0.3c0,0.1-0.1,0.9-1,0.9c-0.2,0-0.5,0-0.9,0c-1.2,0.1-3.4,0.2-3.6-0.6l0,0l-0.2-0.6
				l-5.5,0.4l-2.5-2.7l0.1-4.6c0-0.5,0.1-0.6,0.2-0.7l1.4-0.1l0-0.7l-1.6,0.1c-0.7,0.2-0.7,0.9-0.7,1.3l0,0.1l-0.1,4.8l2.9,3.2
				l5.3-0.4l0,0.1C33,21.4,34.2,21.6,35.5,21.6z"/>
		</g>
	</g>
	<g>
		<g>
			<rect x="24.7" y="18.8" transform="matrix(0.9916 -0.1294 0.1294 0.9916 -2.2667 3.45)" class="st1" width="1.3" height="0.7"/>
		</g>
	</g>
	<g>
		<g>
			<polygon class="st1" points="27.9,20.5 28.1,14.6 66.2,13 66.2,12.3 27.4,13.9 27.2,20.4 			"/>
		</g>
	</g>
	<g>
		<g>
			<path class="st1" d="M36.9,52.1l3.4-1.7v3.3L36.9,52.1z M38.1,52.1l1.7,0.8v-1.6L38.1,52.1z"/>
		</g>
	</g>
	<g>
		<g>
			<path class="st1" d="M55.7,49.2l3.4,1.4L55.7,52V49.2z M56.2,49.9v1.3l1.5-0.6L56.2,49.9z"/>
		</g>
	</g>
	<g>
		<g>
			<g>
				<path class="st1" d="M44.1,60.5c0.1,0,0.2-0.1,0.2-0.2c0.2-0.6,0.6-1.1,1.1-1.4c0.7-0.5,1.6-0.8,2.5-0.6
					c0.9,0.1,1.7,0.6,2.2,1.3c0.1,0.1,0.1,0.2,0.2,0.3c0.1,0.1,0.2,0.2,0.4,0.1c0.1-0.1,0.2-0.2,0.1-0.4c-0.1-0.1-0.2-0.2-0.2-0.4
					c-0.6-0.8-1.5-1.4-2.5-1.5c-1-0.2-2,0.1-2.9,0.7c-0.6,0.4-1,1-1.3,1.7C43.8,60.3,43.9,60.4,44.1,60.5
					C44,60.5,44.1,60.5,44.1,60.5z"/>
			</g>
		</g>
		<g>
			<g>
				<path class="st1" d="M50.6,59.8"/>
			</g>
		</g>
		<g>
			<g>
				<path class="st1" d="M47.4,65.4c0.8,0,1.6-0.2,2.3-0.8c0.6-0.5,1.1-1.1,1.3-1.8c0-0.1,0-0.3-0.2-0.3c-0.1,0-0.3,0-0.3,0.2
					c-0.2,0.6-0.6,1.2-1.2,1.6c-1.5,1.1-3.6,0.8-4.7-0.7c-0.1-0.1-0.1-0.2-0.2-0.3c-0.1-0.1-0.2-0.2-0.4-0.1
					c-0.1,0.1-0.2,0.2-0.1,0.4c0.1,0.1,0.1,0.2,0.2,0.4C45.1,64.9,46.3,65.4,47.4,65.4z"/>
			</g>
		</g>
		<g>
			<g>
				<path class="st1" d="M44.3,63.4"/>
			</g>
		</g>
		<g>
			<g>
				<path class="st1" d="M43.9,62.2"/>
			</g>
		</g>
		<g>
			<g>
				<path class="st1" d="M43.9,61.1"/>
			</g>
		</g>
	</g>
	<g>
		<g>
			
				<rect x="55.4" y="35.7" transform="matrix(2.785263e-02 -0.9996 0.9996 2.785263e-02 22.3933 95.1185)" class="st1" width="9.4" height="0.7"/>
		</g>
	</g>
	<g>
		<g>
			
				<rect x="31.1" y="37" transform="matrix(1.418014e-02 -0.9999 0.9999 1.418014e-02 -2.049 72.5394)" class="st1" width="9.4" height="0.7"/>
		</g>
	</g>
	<g>
		<g>
			<path class="st1" d="M62.1,11.5c-0.2,0-0.4-0.1-0.5-0.3c-0.4-0.5-0.2-1.5-0.1-1.8l0.2-2.9c0-0.2,0.1-0.4,0.3-0.4
				C62.5,6,63.1,6,63.4,6l0,0c0,0,0,0,0,0c0.2,0,0.4,0.1,0.5,0.4C64.2,7,64.3,9,64.3,9.2c0.3,0.9,0.2,1.6,0,2
				c-0.2,0.2-0.4,0.3-0.4,0.3c0,0-0.8,0.1-1.5,0.1C62.2,11.5,62.1,11.5,62.1,11.5z M63.4,6.5c-0.3,0-0.8,0-1.3,0.2l-0.2,2.9l0,0
				c-0.1,0.4-0.2,1.1,0,1.3c0,0,0.1,0.1,0.1,0.1c0.8,0,1.7-0.1,1.7-0.1c0,0,0,0,0.1-0.1c0.1-0.1,0.2-0.5-0.1-1.5l0-0.1
				C63.8,8.7,63.7,7.1,63.4,6.5C63.5,6.5,63.5,6.5,63.4,6.5L63.4,6.5z"/>
		</g>
	</g>
	<g>
		<g>
			<path class="st1" d="M58.6,11.7c-0.2,0-0.4-0.1-0.5-0.3c-0.4-0.5-0.2-1.5-0.1-1.8l0.2-2.9c0-0.2,0.1-0.4,0.3-0.4
				C59,6.2,59.6,6.1,60,6.1l0,0c0,0,0,0,0,0c0.2,0,0.4,0.1,0.5,0.4c0.3,0.7,0.4,2.6,0.4,2.9c0.2,1,0.2,1.6,0,2
				c-0.2,0.2-0.4,0.3-0.4,0.3c0,0-0.8,0.1-1.5,0.1C58.7,11.7,58.7,11.7,58.6,11.7z M60,6.7c-0.3,0-0.8,0-1.3,0.2l-0.2,2.9l0,0
				c-0.1,0.4-0.2,1.1,0,1.3c0,0,0.1,0.1,0.1,0.1c0.8,0,1.7-0.1,1.7-0.1c0,0,0,0,0.1-0.1c0.1-0.1,0.2-0.5-0.1-1.5l0-0.1
				C60.3,8.9,60.2,7.2,60,6.7C60,6.7,60,6.7,60,6.7L60,6.7z"/>
		</g>
	</g>
	<g>
		<g>
			<path class="st1" d="M55.1,11.8c-0.2,0-0.4-0.1-0.5-0.3c-0.4-0.5-0.2-1.5-0.1-1.8l0.2-2.9c0-0.2,0.1-0.4,0.3-0.4
				c0.6-0.2,1.2-0.2,1.5-0.2l0,0c0,0,0,0,0,0c0.2,0,0.4,0.1,0.5,0.4c0.3,0.7,0.4,2.6,0.4,2.9c0.2,1,0.2,1.6,0,2
				c-0.2,0.2-0.4,0.3-0.4,0.3c0,0-0.8,0.1-1.5,0.1C55.3,11.8,55.2,11.8,55.1,11.8z M56.5,6.8c-0.3,0-0.8,0-1.3,0.2L55,9.9l0,0
				c-0.1,0.4-0.2,1.1,0,1.3c0,0,0.1,0.1,0.1,0.1c0.8,0,1.7-0.1,1.7-0.1c0,0,0,0,0.1-0.1c0.1-0.1,0.2-0.5-0.1-1.5l0-0.1
				C56.8,9,56.7,7.4,56.5,6.8C56.5,6.8,56.5,6.8,56.5,6.8L56.5,6.8z"/>
		</g>
	</g>
	<g>
		<g>
			<path class="st1" d="M51.6,12c-0.2,0-0.4-0.1-0.5-0.3c-0.4-0.5-0.2-1.5-0.1-1.8L51.1,7c0-0.2,0.1-0.4,0.3-0.4
				C52,6.5,52.6,6.4,53,6.4l0,0c0,0,0,0,0,0c0.2,0,0.4,0.1,0.5,0.4c0.3,0.7,0.4,2.6,0.4,2.9c0.2,1,0.2,1.6,0,2
				c-0.2,0.2-0.4,0.2-0.4,0.3c0,0-0.8,0.1-1.5,0.1C51.8,12,51.7,12,51.6,12z M53,7c-0.3,0-0.8,0-1.3,0.2L51.5,10l0,0
				c-0.1,0.4-0.2,1.1,0,1.3c0,0,0.1,0.1,0.1,0.1c0.8,0,1.7-0.1,1.7-0.1c0,0,0,0,0.1-0.1c0.1-0.1,0.2-0.5-0.1-1.5l0-0.1
				C53.3,9.2,53.2,7.5,53,7C53,7,53,7,53,7L53,7z"/>
		</g>
	</g>
	<g>
		<g>
			<path class="st1" d="M48.1,12.1c-0.2,0-0.4-0.1-0.5-0.3c-0.4-0.5-0.2-1.5-0.1-1.8l0.2-2.9c0-0.2,0.1-0.4,0.3-0.4
				c0.6-0.2,1.2-0.2,1.5-0.2l0,0c0,0,0,0,0,0c0.2,0,0.4,0.1,0.5,0.4c0.3,0.7,0.4,2.6,0.4,2.9c0.2,1,0.2,1.6,0,2
				c-0.2,0.2-0.4,0.3-0.4,0.3c0,0-0.8,0.1-1.5,0.1C48.3,12.2,48.2,12.2,48.1,12.1z M49.5,7.1c-0.3,0-0.8,0-1.3,0.2L48,10.2l0,0
				c-0.1,0.4-0.2,1.1,0,1.3c0,0,0.1,0.1,0.1,0.1c0.8,0,1.7-0.1,1.7-0.1c0,0,0,0,0.1-0.1c0.1-0.1,0.2-0.5-0.1-1.5l0-0.1
				C49.8,9.3,49.7,7.7,49.5,7.1C49.5,7.1,49.5,7.1,49.5,7.1L49.5,7.1z"/>
		</g>
	</g>
	<g>
		<g>
			<path class="st1" d="M44.6,12.3c-0.2,0-0.4-0.1-0.5-0.3c-0.4-0.5-0.2-1.5-0.1-1.8l0.2-2.9c0-0.2,0.1-0.4,0.3-0.4
				C45,6.8,45.7,6.7,46,6.7l0,0c0,0,0,0,0,0c0.2,0,0.4,0.1,0.5,0.4c0.3,0.7,0.4,2.6,0.4,2.9c0.2,1,0.2,1.6,0,2
				c-0.2,0.2-0.4,0.3-0.4,0.3c0,0-0.8,0.1-1.5,0.1C44.8,12.3,44.7,12.3,44.6,12.3z M46,7.3c-0.3,0-0.8,0-1.3,0.2l-0.2,2.9l0,0
				c-0.1,0.4-0.2,1.1,0,1.3c0,0,0.1,0.1,0.1,0.1c0.8,0,1.7-0.1,1.8-0.1c0,0,0,0,0,0c0.1-0.1,0.2-0.4-0.1-1.6l0-0.1
				C46.3,9.5,46.2,7.8,46,7.3C46,7.3,46,7.3,46,7.3L46,7.3z M44.6,7.4C44.6,7.4,44.6,7.4,44.6,7.4L44.6,7.4z"/>
		</g>
	</g>
	<g>
		<g>
			<path class="st1" d="M41.1,12.5c-0.2,0-0.4-0.1-0.5-0.3c-0.4-0.5-0.2-1.5-0.1-1.8l0.2-2.9c0-0.2,0.1-0.4,0.3-0.4
				c0.6-0.2,1.2-0.2,1.5-0.2l0,0c0,0,0,0,0,0c0.2,0,0.4,0.1,0.5,0.4c0.3,0.7,0.3,2.6,0.4,2.9c0.2,1,0.2,1.6,0,2
				c-0.2,0.2-0.4,0.3-0.4,0.3c0,0-0.8,0.1-1.5,0.1C41.3,12.5,41.2,12.5,41.1,12.5z M42.5,7.4c-0.3,0-0.8,0-1.3,0.2L41,10.5l0,0
				c-0.1,0.4-0.2,1.1,0,1.3c0,0,0.1,0.1,0.1,0.1c0.8,0,1.7-0.1,1.8-0.1c0,0,0,0,0,0c0.1-0.1,0.2-0.4-0.1-1.6l0-0.1
				C42.8,9.6,42.7,8,42.5,7.4C42.5,7.4,42.5,7.4,42.5,7.4L42.5,7.4z M41.1,7.5C41.1,7.5,41.1,7.5,41.1,7.5L41.1,7.5z"/>
		</g>
	</g>
	<g>
		<g>
			<path class="st1" d="M37.6,12.6c-0.2,0-0.4-0.1-0.5-0.3c-0.4-0.5-0.2-1.5-0.1-1.8l0.2-2.9c0-0.2,0.1-0.4,0.3-0.4
				C38,7.1,38.7,7,39,7l0,0c0,0,0,0,0,0c0.2,0,0.4,0.1,0.5,0.4c0.3,0.7,0.4,2.6,0.4,2.9c0.2,1,0.2,1.6,0,2c-0.2,0.2-0.4,0.2-0.4,0.3
				c0,0-0.8,0.1-1.5,0.1C37.8,12.6,37.7,12.6,37.6,12.6z M39,7.6c-0.3,0-0.8,0-1.3,0.2l-0.2,2.9l0,0c-0.1,0.4-0.2,1.1,0,1.3
				c0,0,0.1,0.1,0.1,0.1c0.8,0,1.7-0.1,1.8-0.1c0,0,0,0,0,0c0.1-0.1,0.2-0.4-0.1-1.6l0-0.1C39.3,9.8,39.2,8.1,39,7.6
				C39,7.6,39,7.6,39,7.6L39,7.6z"/>
		</g>
	</g>
	<g>
		<g>
			<path class="st1" d="M34.1,12.8c-0.2,0-0.4-0.1-0.5-0.3c-0.4-0.5-0.2-1.5-0.1-1.8l0.2-2.9c0-0.2,0.1-0.4,0.3-0.4
				c0.6-0.2,1.2-0.2,1.5-0.2c0,0,0,0,0,0c0.2,0,0.4,0.1,0.5,0.4c0.3,0.7,0.4,2.6,0.4,2.9c0.2,1,0.2,1.6,0,2
				c-0.2,0.2-0.4,0.2-0.4,0.3c0,0-0.8,0.1-1.5,0.1C34.3,12.8,34.2,12.8,34.1,12.8z M35.5,7.7L35.5,7.7c-0.3,0-0.8,0-1.3,0.2L34,10.8
				l0,0c-0.1,0.4-0.2,1.1,0,1.3c0,0,0.1,0.1,0.1,0.1c0.8,0,1.7-0.1,1.8-0.1c0,0,0,0,0,0c0.1-0.1,0.2-0.4-0.1-1.6l0-0.1
				C35.8,9.9,35.7,8.3,35.5,7.7C35.5,7.7,35.5,7.7,35.5,7.7C35.5,7.7,35.5,7.7,35.5,7.7z"/>
		</g>
	</g>
	<g>
		<g>
			<path class="st1" d="M30.6,12.9c-0.2,0-0.4-0.1-0.5-0.3c-0.4-0.5-0.2-1.5-0.1-1.8L30.1,8c0-0.2,0.1-0.4,0.3-0.4
				c0.6-0.2,1.2-0.2,1.5-0.2c0,0,0,0,0,0c0.2,0,0.4,0.1,0.5,0.4c0.3,0.7,0.4,2.6,0.4,2.9c0.2,1,0.2,1.6,0,2
				c-0.2,0.2-0.4,0.3-0.4,0.3c0,0-0.8,0.1-1.5,0.1C30.8,12.9,30.7,12.9,30.6,12.9z M32,7.9L32,7.9c-0.3,0-0.8,0-1.3,0.2l-0.2,2.9
				l0,0c-0.1,0.4-0.2,1.1,0,1.3c0,0,0.1,0.1,0.1,0.1c0.8,0,1.7-0.1,1.7-0.1c0,0,0,0,0.1-0.1c0.1-0.1,0.2-0.5-0.1-1.5l0-0.1
				C32.3,10.1,32.2,8.4,32,7.9C32,7.9,32,7.9,32,7.9C32,7.9,32,7.9,32,7.9z"/>
		</g>
	</g>
	<g>
		<g>
			<path class="st1" d="M27.4,13.1c-0.2,0-0.4-0.1-0.5-0.2c-0.4-0.5-0.2-1.5-0.1-1.8l0.1-2.9c0-0.2,0.1-0.4,0.3-0.4
				c0.5-0.2,1.1-0.2,1.4-0.2c0.2,0,0.4,0.1,0.5,0.4c0.2,0.7,0.3,2.6,0.3,2.9c0.2,1,0.2,1.7-0.1,2C29.2,12.9,29.1,13,29,13
				c0,0,0,0,0,0c0,0-0.7,0.1-1.3,0.1C27.6,13.1,27.5,13.1,27.4,13.1z M28.9,12.5c0,0,0.3-0.2,0-1.6l0,0c0-0.6-0.1-2.2-0.3-2.8
				c-0.2,0-0.7,0-1.2,0.1l-0.1,2.9l0,0c-0.1,0.4-0.1,1.1,0,1.4c0,0,0,0,0.1,0C28.1,12.6,28.9,12.5,28.9,12.5L28.9,12.5z"/>
		</g>
	</g>
	<g>
		<g>
			
				<rect x="26.1" y="11.4" transform="matrix(0.6343 -0.7731 0.7731 0.6343 -0.5066 25.2203)" class="st1" width="0.5" height="3.5"/>
		</g>
	</g>
	<g>
		<g>
			<path class="st1" d="M27.3,12.8"/>
		</g>
	</g>
	<g>
		<g>
			<path class="st1" d="M27.3,12.8"/>
		</g>
	</g>
	<g>
		<g>
			<path class="st1" d="M29.3,10.3"/>
		</g>
	</g>
	<g>
		<g>
			<path class="st1" d="M29.4,10.5c0.5-0.3,0.9-0.7,1.2-1L30.1,9c-0.3,0.3-0.7,0.6-1.1,0.9L29.4,10.5z"/>
		</g>
	</g>
	<g>
		<g>
			<path class="st1" d="M29.3,11.3"/>
		</g>
	</g>
	<g>
		<g>
			<path class="st1" d="M30.2,10.1"/>
		</g>
	</g>
	<g>
		<g>
			<path class="st1" d="M27.8,7.9l0.6-0.3c0,0-0.6-1.1-1.6-2.2l-0.5,0.5C27.3,6.9,27.8,7.9,27.8,7.9z"/>
		</g>
	</g>
	<g>
		<g>
			<path class="st1" d="M58.4,17.8"/>
		</g>
	</g>
	<g>
		<g>
			<path class="st1" d="M58.4,20.2"/>
		</g>
	</g>
	<g>
		<g>
			<path class="st1" d="M62.5,19.5"/>
		</g>
	</g>
	<g>
		<g>
			<path class="st1" d="M45.4,17.1l0-0.7c0-0.3,0.1-0.6,0.4-0.8c1.4-0.7,2.4-0.3,3.1,0.1c0.2,0.2,0.4,0.4,0.4,0.7V17h0.5v-0.6
				c0-0.5-0.2-0.9-0.6-1.2c-0.6-0.4-1.9-1-3.6-0.1c-0.5,0.2-0.7,0.7-0.7,1.2l0,0.7L45.4,17.1z"/>
		</g>
	</g>
	<g>
		<g>
			<path class="st1" d="M33.6,17.8l0-1.1c0-0.2,0.2-0.5,0.5-0.6c1.9-0.6,3.3-0.2,4,0.1c0.3,0.1,0.5,0.3,0.5,0.5v1h0.5v-1
				c0-0.4-0.3-0.8-0.8-1C37.6,15.4,36,15,34,15.6c-0.6,0.2-0.9,0.6-0.9,1.1l0,1.1L33.6,17.8z"/>
		</g>
	</g>
	<g>
		<g>
			<path class="st1" d="M58.6,16.3l0-0.5c0-0.2,0.1-0.4,0.3-0.5c1.2-0.5,2.1-0.2,2.6,0.1c0.2,0.1,0.3,0.3,0.3,0.4v0.5h0.5v-0.5
				c0-0.4-0.2-0.7-0.6-0.9c-0.5-0.3-1.7-0.7-3.1-0.1c-0.4,0.2-0.7,0.6-0.6,1l0,0.5L58.6,16.3z"/>
		</g>
	</g>
	<g>
		<g>
			<rect x="43.8" y="18.2" class="st1" width="0.5" height="1.6"/>
		</g>
	</g>
	<g>
		<g>
			<rect x="56.8" y="17.5" class="st1" width="0.5" height="1.6"/>
		</g>
	</g>
	<g>
		<g>
			<path class="st1" d="M22.3,18.1c0.7-1.9,1.4-3.9,2.3-5.9L24.1,12c-1.1,1.7-2.1,3.7-2.9,5.8c-0.4,1.8-0.8,3.8-1.1,5.8l0.5,0.1
				C21.1,22,21.6,20.1,22.3,18.1L22.3,18.1z M22,17.4c-0.1,0.2-0.1,0.4-0.2,0.6v0c0,0.1-0.1,0.2-0.1,0.3c0-0.1,0-0.2,0.1-0.3
				C21.8,17.8,21.9,17.6,22,17.4z"/>
		</g>
		<g>
			<path class="st1" d="M32.2,3.9c0.5-0.4,1-0.8,1.5-1l0.7-0.4l-0.7-0.1c-0.2,0-0.5-0.1-0.7-0.1l0,0l0,0c-0.8,0.2-1.6,0.4-2.4,0.6
				l-1,0.3l1,0.2c0.4,0.1,0.8,0.3,1.3,0.5L32.1,4L32.2,3.9z M32.7,2.9c-0.2,0.1-0.4,0.3-0.7,0.5c-0.1-0.1-0.3-0.1-0.4-0.2
				C31.9,3.1,32.3,3,32.7,2.9z"/>
		</g>
		<g>
			<path class="st1" d="M30.2,5.3c0.4-0.2,0.7-0.5,1.1-0.7l0,0c0.1-0.1,0.1-0.1,0.2-0.2l0.3-0.3l-0.4-0.2c-0.3-0.1-0.6-0.3-0.9-0.3
				c-0.3-0.1-0.7-0.1-1-0.1l-0.1,0l-0.1,0c-0.2,0.1-0.4,0.3-0.6,0.4l-0.3,0.2l0.3,0.2c0.4,0.3,0.7,0.6,1,0.9L30,5.4L30.2,5.3z
				 M30.9,4.3c-0.3,0.2-0.6,0.4-0.8,0.5c-0.2-0.2-0.4-0.4-0.6-0.6c0.1-0.1,0.1-0.1,0.2-0.2c0.3,0,0.6,0,0.8,0.1
				C30.6,4.2,30.8,4.2,30.9,4.3z"/>
		</g>
		<g>
			<path class="st1" d="M36,4.1l0.3-0.2L36,3.6c-0.1-0.1-0.2-0.2-0.4-0.3l-0.1-0.1l-0.1,0c-0.8,0.3-1.6,0.6-2.3,1l-0.4,0.2L33,4.7
				c0.2,0.1,0.3,0.3,0.5,0.5l0.1,0.2l0.2-0.1C34.6,4.8,35.3,4.4,36,4.1z M34.9,4c-0.4,0.2-0.8,0.4-1.2,0.7c0,0-0.1-0.1-0.1-0.1
				C34.1,4.4,34.5,4.2,34.9,4z"/>
		</g>
		<g>
			<path class="st1" d="M36.3,3c0.3-0.1,0.5-0.2,0.8-0.2c0.2,0,0.4-0.1,0.6-0.1l0.3-0.1l0.1,0l0.7,0.3l-0.6,0.2
				c-0.5,0.2-1,0.4-1.5,0.6l-0.2,0.1l-0.1-0.1c-0.1-0.1-0.2-0.1-0.2-0.2l-0.3-0.3L36.3,3z"/>
		</g>
		<g>
			<path class="st1" d="M33.2,5.6l0.3-0.2l-0.2-0.2c-0.2-0.2-0.4-0.4-0.6-0.6l-0.1-0.1l-0.2,0.1c-0.6,0.3-1.1,0.7-1.7,1.1l-0.2,0.2
				l0.2,0.2c0.2,0.2,0.3,0.4,0.5,0.7L31.2,7l0.2-0.2C32,6.4,32.6,6,33.2,5.6z M32.7,5.3c-0.5,0.3-0.9,0.6-1.3,0.9
				c-0.1-0.1-0.1-0.2-0.2-0.3c0.5-0.3,0.9-0.6,1.3-0.8C32.5,5.2,32.6,5.3,32.7,5.3z"/>
		</g>
		<g>
			<path class="st1" d="M29.7,5.7l0.2-0.2l-0.2-0.2c-0.3-0.3-0.7-0.7-1-0.9l-0.2-0.1l-0.2,0.1c-0.4,0.4-0.9,0.8-1.3,1.3
				c-1.7,1.8-3.1,4.2-4.3,7.3l0.5,0.2C25,10.1,27.1,7.6,29.7,5.7z M29.1,5.5c-1.7,1.3-3.2,2.8-4.5,4.6c0.8-1.6,1.8-3,2.8-4
				c0.4-0.4,0.8-0.8,1.1-1.1C28.7,5.1,28.9,5.3,29.1,5.5z"/>
		</g>
		<g>
			<path class="st1" d="M19.8,22c0.4-1.4,0.8-2.7,1.2-4l0,0c1.3-5.5,3.3-9.7,5.8-12.4c0.3-0.3,0.6-0.6,0.9-0.9l-0.3-0.4
				c-5.8,3.6-7.7,11.5-8.2,17.6L19.8,22z M20.1,18.9c0.7-4.3,2.1-8.9,5-12.1c-2,2.7-3.5,6.4-4.6,11C20.4,18.2,20.2,18.6,20.1,18.9z"
				/>
		</g>
		<g>
			<path class="st1" d="M19.3,38.1c0,0.2,0.1,0.4,0.1,0.6l-0.5,0.1c-0.2-0.5-0.3-1-0.4-1.5l0.5-0.1C19.1,37.5,19.2,37.8,19.3,38.1
				L19.3,38.1z"/>
		</g>
		<g>
			<path class="st1" d="M24.3,43.9v0.6l-0.2,0.1L24,44.5c-2.1-3.2-3.4-6.1-4.2-8.1c0,0.4,0.1,1,0.2,1.6c1.1,2.8,2.5,5.4,4.3,7.7v0.9
				c-2-2.5-3.6-5.3-4.8-8.4l0,0c-0.3-1.6-0.3-2.6-0.3-2.6c0,0,0-0.3,0-0.8l0-1.6l0.5,1.6C20.3,36.4,21.7,39.9,24.3,43.9L24.3,43.9z"
				/>
		</g>
		<g>
			<path class="st1" d="M19.1,26L19.1,26c0-0.2,0.1-0.5,0.1-0.7l0.5,0.1c0,0.3-0.1,0.6-0.1,1l-0.5,0L19.1,26z"/>
		</g>
		<g>
			<path class="st1" d="M15.9,34.1c0,0.1,0.1,9.2,8.4,16.9l0.1,0.1c0-0.1,0-0.1,0-0.2v-0.6c-7.8-7.4-7.9-16.2-7.9-16.2
				c0-0.9-0.9-20.7,7.5-28.1c1.7-1.5,3.4-2.4,4.9-2.6l0.1,0c0.3-0.1,0.6-0.3,0.9-0.4c0.1,0,0.3-0.1,0.4-0.1l0.2-0.1
				c0.9-0.4,1.7-0.7,2.5-0.7l0.1,0c2.1-0.4,4-0.5,5.7-0.2l0,0l0,0c0.6-0.1,1.1-0.1,1.7,0l0,0l0,0c1.2-0.2,2.4-0.4,3.6-0.5l0,0
				c1.3-0.3,2.6-0.5,3.8-0.7c10.7-1,14.2,4,14.9,5.2L62.7,6c-0.3-0.5-1.1-1.7-2.9-2.9c-1.9-1.3-5.4-2.7-11.1-2.3l0,0.5
				c7.1,0.6,9.8,3.9,10.5,4.8L59,6.3c-0.6-0.9-3.3-4.1-10.2-4.6l-0.1,0.5c4.1,1,6.5,3.4,7.1,4.2l-0.1,0.1c-0.5-0.6-2.4-2.5-5.4-3.6
				c-0.8-0.3-1.6-0.5-2.5-0.7l-2.3-0.4l2.2,0.9c2.7,1.1,4.2,3.2,4.7,3.8l-0.2,0.1c-0.5-0.8-2.7-3.5-6.3-4.3C45.2,2.1,44.4,2,43.6,2
				l-1.4,0l1.3,0.5c3.1,1.1,4.8,3.3,5.3,4.1l-0.2,0.1c-0.6-0.8-2.7-3.6-6.5-4.4c0,0-0.1,0-0.1,0l-0.1,0L41,2.6l0.5,0.3
				C44,4.1,45,6.1,45.3,6.8l-0.2,0.1c-0.3-0.6-1.1-2.1-2.9-3.3c-0.4-0.3-0.9-0.5-1.5-0.8l-0.1,0l-0.1,0c-0.3,0.1-0.5,0.2-0.8,0.3
				l-0.4,0.2l0.3,0.3c1.3,1.2,2,2.8,2.3,3.4l-0.2,0.1c-0.3-0.6-1.1-2.4-2.5-3.5l-0.1-0.1l-0.1,0.1c-0.6,0.3-1.3,0.6-1.9,0.9L37,4.4
				l0.2,0.2c0.7,1,1.1,1.9,1.3,2.4l-0.2,0.1c-0.2-0.4-0.6-1.4-1.3-2.4l-0.1-0.2l-0.2,0.1C35.9,5,35.2,5.5,34.5,6l-0.2,0.1l0.1,0.2
				c0.2,0.4,0.4,0.7,0.5,0.9l-0.2,0.1c-0.1-0.2-0.3-0.5-0.5-0.8l-0.1-0.2l-0.2,0.2c-0.4,0.3-0.8,0.6-1.3,1l-0.1,0.1
				c0,0-0.1,0.1-0.1,0.1l0,0l0,0l-0.1-0.1l0.1-0.1l0.2-0.1c0.4-0.4,0.8-0.8,1.2-1.1L33.9,6l-0.3-0.4l-0.2,0.1
				c-0.7,0.4-1.3,0.9-2,1.3l-0.2,0.1l0.1,0.2c0,0,0,0,0,0l-0.2,0.1l-0.1-0.2l-0.2,0.2c-0.6,0.5-1.2,1-1.7,1.5l-0.1-0.1
				c0.5-0.5,1.1-1.1,1.7-1.6l0.2-0.1l-0.1-0.2c-0.2-0.2-0.3-0.5-0.5-0.7L30.3,6L30,6.2c-0.4,0.4-0.7,0.9-1.1,1.4l-0.3-0.2l-0.1,0.1
				l-0.3-0.3l-0.2,0.2c-0.2,0.2-0.5,0.5-0.7,0.7l1.3-0.1L28.7,8L29,8.2c-0.2,0.2,0,0.2-0.2,0.4L29,9l0.3,0.7l0.2-0.2
				c0.4-0.5,0.4-0.5,1-1l0.4-0.8l1,0L32,7.9l0.3,0.4l0,0l0.1,0.1l0.2-0.2c0.1-0.1,0.2-0.2,0.3-0.3L33,7.7c0.4-0.3,0.7-0.5,1-0.8
				c0.2,0.4,0.4,0.7,0.4,0.7l1.2-0.2l-0.1-0.2c0,0-0.2-0.4-0.5-1c0.6-0.4,1.1-0.7,1.7-1.1c0.8,1.1,1.2,2.3,1.2,2.3l1.2-0.1L39,7.1
				c0-0.1-0.4-1.3-1.3-2.5c0.5-0.2,0.9-0.5,1.4-0.7c1.5,1.3,2.3,3.4,2.3,3.4l1.2-0.2L42.6,7c-0.1-0.2-0.8-2.1-2.2-3.6
				c0.1,0,0.2-0.1,0.3-0.1c0.5,0.2,0.9,0.4,1.3,0.7c2.1,1.4,2.8,3.3,2.8,3.3l0-0.2l1.2,0l-0.1-0.2c0-0.1-0.8-2.2-3.1-3.8
				c3.6,1.1,5.5,4.1,5.5,4.1l0.1-0.3l1.1-0.1l-0.1-0.2c-0.1-0.1-1.5-2.4-4.4-3.9c0.3,0,0.5,0.1,0.8,0.1c4,0.8,6.1,4.2,6.1,4.3
				L52,6.8l1.1-0.2L53,6.4c-0.1-0.1-1.1-1.9-3.2-3.3c0.1,0,0.3,0.1,0.4,0.1c3.5,1.3,5.3,3.2,5.2,3.5l0.1-0.1l1.1-0.3l-0.2-0.2
				c0,0-1.7-2.2-4.9-3.6c5.4,1.2,7.2,4.2,7.2,4.2l1.2-0.4l-0.1-0.2c-0.1-0.2-2-3.4-7.7-4.7c3.6,0.2,6,1.3,7.5,2.2
				c2.1,1.4,2.8,2.9,2.8,2.9l0-0.2l1.2-0.1L63.5,6c-0.1-0.3-3.3-6.9-15.5-5.7c-1.3,0.1-2.6,0.3-3.9,0.7c-1.1,0.1-2.4,0.2-3.6,0.5
				c-0.6,0-1.2,0-1.7,0C37,1.1,35,1.2,32.9,1.6c-0.9,0-1.8,0.2-2.7,0.7l-0.1,0c-0.1,0-0.3,0.1-0.4,0.1c-0.3,0.1-0.6,0.2-0.9,0.4
				c-1.6,0.2-3.3,1.2-5.1,2.7C15,13.1,15.9,33.2,15.9,34.1z M29.5,7.8c0.2-0.3,0.5-0.7,0.8-1c0,0.1,0.1,0.1,0.1,0.2
				C30.1,7.3,29.8,7.5,29.5,7.8z"/>
		</g>
		<g>
			<path class="st1" d="M20.5,34.8c0.5,1.6,1.7,4.6,3.8,8c0,0.1,0,0.2,0,0.3v0.6c-2.4-3.8-3.7-7.1-4.3-8.8l0,0
				c-0.7-4.1,0-9.5,2.2-16.1c1.7-5.1,3.7-9.1,3.9-9.5l0-0.1c0.3-0.4,0.7-0.8,1-1.1c-0.4,0.5-0.1,0.9-0.6,1.4
				C26.2,10.4,18.9,25.2,20.5,34.8z"/>
		</g>
		<g>
			<path class="st1" d="M17.7,19.4c-0.3,1.7-0.8,6.2,0,11.6l0.3,2.2l0.2-2.2c0.1-1.7,0.4-3.5,0.7-5.1l0,0c0.1-5.3,1-14.8,6.3-20
				l-0.3-0.4c-0.3,0.2-0.6,0.4-0.8,0.7C21.1,8.7,19,13.2,17.7,19.4z M18.2,19.5c0.8-4,2-7.3,3.5-9.8c-2.7,5.3-3.3,12-3.3,16.1
				c-0.2,0.9-0.3,1.9-0.4,2.9C17.6,24.4,18,20.9,18.2,19.5z"/>
		</g>
		<g>
			<path class="st1" d="M22.8,45.8c0.4,0.5,0.9,1,1.4,1.5l0.1-0.1V48l-0.1,0.1c0,0,0.1,0.1,0.1,0.1v0.9c-0.7-1-1.3-2-1.9-3
				L22.8,45.8z"/>
		</g>
		<g>
			<path class="st1" d="M23.5,49.2l0.4-0.3c-1.3-1.9-2.4-3.9-3.2-6l0,0c-2.6-4.3-2.6-7.5-2.6-7.6c0,0,0-0.6,0-1.5l0,0l0,0
				c-0.4-1.8-0.7-3.8-0.8-5.7l-0.5,0c-0.2,3.5-0.1,5.9-0.1,6C16.6,34.3,16.8,42.2,23.5,49.2z M21.5,46c-4.4-6.1-4.4-12-4.4-12l0,0
				c0,0,0-0.9,0-2.5c0.1,0.8,0.3,1.5,0.4,2.3c0,0.9,0,1.4,0,1.5c0,0.1,0,3.5,2.7,7.8C20.6,44.1,21.1,45.1,21.5,46z"/>
		</g>
		<g>
			<path class="st1" d="M20.9,42.9L20.9,42.9c-0.1-0.3-0.2-0.5-0.3-0.7l0.5-0.2c0.4,0.8,0.9,1.6,1.5,2.4l-0.4,0.3
				C21.7,44.1,21.3,43.5,20.9,42.9z"/>
		</g>
		<g>
			<path class="st1" d="M19.1,35l0,1.9l-0.5-1.9c-0.1-0.4-0.2-0.8-0.3-1.3l0,0l0,0c0-0.8,0.1-2.2,0.3-3.8l0.5,0
				c0,0.6,0.1,1.1,0.1,1.7l0,0l0,0C19.1,33.3,19.1,34.4,19.1,35z"/>
		</g>
	</g>
	<g>
		<path class="st1" d="M65.8,59.6c0.9,0.1,1.9,0.2,2.8,0.3c0.2,0,23.3,1.8,25.3,1.8v0.7c-2.1,0-24.4-1.8-25.4-1.8
			c-0.9-0.1-1.8-0.2-2.7-0.3C65.9,60.1,65.8,59.8,65.8,59.6z"/>
	</g>
	<g>
		<path class="st1" d="M65.6,63.7c2.9,0.1,5.6,0.2,7.5,0.2c0.7,0,1.3,0,1.7,0l0,0c1.6,0.1,3.3,0.2,4.7,0.2
			c12.6,0.7,14.4,0.7,14.5,0.7l0-0.7c0,0-1.5,0-10.2-0.5l0-0.1c3,0.2,6,0.4,8.5,0.4c0.6,0,1.2,0,1.8,0l0-0.7
			c-7.1,0.3-22.5-1.4-22.6-1.4c-1.8-0.2-3.6-0.5-5.4-0.8c0,0.2,0,0.5,0,0.7c0.7,0.1,1.4,0.2,2.1,0.3c-0.6-0.1-1.4-0.1-2.1-0.2
			C65.8,62.4,65.8,63.1,65.6,63.7z M70.3,62.3c0.3,0,0.6,0.1,0.9,0.1c0.1,0,4.9,0.6,10.4,1c-0.1,0-0.1,0-0.2,0
			c-2.8-0.1-6.2-0.3-9.2-0.6c-0.6-0.1-1.2-0.2-1.9-0.2V62.3z"/>
	</g>
	<g>
		<path class="st1" d="M93.7,60.7H96v2.7h-2.3V60.7z M95.5,61.3h-1.2v1.6h1.2V61.3z"/>
	</g>
	<g>
		<path class="st1" d="M93.7,62.7H96v2.7h-2.3V62.7z M95.5,63.2h-1.2v1.6h1.2V63.2z"/>
	</g>
	<g>
		<path class="st1" d="M95.5,60.7H99v2.7h-3.5V60.7z M98.5,61.3H96v1.6h2.5V61.3z"/>
	</g>
	<g>
		<path class="st1" d="M95.5,62.7H99v2.7h-3.5V62.7z M98.5,63.2H96v1.6h2.5V63.2z"/>
	</g>
	<g>
		<g>
			
				<rect x="36.3" y="74.2" transform="matrix(0.9926 -0.1212 0.1212 0.9926 -8.6842 6.2621)" class="st1" width="21.7" height="0.7"/>
		</g>
		<g>
			<path class="st1" d="M33.5,76.4c0.3,0,0.5,0,0.6,0L34,75.7c0,0-1.6,0.2-2.7-0.7c-0.8-0.7-1.1-1.8-1.1-3.3l-0.7,0
				c0,1.7,0.4,3,1.3,3.8C31.7,76.3,32.9,76.4,33.5,76.4z"/>
		</g>
		<g>
			<path class="st1" d="M59.5,73.4c0.7,0,1.8-0.1,2.7-0.9c0.9-0.8,1.4-2.1,1.3-3.8l-0.7,0c0,1.5-0.3,2.6-1.1,3.3
				c-1.1,1-2.7,0.7-2.7,0.7l-0.1,0.7C59,73.4,59.2,73.4,59.5,73.4z"/>
		</g>
	</g>
</g>
</svg>
