<?xml version="1.0" encoding="utf-8"?>
<!-- Generator: Adobe Illustrator 20.0.0, SVG Export Plug-In . SVG Version: 6.00 Build 0)  -->
<svg version="1.1" id="Layer_3" xmlns="http://www.w3.org/2000/svg" xmlns:xlink="http://www.w3.org/1999/xlink" x="0px" y="0px"
	 width="85px" height="77px" viewBox="0 0 85 77" style="enable-background:new 0 0 85 77;" xml:space="preserve">
<style type="text/css">
	.st0{fill:#E8EAEA;}
	.st1{fill:#ADADAD;}
	.st2{fill:none;stroke:#ADADAD;stroke-width:2;stroke-miterlimit:10;}
	.st3{fill:none;stroke:#ADADAD;stroke-miterlimit:10;}
	.st4{fill:#ACACAC;}
	.st5{fill:none;stroke:#ACACAC;stroke-width:2;stroke-linecap:round;stroke-linejoin:round;stroke-miterlimit:10;}
	.st6{fill:none;stroke:#ACACAC;stroke-width:1.5;stroke-linecap:round;stroke-linejoin:round;stroke-miterlimit:10;}
</style>
<g>
	<path class="st0" d="M60.4,71.2c0,0-6.1,1.1-7.8-1.1L46.7,63c0,0-0.7-0.9,0.2-1c0.9-0.1,9-0.4,9-0.4l0.2,4.1c0,0-0.1,4.3,1.1,4.8
		C58.4,71,60.4,71.2,60.4,71.2z"/>
</g>
<g>
	<path class="st0" d="M10.1,69.3C8.2,70.1,7,71,7,72c0,2.7,8.6,4.9,19.2,4.9s19.2-2.2,19.2-4.9c0-1.1-1.4-2.1-3.8-2.9
		c0,0,1.2,2.4,1.5,2.8c0.3,0.4-0.9,0.4-3.5,0.6c-2.6,0.2-23.5,1.6-28.8-0.2c0,0-2.4,0.3-1.8-1C9.7,70,10.1,69.3,10.1,69.3"/>
</g>
<g>
	<g>
		<g>
			<rect x="46.9" y="56.9" class="st1" width="9.1" height="0.7"/>
		</g>
		<g>
			<path class="st1" d="M81.7,57.6H71.4v-0.7h10.3c1.5,0,2.7-1.2,2.7-2.7V3.3c0-1.5-1.2-2.7-2.7-2.7H6.5c-1.5,0-2.7,1.2-2.7,2.7
				v12.8H3.2V3.3C3.2,1.5,4.7,0,6.5,0h75.1C83.5,0,85,1.5,85,3.3v50.9C85,56.1,83.5,57.6,81.7,57.6z"/>
		</g>
		<g>
			<path class="st2" d="M3.6,16.1"/>
		</g>
		<g>
			<path class="st2" d="M3.6,27.3"/>
		</g>
		<g>
			<path class="st2" d="M3.6,27.3"/>
		</g>
		<g>
			<path class="st2" d="M3.6,33.4"/>
		</g>
		<g>
			<path class="st2" d="M3.6,33.4"/>
		</g>
		<g>
			<path class="st2" d="M3.6,40.9"/>
		</g>
		<g>
			<path class="st2" d="M3.6,40.9"/>
		</g>
		<g>
			<path class="st2" d="M3.6,45.8"/>
		</g>
		<g>
			<rect x="36.1" y="56.9" class="st1" width="4.8" height="0.7"/>
		</g>
		<g>
			<path class="st2" d="M41.6,57.2"/>
		</g>
		<g>
			<rect x="41.6" y="56.9" class="st1" width="1.6" height="0.7"/>
		</g>
		<g>
			<path class="st2" d="M43.2,57.2"/>
		</g>
		<g>
			<path class="st2" d="M46.9,57.2"/>
		</g>
		<g>
			<rect x="80.5" y="53.1" class="st1" width="4.1" height="0.7"/>
		</g>
		<g>
			<g>
				<polygon class="st1" points="7.8,11.9 7.1,11.9 7.1,4.1 73.1,4.1 73.1,4.8 7.8,4.8 				"/>
			</g>
			<g>
				<rect x="36.2" y="53.1" class="st1" width="6.5" height="0.7"/>
			</g>
			<g>
				<path class="st2" d="M42.7,53.4"/>
			</g>
			<g>
				<path class="st2" d="M43.5,53.4"/>
			</g>
			<g>
				<g>
					<polygon class="st1" points="46.7,53.7 43.5,53.7 43.5,53.1 46.9,53.1 					"/>
				</g>
			</g>
			<g>
				<path class="st2" d="M46.8,53.4"/>
			</g>
			<g>
				<path class="st2" d="M47.7,53.4"/>
			</g>
			<g>
				<g>
					<polygon class="st1" points="55.8,53.7 47.4,53.7 47.7,53.1 55.8,53.1 					"/>
				</g>
			</g>
			<g>
				<path class="st2" d="M55.8,53.4"/>
			</g>
			<g>
				<rect x="71.1" y="53.1" class="st1" width="2.1" height="0.7"/>
			</g>
			<g>
				<rect x="72.9" y="4.4" class="st1" width="0.5" height="49"/>
			</g>
			<g>
				<rect x="80.3" y="4.4" class="st1" width="0.7" height="49"/>
			</g>
			<g>
				<path class="st1" d="M80.9,7.9H73V4.1h7.9V7.9z M73.5,7.4h6.9V4.6h-6.9V7.4z"/>
			</g>
			<g>
				<path class="st1" d="M80.9,13H73V9.2h7.9V13z M73.5,12.5h6.9V9.7h-6.9V12.5z"/>
			</g>
			<g>
				<path class="st1" d="M80.9,18.1H73v-3.8h7.9V18.1z M73.5,17.6h6.9v-2.8h-6.9V17.6z"/>
			</g>
			<g>
				<path class="st1" d="M80.9,23.2H73v-3.8h7.9V23.2z M73.5,22.7h6.9v-2.8h-6.9V22.7z"/>
			</g>
			<g>
				<path class="st1" d="M80.9,28.3H73v-3.8h7.9V28.3z M73.5,27.8h6.9V25h-6.9V27.8z"/>
			</g>
			<g>
				<path class="st1" d="M80.9,33.4H73v-3.8h7.9V33.4z M73.5,32.9h6.9v-2.8h-6.9V32.9z"/>
			</g>
			<g>
				<path class="st1" d="M80.9,38.5H73v-3.8h7.9V38.5z M73.5,38h6.9v-2.8h-6.9V38z"/>
			</g>
			<g>
				<path class="st1" d="M80.9,43.6H73v-3.8h7.9V43.6z M73.5,43.1h6.9v-2.8h-6.9V43.1z"/>
			</g>
			<g>
				<path class="st1" d="M80.9,48.7H73v-3.8h7.9V48.7z M73.5,48.2h6.9v-2.8h-6.9V48.2z"/>
			</g>
			<g>
				<path class="st1" d="M80.9,53.7H73v-3.8h7.9V53.7z M73.5,53.2h6.9v-2.8h-6.9V53.2z"/>
			</g>
			<g>
				<path class="st1" d="M80.9,7.9h-1.8V4.1h1.8V7.9z M79.6,7.4h0.8V4.6h-0.8V7.4z"/>
			</g>
			<g>
				<path class="st1" d="M80.9,13h-1.8V9.2h1.8V13z M79.6,12.5h0.8V9.7h-0.8V12.5z"/>
			</g>
			<g>
				<path class="st1" d="M80.9,18.1h-1.8v-3.8h1.8V18.1z M79.6,17.6h0.8v-2.8h-0.8V17.6z"/>
			</g>
			<g>
				<path class="st1" d="M80.9,23.2h-1.8v-3.8h1.8V23.2z M79.6,22.7h0.8v-2.8h-0.8V22.7z"/>
			</g>
			<g>
				<path class="st1" d="M80.9,28.3h-1.8v-3.8h1.8V28.3z M79.6,27.8h0.8V25h-0.8V27.8z"/>
			</g>
			<g>
				<path class="st1" d="M80.9,33.4h-1.8v-3.8h1.8V33.4z M79.6,32.9h0.8v-2.8h-0.8V32.9z"/>
			</g>
			<g>
				<path class="st1" d="M80.9,38.5h-1.8v-3.8h1.8V38.5z M79.6,38h0.8v-2.8h-0.8V38z"/>
			</g>
			<g>
				<path class="st1" d="M80.9,43.6h-1.8v-3.8h1.8V43.6z M79.6,43.1h0.8v-2.8h-0.8V43.1z"/>
			</g>
			<g>
				<path class="st1" d="M80.9,48.7h-1.8v-3.8h1.8V48.7z M79.6,48.2h0.8v-2.8h-0.8V48.2z"/>
			</g>
			<g>
				<path class="st1" d="M80.9,53.7h-1.8v-3.8h1.8V53.7z M79.6,53.2h0.8v-2.8h-0.8V53.2z"/>
			</g>
			<g>
				<path class="st1" d="M68.2,8.7l-1.4-1.1l-0.7,0.4l-0.3-0.6l-0.3,0.6l-0.7-0.4c-0.1,0.1-0.3,0.3-0.4,0.4c-0.1,0-0.2,0-0.2-0.1
					c-0.1-0.1-0.4-0.4-0.6-0.6L63,7.9l-0.6-0.7c-0.2,0.3-0.5,0.6-0.7,0.6c0,0,0,0,0,0c-0.1,0-0.2,0-0.2-0.1
					c-0.1-0.1-0.3-0.4-0.5-0.6l-0.6,0.7l-0.8-0.7l-0.9,1.2l-0.3-0.9l-0.9,0c-1.2,0.6-1.3,0.3-1.4,0.2C56,7.4,55.8,7.2,55.7,7
					l-0.9,0.7L54.2,7l-0.6,0.7l-0.8-0.7l-1,0.7l-0.1-0.1c0,0-0.4-0.4-0.6-0.6C51,7,50.9,7.2,50.8,7.5l0,0.1l-1.4,0l-0.4-0.6
					l-0.8,0.7l-0.5-0.7L47,7.6l-0.6-0.7l-0.9,0.7l-0.5-0.7l-0.7,0.6l-0.7-0.7l-0.7,0.7l-0.6-0.7l-0.7,0.6l-1.2,0l-0.5-0.6l-0.8,0.6
					l-2.1,0l-0.5-0.6L35.5,8l-0.9-0.8l-0.8,0l-0.7-0.3l-0.9,0.7l-0.8-1l-0.7,0.5l-0.2-0.3l1-0.7l0.8,1l0.8-0.6L34,6.9l0.8,0l0.7,0.6
					l0.8-1.4L37,7l1.8,0l0.9-0.7L40.4,7l0.9,0l0.9-0.7L42.8,7l0.7-0.7L44.2,7L45,6.4l0.6,0.7l0.9-0.7L47,7.1l0.8-0.7l0.5,0.7L49,6.4
					l0.6,0.8l1,0c0.3-0.7,0.4-0.7,0.5-0.7c0.1,0,0.2,0,0.2,0.1c0.1,0.1,0.3,0.4,0.5,0.5l1-0.7l0.7,0.7l0.6-0.7l0.6,0.7l1-0.7
					l0.1,0.1c0,0,0.3,0.5,0.4,0.7c0.1,0,0.6-0.1,1-0.4l0,0l1.2,0l0.2,0.5l0.7-1l0.8,0.7L61,6.6l0.1,0.1c0,0,0.4,0.4,0.6,0.7
					c0.1-0.1,0.3-0.3,0.5-0.6l0.1-0.2L63,7.4l0.7-0.7l0.1,0.1c0.1,0.1,0.5,0.5,0.6,0.7c0.1,0,0.2-0.2,0.3-0.3L64.8,7l0.6,0.4
					l0.5-0.8l0.4,0.8l0.6-0.3l1.4,1.1l0.9-0.7l0.7,0.4l1.1-0.3l2.3,0l0,0.3L71,8l-1.2,0.3L69.2,8L68.2,8.7z"/>
			</g>
			<g>
				<rect x="30.2" y="7" transform="matrix(0.7882 -0.6154 0.6154 0.7882 2.0571 20.2429)" class="st1" width="0.5" height="0.3"/>
			</g>
			<g>
				<polygon class="st1" points="12.5,7.5 11.9,6.9 11.1,7.4 9.4,7.1 8,7.4 7.1,6.7 7.3,6.4 8.1,7 9.4,6.8 11,7.1 11.9,6.4 
					12.5,7.1 13.3,6.5 14.4,7.2 14.2,7.5 13.3,6.9 				"/>
			</g>
			<g>
				<polygon class="st1" points="70.3,44.4 70.2,44 70.9,43.8 73.2,43.9 73.2,44.2 71,44.2 				"/>
			</g>
			<g>
				<polygon class="st1" points="54.8,44 54.2,43.4 53.6,44 53.1,43.5 53.3,43.3 53.6,43.6 54.2,42.9 54.8,43.6 55.4,43.2 
					55.6,43.4 				"/>
			</g>
			<g>
				<path class="st1" d="M51.8,44L51.8,44c-0.1-0.1-0.5-0.4-0.7-0.7c-0.1,0.1-0.2,0.3-0.2,0.5l0,0.1l-0.9,0l0-0.3l0.7,0
					c0.3-0.7,0.4-0.7,0.5-0.7c0.1,0,0.2,0,0.2,0.1c0.1,0.1,0.4,0.4,0.5,0.5l0.6-0.4l0.2,0.3L51.8,44z"/>
			</g>
			<g>
				<polygon class="st1" points="48.2,44 47.7,43.3 47.1,43.9 46.8,43.6 47.7,42.8 48.2,43.5 49,42.8 49.3,43.3 49,43.5 48.9,43.3 
									"/>
			</g>
			<g>
				<path class="st3" d="M47,43.7"/>
			</g>
			<g>
				<path class="st3" d="M46.4,43.1"/>
			</g>
			<g>
				<polygon class="st1" points="45.5,44 44.9,43.3 44.2,43.9 43.4,43.3 42.8,43.9 42.3,43.4 42.5,43.2 42.8,43.5 43.4,42.8 
					44.2,43.5 45,42.8 45.5,43.5 46.3,42.9 46.6,43.1 				"/>
			</g>
			<g>
				<path class="st3" d="M41.4,43.7"/>
			</g>
			<g>
				<path class="st3" d="M40.3,43.7"/>
			</g>
			<g>
				<polygon class="st1" points="69.8,41.3 69.5,41.1 69.6,40.8 69.8,40.9 70.9,40.6 73.2,40.7 73.2,41 70.9,41 				"/>
			</g>
			<g>
				<polygon class="st1" points="54.8,40.7 54.1,39.9 54.3,39.6 54.8,40.2 55.8,39.6 56,39.9 55.7,40.1 55.7,40 				"/>
			</g>
			<g>
				<polygon class="st1" points="53.2,40.3 52.8,39.9 52.4,40.2 52.2,39.9 52.8,39.5 53.4,40.1 				"/>
			</g>
			<g>
				<path class="st1" d="M50.8,40.6l-1.4,0L49,40l0.3-0.2l0.3,0.4l1,0c0.3-0.7,0.4-0.7,0.5-0.7c0.1,0,0.2,0,0.2,0.1
					c0,0,0.1,0.2,0.3,0.4l-0.2,0.2c-0.1-0.1-0.3-0.3-0.3-0.4c-0.1,0.1-0.2,0.3-0.3,0.5L50.8,40.6z"/>
			</g>
			<g>
				<polygon class="st1" points="45.5,40.5 44.9,39.8 44.2,40.5 43.4,39.8 42.7,40.5 42.2,39.9 42.5,39.6 42.8,40 43.4,39.3 
					44.2,40 45,39.4 45.5,40.1 46.4,39.4 46.7,39.9 46.5,40.1 46.3,39.9 				"/>
			</g>
			<g>
				
					<rect x="71.9" y="49.7" transform="matrix(1.155204e-02 -0.9999 0.9999 1.155204e-02 20.4224 122.2783)" class="st1" width="0.3" height="2.3"/>
			</g>
			<g>
				<path class="st1" d="M54.8,50.8l-0.6-0.7l-0.6,0.7l-0.8-0.7l-1,0.7l-0.1-0.1c0,0-0.4-0.3-0.6-0.6c-0.1,0.1-0.2,0.3-0.2,0.5
					l0,0.1l-1.5,0l0-0.3l1.3,0c0.3-0.7,0.4-0.7,0.5-0.7c0.1,0,0.2,0,0.2,0.1c0.1,0.1,0.4,0.4,0.5,0.5l1-0.7l0.7,0.7l0.6-0.7l0.6,0.7
					l0.8-0.6l0.2,0.3L54.8,50.8z"/>
			</g>
			<g>
				<path class="st3" d="M49.4,50.6"/>
			</g>
			<g>
				<path class="st3" d="M48.8,49.8"/>
			</g>
			<g>
				<polygon class="st1" points="46.9,50.8 46.3,50.1 45.5,50.8 45,50.2 45.3,50 45.5,50.3 46.4,49.6 47,50.3 47.7,49.6 48.6,50.5 
					48.3,50.7 47.7,50.1 				"/>
			</g>
			<g>
				<path class="st3" d="M45.2,50.1"/>
			</g>
			<g>
				<path class="st3" d="M44.2,50.5"/>
			</g>
			<g>
				<polygon class="st1" points="42.8,50.7 42.1,50 41.4,50.6 40.3,50.6 39.5,49.8 39.8,49.6 40.4,50.3 41.3,50.3 42.2,49.6 
					42.8,50.3 43.4,49.6 44.3,50.4 44.1,50.6 43.4,50.1 				"/>
			</g>
			<g>
				<polygon class="st1" points="70.7,47.8 70.6,47.5 70.9,47.4 73.2,47.5 73.2,47.8 70.9,47.8 				"/>
			</g>
			<g>
				<path class="st1" d="M54.8,47.5l-0.6-0.7l-0.6,0.7l-0.8-0.7l-1,0.7l-0.1-0.1c0,0-0.1-0.1-0.2-0.2l0.2-0.2c0,0,0.1,0.1,0.1,0.1
					l1-0.7l0.7,0.7l0.6-0.7l0.6,0.8l0.8-0.5l0.2,0.3L54.8,47.5z"/>
			</g>
			<g>
				<polygon class="st1" points="48.1,47.4 47.6,46.5 47.8,46.4 48.2,46.9 48.9,46.2 49.5,47 50.7,47 50.6,47.4 49.3,47.3 
					48.9,46.7 				"/>
			</g>
			<g>
				<path class="st3" d="M45.5,47.1"/>
			</g>
			<g>
				<path class="st3" d="M45,46.5"/>
			</g>
			<g>
				<polygon class="st1" points="42.7,47.3 42.1,46.6 41.4,47.2 40.2,47.1 39.7,46.5 38.9,47.1 36.9,47.1 36.9,46.7 38.8,46.8 
					39.7,46.1 40.4,46.8 41.3,46.8 42.2,46.1 42.8,46.8 43.4,46.1 44.4,47 44.1,47.3 43.4,46.6 				"/>
			</g>
			<g>
				<polygon class="st1" points="68.2,38.3 66.6,37.1 66.8,36.8 68.2,37.9 69.2,37.2 69.8,37.6 70.9,37.3 73.2,37.3 73.2,37.7 
					71,37.6 69.8,37.9 69.2,37.6 				"/>
			</g>
			<g>
				<path class="st1" d="M58.7,38L58.4,37l-0.9,0c-1.2,0.6-1.3,0.3-1.4,0.2c-0.1-0.1-0.3-0.4-0.4-0.6L55,37.2L54.8,37l1.1-0.8
					l0.1,0.1c0,0,0.3,0.5,0.4,0.7c0.1,0,0.6-0.1,1-0.4l0,0l1.2,0l0.2,0.5l0.7-1l0.8,0.7l0.6-0.7l0.1,0.1c0,0,0.4,0.4,0.6,0.7
					c0.1-0.1,0.3-0.3,0.5-0.6l0.1-0.2l0.6,0.7l0.7-0.7l0.1,0.1c0.1,0.2,0.5,0.6,0.6,0.7c0,0,0,0,0,0l0.2,0.3c-0.1,0.1-0.2,0.1-0.3,0
					c-0.1-0.1-0.4-0.4-0.6-0.6L63,37.5l-0.6-0.7c-0.2,0.3-0.5,0.6-0.7,0.6c0,0,0,0,0,0c-0.1,0-0.2,0-0.2-0.1
					c-0.1-0.1-0.3-0.4-0.5-0.6l-0.6,0.7l-0.8-0.7L58.7,38z"/>
			</g>
			<g>
				<path class="st3" d="M52.9,36.4"/>
			</g>
			<g>
				<path class="st3" d="M52.1,36.9"/>
			</g>
			<g>
				<path class="st1" d="M51.8,37.3L51.8,37.3c-0.1-0.1-0.6-0.5-0.8-0.8c0,0,0,0,0.1,0c0,0,0.1,0,0.1,0l-0.3-0.2
					c0.1-0.1,0.2-0.1,0.2-0.1c0,0,0.1,0,0.2,0.1c0.1,0.1,0.4,0.4,0.5,0.5l0.2-0.1l0.2,0.3L51.8,37.3z"/>
			</g>
			<g>
				<polygon class="st1" points="48.2,37.3 47.7,36.6 47,37.2 46.4,36.5 45.5,37.2 44.9,36.5 44.2,37.2 43.7,36.7 43.9,36.4 
					44.2,36.7 45,36 45.6,36.7 46.4,36.1 47,36.8 47.8,36.1 48.2,36.8 48.6,36.4 48.8,36.7 				"/>
			</g>
			<g>
				<polygon class="st1" points="68.2,35.4 66.8,34.3 66.1,34.7 66,34.4 66.8,33.9 68.2,35 69.2,34.3 69.8,34.7 70.9,34.4 
					73.2,34.4 73.2,34.8 71,34.7 69.8,35 69.2,34.7 				"/>
			</g>
			<g>
				<path class="st1" d="M58.7,35.1l-0.3-0.9l-0.9,0c-1.2,0.6-1.3,0.3-1.4,0.2c-0.1-0.1-0.2-0.3-0.3-0.5l0.3-0.2
					c0.1,0.2,0.2,0.3,0.3,0.5c0.1,0,0.6-0.1,1-0.4l0,0l1.2,0l0.2,0.5l0.7-1l0.8,0.7l0.6-0.7l0.1,0.1c0,0,0.4,0.4,0.6,0.7
					c0.1-0.1,0.3-0.3,0.5-0.6l0.1-0.2l0.6,0.7l0.3-0.3l0.2,0.2L63,34.6L62.4,34c-0.2,0.3-0.5,0.6-0.7,0.6c0,0,0,0,0,0
					c-0.1,0-0.2,0-0.2-0.1c-0.1-0.1-0.3-0.4-0.5-0.6l-0.6,0.7l-0.8-0.7L58.7,35.1z"/>
			</g>
			<g>
				<polygon class="st1" points="54.8,34.5 54.2,33.8 53.6,34.4 52.8,33.6 53,33.4 53.6,34 54.2,33.3 54.9,34 54.9,34 55.1,34.2 
									"/>
			</g>
			<g>
				<path class="st3" d="M52.1,34"/>
			</g>
			<g>
				<polygon class="st1" points="48.2,34.4 47.7,33.7 47,34.3 46.4,33.6 45.5,34.3 44.9,33.6 44.2,34.3 43.5,33.6 43.1,33.9 
					42.9,33.7 43.5,33.1 44.2,33.8 45,33.1 45.6,33.8 46.4,33.2 47,33.9 47.8,33.2 48.2,33.9 48.7,33.5 48.9,33.7 				"/>
			</g>
			<g>
				<polygon class="st1" points="68.2,31.7 66.8,30.6 66.1,31 65.9,30.4 65.6,31 65,30.6 65.2,30.3 65.4,30.5 65.9,29.7 66.3,30.5 
					66.8,30.2 68.2,31.3 69.2,30.6 69.8,31 70.9,30.7 73.2,30.7 73.2,31 71,31 69.8,31.3 69.2,31 				"/>
			</g>
			<g>
				<path class="st1" d="M56.7,30.8c-0.3,0-0.5,0-0.6-0.2c-0.1-0.1-0.3-0.4-0.4-0.6l-0.9,0.7L54.2,30l-0.6,0.7l-0.5-0.5l0.2-0.2
					l0.3,0.3l0.6-0.7l0.6,0.7l1-0.7l0.1,0.1c0,0,0.3,0.5,0.5,0.7c0.1,0,0.6,0,1-0.1l0.1,0.3C57.2,30.7,56.9,30.8,56.7,30.8z"/>
			</g>
			<g>
				<polygon class="st1" points="48.2,30.6 47.7,29.9 47,30.6 46.4,29.9 45.5,30.6 44.9,29.9 44.2,30.5 43.7,30.1 43.9,29.8 
					44.2,30.1 45,29.4 45.6,30.1 46.4,29.4 47,30.1 47.8,29.4 48.2,30.1 48.5,29.9 48.7,30.2 				"/>
			</g>
			<g>
				<path class="st1" d="M68.2,28.4l-1.4-1.1l-0.7,0.4l-0.3-0.6l-0.3,0.6l-0.7-0.4c-0.1,0.1-0.3,0.3-0.4,0.4c-0.1,0-0.2,0-0.2-0.1
					c-0.1-0.1-0.4-0.4-0.6-0.6l-0.5,0.6l-0.2-0.2l0.8-0.8l0.1,0.1c0.1,0.1,0.5,0.5,0.6,0.7c0.1,0,0.2-0.2,0.3-0.3l0.1-0.1l0.6,0.4
					l0.5-0.8l0.4,0.8l0.6-0.3l1.4,1.1l0.9-0.7l0.7,0.4l1.1-0.3l2.3,0l0,0.3l-2.2,0L69.8,28l-0.6-0.3L68.2,28.4z"/>
			</g>
			<g>
				<rect x="60.4" y="26.7" transform="matrix(0.6392 -0.769 0.769 0.6392 1.2508 56.4251)" class="st1" width="0.7" height="0.3"/>
			</g>
			<g>
				<path class="st3" d="M53.1,26.7"/>
			</g>
			<g>
				<path class="st1" d="M51.8,27.3L51.8,27.3c-0.1-0.1-0.5-0.4-0.7-0.7c-0.1,0.1-0.2,0.3-0.3,0.5l0,0.1l-1.1,0l0-0.3l0.9,0
					c0.3-0.7,0.4-0.7,0.5-0.7c0.1,0,0.2,0,0.2,0.1c0.1,0.1,0.4,0.4,0.5,0.5l1-0.7l0.5,0.3l-0.2,0.3l-0.3-0.2L51.8,27.3z"/>
			</g>
			<g>
				<polygon class="st1" points="49.4,30.4 49.2,30.1 50.2,29.5 50.7,29.8 50.5,30.1 50.2,29.9 				"/>
			</g>
			<g>
				<polygon class="st1" points="49.6,34.2 49.4,34 50.2,33.4 50.8,33.6 50.7,33.9 50.2,33.7 				"/>
			</g>
			<g>
				<polygon class="st1" points="51.4,30.4 51.2,30.2 51.9,29.5 52.6,30.1 52.4,30.3 51.9,30 				"/>
			</g>
			<g>
				<path class="st3" d="M49.2,26.6"/>
			</g>
			<g>
				<polygon class="st1" points="48.2,27.3 47.7,26.6 47,27.3 46.3,26.4 46.5,26.2 47,26.8 47.8,26.1 48.2,26.8 49,26.1 49.3,26.6 
					49,26.7 48.9,26.6 				"/>
			</g>
			<g>
				<path class="st1" d="M68.2,25.2l-1.4-1.1l-0.7,0.4l-0.3-0.6l-0.3,0.6L64.9,24c-0.1,0.1-0.3,0.3-0.4,0.4c-0.1,0-0.2,0-0.2-0.1
					c-0.1-0.1-0.4-0.4-0.6-0.6L63,24.4l-0.6-0.7c-0.2,0.3-0.5,0.6-0.7,0.6c0,0,0,0,0,0c-0.1,0-0.2,0-0.2-0.1
					c-0.1-0.1-0.3-0.4-0.5-0.6l-0.6,0.7l-0.8-0.7l-0.9,1.2l-0.3-0.9l-0.9,0c-1.2,0.6-1.3,0.3-1.4,0.2c-0.1-0.1-0.3-0.4-0.4-0.6
					l-0.9,0.7l-0.6-0.7l-0.6,0.7l-0.8-0.7l-1,0.7l-0.1-0.1c0,0-0.4-0.4-0.6-0.6c-0.1,0.1-0.2,0.3-0.3,0.5l0,0.1l-1.4,0l-0.4-0.6
					l-0.8,0.7l-0.5-0.7L47,24.1l-0.6-0.7L45.5,24l-0.3-0.3l0.3-0.2l0.1,0.1l0.9-0.7l0.6,0.7l0.8-0.7l0.5,0.7L49,23l0.6,0.8l1,0
					c0.3-0.7,0.4-0.7,0.5-0.7c0.1,0,0.2,0,0.2,0.1c0.1,0.1,0.3,0.4,0.5,0.5l1-0.7l0.7,0.7l0.6-0.7l0.6,0.7l1-0.7l0.1,0.1
					c0,0,0.3,0.5,0.4,0.7c0.1,0,0.6-0.1,1-0.4l0,0l1.2,0l0.2,0.5l0.7-1l0.8,0.7l0.6-0.7l0.1,0.1c0,0,0.4,0.4,0.6,0.7
					c0.1-0.1,0.3-0.3,0.5-0.6l0.1-0.2l0.6,0.7l0.7-0.7l0.1,0.1c0.1,0.1,0.5,0.5,0.6,0.7c0.1,0,0.2-0.2,0.3-0.3l0.1-0.1l0.6,0.4
					l0.5-0.8l0.4,0.8l0.6-0.3l1.4,1.1l0.9-0.7l0.7,0.4l1.1-0.3l2.3,0l0,0.3l-2.2,0l-1.2,0.3l-0.6-0.3L68.2,25.2z"/>
			</g>
			<g>
				<path class="st1" d="M68.2,21.6l-1.4-1.1l-0.7,0.4l-0.3-0.6l-0.3,0.6l-0.7-0.4c-0.1,0.1-0.3,0.3-0.4,0.4c-0.1,0-0.2,0-0.2-0.1
					c-0.1-0.1-0.4-0.4-0.6-0.6L63,20.9l-0.6-0.7c-0.2,0.3-0.5,0.6-0.7,0.6c0,0,0,0,0,0c-0.1,0-0.2,0-0.2-0.1
					c-0.1-0.1-0.3-0.4-0.5-0.6l-0.6,0.7l-0.8-0.7l-0.9,1.2l-0.3-0.9l-0.9,0c-1.2,0.6-1.3,0.3-1.4,0.2c-0.1-0.1-0.3-0.4-0.4-0.6
					l-0.9,0.7L54.2,20l-0.6,0.7l-0.8-0.7l-1,0.7l-0.1-0.1c0,0-0.4-0.4-0.6-0.6c-0.1,0.1-0.2,0.3-0.3,0.5l0,0.1l-1.4,0l-0.4-0.6
					l-0.8,0.7l-0.5-0.7L47,20.6l-0.6-0.7l-0.9,0.7l-0.5-0.7l-0.1,0l-0.2-0.2l0.3-0.3l0.6,0.7l0.9-0.7l0.6,0.7l0.8-0.7l0.5,0.7
					l0.8-0.7l0.6,0.8l1,0c0.3-0.7,0.4-0.7,0.5-0.7c0.1,0,0.2,0,0.2,0.1c0.1,0.1,0.3,0.4,0.5,0.5l1-0.7l0.7,0.7l0.6-0.7l0.6,0.7
					l1-0.7l0.1,0.1c0,0,0.3,0.5,0.4,0.7c0.1,0,0.6-0.1,1-0.4l0,0l1.2,0l0.2,0.5l0.7-1l0.8,0.7l0.6-0.7l0.1,0.1c0,0,0.4,0.4,0.6,0.7
					c0.1-0.1,0.3-0.3,0.5-0.6l0.1-0.2l0.6,0.7l0.7-0.7l0.1,0.1c0.1,0.1,0.5,0.5,0.6,0.7c0.1,0,0.2-0.2,0.3-0.3l0.1-0.1l0.6,0.4
					l0.5-0.8l0.4,0.8l0.6-0.3l1.4,1.1l0.9-0.7l0.7,0.4l1.1-0.3l2.3,0l0,0.3L71,21l-1.2,0.3L69.2,21L68.2,21.6z"/>
			</g>
			<g>
				<path class="st1" d="M68.2,18.4l-1.4-1.1l-0.7,0.4l-0.3-0.6l-0.3,0.6l-0.7-0.4c-0.1,0.1-0.3,0.3-0.4,0.4c-0.1,0-0.2,0-0.2-0.1
					c-0.1-0.1-0.4-0.4-0.6-0.6L63,17.6l-0.6-0.7c-0.2,0.3-0.5,0.6-0.7,0.6c0,0,0,0,0,0c-0.1,0-0.2,0-0.2-0.1
					c-0.1-0.1-0.3-0.4-0.5-0.6l-0.6,0.7l-0.8-0.7L58.7,18l-0.3-0.9l-0.9,0c-1.2,0.6-1.3,0.3-1.4,0.2c-0.1-0.1-0.3-0.4-0.4-0.6
					l-0.9,0.7l-0.6-0.7l-0.6,0.7l-0.8-0.7l-1,0.7l-0.1-0.1c0,0-0.4-0.4-0.6-0.6c-0.1,0.1-0.2,0.3-0.3,0.5l0,0.1l-1.4,0l-0.4-0.6
					l-0.8,0.7l-0.5-0.7L47,17.3l-0.6-0.7l-0.9,0.7l-0.5-0.7l-0.7,0.6l-0.3-0.3l0.2-0.2l0.1,0.1l0.8-0.7l0.6,0.7l0.9-0.7l0.6,0.7
					l0.8-0.7l0.5,0.7l0.8-0.7l0.6,0.8l1,0c0.3-0.7,0.4-0.7,0.5-0.7c0.1,0,0.2,0,0.2,0.1c0.1,0.1,0.3,0.4,0.5,0.5l1-0.7l0.7,0.7
					l0.6-0.7l0.6,0.7l1-0.7l0.1,0.1c0,0,0.3,0.5,0.4,0.7c0.1,0,0.6-0.1,1-0.4l0,0l1.2,0l0.2,0.5l0.7-1l0.8,0.7l0.6-0.7l0.1,0.1
					c0,0,0.4,0.4,0.6,0.7c0.1-0.1,0.3-0.3,0.5-0.6l0.1-0.2l0.6,0.7l0.7-0.7l0.1,0.1c0.1,0.1,0.5,0.5,0.6,0.7c0.1,0,0.2-0.2,0.3-0.3
					l0.1-0.1l0.6,0.4l0.5-0.8l0.4,0.8l0.6-0.3l1.4,1.1l0.9-0.7l0.7,0.4l1.1-0.3l2.3,0l0,0.3l-2.2,0L69.8,18l-0.6-0.3L68.2,18.4z"/>
			</g>
			<g>
				<path class="st1" d="M68.2,15.4l-1.4-1.1l-0.7,0.4l-0.3-0.6l-0.3,0.6l-0.7-0.4c-0.1,0.1-0.3,0.3-0.4,0.4c-0.1,0-0.2,0-0.2-0.1
					c-0.1-0.1-0.4-0.4-0.6-0.6L63,14.7L62.4,14c-0.2,0.3-0.5,0.6-0.7,0.6c0,0,0,0,0,0c-0.1,0-0.2,0-0.2-0.1
					c-0.1-0.1-0.3-0.4-0.5-0.6l-0.6,0.7l-0.8-0.7l-0.9,1.2l-0.3-0.9l-0.9,0c-1.2,0.6-1.3,0.3-1.4,0.2c-0.1-0.1-0.3-0.4-0.4-0.6
					l-0.9,0.7l-0.6-0.7l-0.6,0.7l-0.8-0.7l-1,0.7l-0.1-0.1c0,0-0.4-0.4-0.6-0.6c-0.1,0.1-0.2,0.3-0.3,0.5l0,0.1l-1.4,0l-0.4-0.6
					l-0.8,0.7l-0.5-0.7L47,14.4l-0.6-0.7l-0.9,0.7l-0.5-0.7l-0.7,0.6l-0.7-0.7l-0.7,0.7l-0.6-0.7L41.7,14l-0.2-0.3l0.8-0.6l0.6,0.7
					l0.7-0.7l0.8,0.7l0.8-0.7l0.6,0.7l0.9-0.7l0.6,0.7l0.8-0.7l0.5,0.7l0.8-0.7l0.6,0.8l1,0c0.3-0.7,0.4-0.7,0.5-0.7
					c0.1,0,0.2,0,0.2,0.1c0.1,0.1,0.4,0.4,0.5,0.5l1-0.7l0.7,0.7l0.6-0.7l0.6,0.7l1-0.7l0.1,0.1c0,0,0.3,0.5,0.4,0.7
					c0.1,0,0.6-0.1,1-0.4l0,0l1.2,0l0.2,0.5l0.7-1l0.8,0.7l0.6-0.7l0.1,0.1c0,0,0.4,0.4,0.6,0.7c0.1-0.1,0.3-0.3,0.5-0.6l0.1-0.2
					l0.6,0.7l0.7-0.7l0.1,0.1c0.1,0.1,0.5,0.5,0.6,0.7c0.1,0,0.2-0.2,0.3-0.3l0.1-0.1l0.6,0.4l0.5-0.8l0.4,0.8l0.6-0.3l1.4,1.1
					l0.9-0.7l0.7,0.4l1.1-0.3l2.3,0l0,0.3l-2.2,0l-1.2,0.3l-0.6-0.3L68.2,15.4z"/>
			</g>
			<g>
				<path class="st1" d="M68.2,12l-1.4-1.1l-0.7,0.4l-0.3-0.6l-0.3,0.6l-0.7-0.4c-0.1,0.1-0.3,0.3-0.4,0.4c-0.1,0-0.2,0-0.2-0.1
					c-0.1-0.1-0.4-0.4-0.6-0.6L63,11.2l-0.6-0.7c-0.2,0.3-0.5,0.6-0.7,0.6c0,0,0,0,0,0c-0.1,0-0.2,0-0.2-0.1
					c-0.1-0.1-0.3-0.4-0.5-0.6l-0.6,0.7l-0.8-0.7l-0.9,1.2l-0.3-0.9l-0.9,0c-1.2,0.6-1.3,0.3-1.4,0.2c-0.1-0.1-0.3-0.4-0.4-0.6
					L54.8,11l-0.6-0.7L53.6,11l-0.8-0.7l-1,0.7l-0.1-0.1c0,0-0.4-0.4-0.6-0.6c-0.1,0.1-0.2,0.3-0.3,0.5l0,0.1l-1.4,0l-0.4-0.6
					l-0.8,0.7l-0.5-0.7L47,10.9l-0.6-0.7l-0.9,0.7l-0.5-0.7l-0.7,0.6l-0.7-0.7l-0.7,0.7l-0.6-0.7l-0.7,0.6l-1.2,0l-0.5-0.6L39,10.7
					l-0.6,0l0-0.3l0.5,0l0.9-0.7l0.7,0.8l0.9,0l0.9-0.7l0.6,0.7l0.7-0.7l0.8,0.7L45,9.7l0.6,0.7l0.9-0.7l0.6,0.7l0.8-0.7l0.5,0.7
					L49,9.8l0.6,0.8l1,0c0.3-0.7,0.4-0.7,0.5-0.7c0.1,0,0.2,0,0.2,0.1c0.1,0.1,0.3,0.4,0.5,0.5l1-0.7l0.7,0.7l0.6-0.7l0.6,0.7l1-0.7
					l0.1,0.1c0,0,0.3,0.5,0.4,0.7c0.1,0,0.6-0.1,1-0.4l0,0l1.2,0l0.2,0.5l0.7-1l0.8,0.7L61,10l0.1,0.1c0,0,0.4,0.4,0.6,0.7
					c0.1-0.1,0.3-0.3,0.5-0.6l0.1-0.2l0.6,0.7l0.7-0.7l0.1,0.1c0.1,0.1,0.5,0.5,0.6,0.7c0.1,0,0.2-0.2,0.3-0.3l0.1-0.1l0.6,0.4
					l0.5-0.8l0.4,0.8l0.6-0.3l1.4,1.1l0.9-0.7l0.7,0.4l1.1-0.3l2.3,0l0,0.3l-2.2,0l-1.2,0.3l-0.6-0.3L68.2,12z"/>
			</g>
			<g>
				<polygon class="st1" points="8,10.7 7.1,10 7.3,9.8 8.1,10.4 8.6,10.2 8.7,10.6 				"/>
			</g>
		</g>
	</g>
	<g>
		<path class="st4" d="M25.5,73.5c-7.4,0-14.6-0.4-16-1.2c-0.4-0.2-0.6-0.6-0.7-1c-0.1-0.4,0-0.9,0.3-1.2c1.3-1.6,4.5-5.6,5.8-7.3
			c0.3-0.4,0.5-1,0.5-1.5c0-1,0.1-3,0.3-4.4c0-0.2,0.2-0.3,0.4-0.3c0.2,0,0.3,0.2,0.3,0.4c-0.1,1.4-0.3,3.3-0.3,4.4
			c0,0.7-0.2,1.4-0.7,1.9c-1.3,1.7-4.5,5.6-5.8,7.3c-0.2,0.2-0.2,0.4-0.2,0.7c0,0.2,0.2,0.4,0.4,0.6c1,0.6,7.1,1.1,14.8,1.1
			c8,0.1,14.8-0.3,17.2-1c0.8-0.2,0.9-0.4,0.9-0.4c0-0.1,0-0.1,0.1-0.1c-0.1-0.9-3.4-5.2-6.5-8.7c0,0-0.1-0.1-0.1-0.1
			c-1.5-5.2,0.6-17.7,0.7-18.2c0-0.2,0.2-0.3,0.4-0.3c0.2,0,0.3,0.2,0.3,0.4c0,0.1-2.2,12.7-0.7,17.8c0.7,0.8,6.9,8.1,6.6,9.3
			c0,0.1-0.1,0.2-0.2,0.3c-0.1,0.2-0.3,0.4-0.7,0.5C40.6,73.1,33,73.5,25.5,73.5z"/>
	</g>
	<g>
		<path class="st5" d="M16.1,57"/>
	</g>
	<g>
		<path class="st5" d="M16.2,55.4"/>
	</g>
	<g>
		<path class="st4" d="M16.1,55.3c-0.1,0-0.3-0.1-0.3-0.2c0,0,0,0,0,0c-0.2-0.3-0.7-0.3-1.4-0.1c-2,0.5-5.9,0.6-8.1-1.4
			c-1.9-1.8-1.8-4.1-1.3-5.2c-0.5-0.5-1.6-1.7-1.5-2.7c0-0.2,0.1-0.4,0.2-0.6c-0.4-0.2-0.8-0.5-1-1c-0.1-0.3-0.1-0.5,0-0.8
			c0.2-0.6,0.8-1.5,1.1-2c-1-0.2-3.1-0.7-3.5-1.9c-0.4-1.2-0.2-2.4,0.8-3.4c0.6-0.7,3.3-4.2,3.7-4.7c0-0.3,0-0.8-0.1-1.1
			C4.6,30.1,2.9,27.1,3,25c0-0.1,0.2-1,1.2-1.6c1.1-0.7,2.7-0.6,4.6,0.4c4.8,2.3,12.1,9.1,13.8,13.8c0.6,1.7,2.5,7.8,0.6,12.8
			c-0.7,1.8-2.2,3.3-4.1,4.1C18.1,54.8,17,55.1,16.1,55.3C16.2,55.3,16.2,55.3,16.1,55.3z M3.7,25c0,1.6,1,3.9,1.5,4.9
			c0.3,0.6,0.2,1.5,0.2,1.6c0,0,0,0.1,0,0.1c-0.1,0.1-3.2,4.2-3.8,4.9c-0.8,0.9-1,1.8-0.6,2.8c0.3,0.8,2.2,1.3,3.5,1.5
			c0.1,0,0.2,0.1,0.3,0.2c0,0.1,0,0.2,0,0.3c-0.1,0.2-1,1.6-1.3,2.3c0,0.1,0,0.2,0,0.2c0.2,0.4,0.8,0.7,1.1,0.8
			c0.1,0,0.2,0.2,0.2,0.3c0,0.1,0,0.2-0.2,0.3c-0.2,0.1-0.3,0.3-0.3,0.4c-0.1,0.7,1,1.9,1.5,2.3c0.1,0.1,0.1,0.3,0.1,0.4
			c-0.4,0.6-0.9,2.8,1,4.6c1.9,1.8,5.5,1.8,7.4,1.3c1.2-0.3,1.8,0,2.1,0.3c0.7-0.2,1.7-0.5,2.5-0.8c1.7-0.7,3.1-2.1,3.7-3.7
			c1.9-4.8,0-10.7-0.6-12.3c-1.6-4.4-8.9-11.2-13.4-13.4c-1.6-0.8-2.9-0.9-3.8-0.5C4,24.2,3.7,24.9,3.7,25z"/>
	</g>
	<g>
		<path class="st4" d="M16.1,57.3c-0.1,0-0.2-0.1-0.3-0.1C15.7,57,15,56,15.3,55.2c0.1-0.2,0.3-0.5,0.7-0.6c0.2,0,0.4,0.1,0.4,0.2
			c0,0.2-0.1,0.4-0.2,0.4c-0.2,0.1-0.3,0.1-0.3,0.2c-0.1,0.3,0.2,1,0.4,1.3c0.1,0.2,0.1,0.4-0.1,0.5C16.2,57.3,16.1,57.3,16.1,57.3z
			"/>
	</g>
	<g>
		<path class="st4" d="M17.5,58.1c-0.8,0-1.6-0.8-1.7-0.9c-0.1-0.1-0.1-0.3,0-0.5c0.1-0.1,0.3-0.1,0.5,0c0.3,0.4,1,0.8,1.3,0.7
			c0.2-0.1,0.4-0.3,0.6-0.6c0.4-0.5,1-1.1,2-1.4c1.5-0.4,8.8-4.7,13.6-8.9c0.9-0.8,1.7-1.5,2.3-2c2.8-2.4,2.9-2.5,2.8-3.4
			c-0.1-0.4,0-0.7,0.2-0.9c0.3-0.3,0.8-0.4,1.3-0.4c0.3,0,0.7,0,0.9-0.1c1.1-0.4,1.7-1.4,2.2-3.6c0.2-0.8-0.1-1.2-0.4-1.6
			c-0.3-0.4-0.7-0.9-0.5-1.8l0.1-0.4c0.5-1.7,1.1-4.1,2.5-4c0.1,0,0.3-0.1,0.4-0.3c0.6-0.9,0.6-3,0.4-3.4c-0.1-0.1-0.5-0.4-1.8-2
			c-0.3-0.3-0.3-0.8-0.1-1.2c0.3-0.5,0.6-1.6-0.1-2.8c-0.1-0.2-0.2-0.5-0.2-0.7l0.1-0.4c0.1-0.4,0-0.8-0.3-1.2l-1.2-1.7
			c-0.3-0.4-0.8-0.6-1.2-0.5l-0.1,0c-0.4,0.1-0.8,0-1-0.3l-1.3-1.3c-0.2-0.2-0.3-0.6-0.3-0.9c0.1-0.6-0.2-1.2-0.8-1.5l-2.3-1.3
			c-0.4-0.2-0.8-0.3-1.2-0.2L33.3,9c-0.3,0.1-0.7,0-0.9-0.2l-1.9-1.3c0,0,0,0-0.1-0.1c-0.1-0.1-1.4-1.6-3.9-0.9c0,0-0.1,0-0.1,0
			c0,0,0,0-0.1,0C26,6.7,25.2,7,24.6,7c-0.5,0-1.3-0.1-1.9-0.1c-0.3,0-0.5-0.2-0.7-0.4c-0.2-0.2-0.7-0.6-1.3-0.7
			c-3-0.2-3.5,0.5-3.8,1c-0.1,0.2-0.2,0.3-0.4,0.4c-0.4,0.2-1.8,0.6-2.5,0.6c-1,0-2.7,1.1-3.1,1.7c-0.5,0.8-1.1,0.9-1.2,0.9
			c-0.9,0.1-1.5,0.8-1.9,1.3C7.7,11.9,7.7,12,7.6,12c-0.3,0.3-0.3,0.7-0.3,1.1c0,0.5-0.1,1.1-0.6,1.7c-0.7,0.9-1.9,1.4-2.4,1.5
			c-0.1,0-0.2,0.1-0.3,0.1c-0.6,0.1-0.9,1.1-1.1,2.3L2.8,19c-0.2,1,0.5,1.9,0.8,2.2C3.9,21.4,4,21.7,4,22c0,0,0,0,0,0l-0.3,3
			c0,0.2-0.2,0.3-0.4,0.3c-0.2,0-0.3-0.2-0.3-0.4l0.3-3c0-0.1-0.1-0.2-0.1-0.3c-0.4-0.4-1.3-1.5-1-2.8l0.1-0.2
			c0.3-1.4,0.6-2.7,1.7-2.8c0.1,0,0.1,0,0.1,0c0.3-0.1,1.5-0.6,2.1-1.4c0.4-0.4,0.4-0.9,0.4-1.3c0-0.5,0.1-1,0.5-1.5
			c0.1-0.1,0.1-0.1,0.2-0.2c0.4-0.5,1.2-1.4,2.3-1.6c0,0,0.4-0.1,0.7-0.6c0.5-0.8,2.4-2,3.6-2c0.5,0,1.8-0.4,2.2-0.6
			c0,0,0.1-0.1,0.1-0.1c0.4-0.5,1-1.5,4.4-1.3c0.9,0.1,1.5,0.6,1.8,0.9c0.1,0.1,0.2,0.1,0.3,0.2c0.5,0,1.3,0.1,1.8,0.1
			c0.5,0,1.3-0.3,1.5-0.4c0.1,0,0.1,0,0.2,0c0,0,0,0,0.1,0c2.8-0.8,4.3,0.8,4.6,1.1l1.8,1.3c0.1,0.1,0.2,0.1,0.4,0.1L34,8.1
			C34.5,8,35.1,8,35.7,8.3l2.3,1.3c0.8,0.4,1.2,1.3,1.1,2.2c0,0.1,0,0.3,0.1,0.4l1.3,1.3c0.1,0.1,0.3,0.2,0.4,0.1l0.1,0
			c0.7-0.2,1.5,0.1,1.9,0.7l1.2,1.7c0.3,0.5,0.5,1.1,0.4,1.6L44.4,18c0,0.1,0,0.2,0.1,0.3c0.9,1.4,0.5,2.8,0.2,3.4
			c-0.1,0.2-0.1,0.3,0,0.5c1,1.2,1.5,1.8,1.7,1.9c0.6,0.3,0.4,2.5,0.1,3.5c-0.4,1.2-0.9,1.4-1.3,1.4c0,0,0,0,0,0
			c-0.9,0-1.5,2.3-1.8,3.5c0,0.1-0.1,0.3-0.1,0.4c-0.2,0.5,0.1,0.8,0.4,1.2c0.4,0.5,0.8,1,0.6,2.2c-0.5,2-1.1,3.4-2.6,4
			c-0.4,0.1-0.8,0.2-1.1,0.2c-0.3,0-0.7,0-0.8,0.1c-0.1,0.1-0.1,0.2,0,0.4c0.2,1.3-0.2,1.6-3,4c-0.6,0.5-1.4,1.2-2.3,2
			c-5,4.4-12.4,8.6-13.9,9.1c-0.8,0.2-1.3,0.7-1.7,1.2c-0.3,0.3-0.5,0.6-0.9,0.7C17.8,58.1,17.6,58.1,17.5,58.1z M46,24.7L46,24.7
			L46,24.7z"/>
	</g>
	<g>
		<path class="st4" d="M32.7,44.7c-0.2,0-0.4-0.1-0.5-0.2c-1.1-1,0.7-6.2,1.3-7.8c2.8-6.6,4.8-5.9,5.1-5.8c0,0,0,0,0.1,0
			c1.2,0.8,1.2,3.2-0.1,7c-0.3,0.9-2.7,5.6-5.3,6.7C33,44.7,32.8,44.7,32.7,44.7z M38.1,31.5c-0.4,0-1.9,0.3-4.1,5.5
			c-1.1,3-1.9,6.6-1.4,7.1c0.1,0.1,0.2,0,0.3,0c2.2-1,4.5-5.2,4.9-6.3C39.3,33.3,38.7,31.9,38.1,31.5C38.2,31.5,38.1,31.5,38.1,31.5
			z"/>
	</g>
	<g>
		<path class="st4" d="M5.4,19.3c-0.1,0-0.1,0-0.2,0C5,19.2,4.8,19,4.7,18.6c-0.1-0.3-0.1-0.6,0-0.9c0.1-0.3,0.3-0.6,0.5-0.8
			c0.2-0.2,0.5-0.3,0.8-0.2c0.3,0.1,0.5,0.3,0.5,0.6c0.1,0.3,0.1,0.6,0,0.9l0,0C6.4,18.6,6.2,18.8,6,19C5.8,19.2,5.6,19.3,5.4,19.3z
			 M5.8,17.2c-0.1,0-0.2,0-0.3,0.1c-0.1,0.1-0.3,0.3-0.3,0.6c-0.1,0.2-0.1,0.5,0,0.7c0,0.1,0.1,0.2,0.2,0.3c0.1,0,0.2,0,0.3-0.1
			C5.8,18.5,6,18.3,6,18.1l0,0c0.1-0.2,0.1-0.5,0-0.7C6,17.3,5.9,17.2,5.8,17.2C5.8,17.2,5.8,17.2,5.8,17.2z"/>
	</g>
	<g>
		<path class="st4" d="M23.8,24.9c-0.7,0-1.2-0.5-1.2-1.2c0-0.7,0.5-1.2,1.2-1.2S25,23,25,23.7C25,24.4,24.4,24.9,23.8,24.9z
			 M23.8,23c-0.4,0-0.7,0.3-0.7,0.7c0,0.4,0.3,0.7,0.7,0.7s0.7-0.3,0.7-0.7C24.5,23.3,24.1,23,23.8,23z"/>
	</g>
	<g>
		<path class="st4" d="M38.4,28.1c-0.6,0-1.1-0.6-1.1-1.4c0-0.8,0.5-1.4,1.1-1.4c0.6,0,1.1,0.6,1.1,1.4C39.4,27.5,39,28.1,38.4,28.1
			z M38.4,25.9c-0.3,0-0.6,0.4-0.6,0.9c0,0.5,0.3,0.9,0.6,0.9c0.3,0,0.6-0.4,0.6-0.9C38.9,26.3,38.7,25.9,38.4,25.9z"/>
	</g>
	<g>
		<path class="st4" d="M32.4,18.7c-0.4,0-0.8-0.2-1.1-0.5c-0.2-0.3-0.4-0.6-0.4-0.9c0-0.3,0.1-0.7,0.3-0.9c0.2-0.2,0.5-0.3,0.9-0.2
			c0.3,0.1,0.6,0.2,0.9,0.5c0.5,0.6,0.6,1.3,0.1,1.8C32.9,18.6,32.6,18.7,32.4,18.7z M31.8,16.6c-0.1,0-0.2,0-0.3,0.1
			c-0.1,0.1-0.1,0.3-0.1,0.4c0,0.2,0.1,0.4,0.3,0.6c0.3,0.4,0.8,0.5,1,0.3c0.2-0.2,0.2-0.7-0.2-1.1c-0.2-0.2-0.4-0.3-0.6-0.4
			C31.9,16.7,31.8,16.6,31.8,16.6z"/>
	</g>
	<g>
		<path class="st4" d="M37.2,12.5c-0.3,0-0.6-0.1-1-0.3c-0.7-0.4-1-1-0.8-1.5c0.1-0.2,0.4-0.4,0.7-0.4c0.3,0,0.6,0.1,0.9,0.3l0,0
			c0.7,0.4,1,1,0.8,1.5C37.7,12.4,37.5,12.5,37.2,12.5z M36.2,10.9c-0.1,0-0.3,0-0.3,0.1c-0.1,0.1,0.1,0.5,0.6,0.8
			c0.5,0.3,0.9,0.3,1,0.1c0.1-0.1-0.1-0.5-0.6-0.8C36.6,11,36.4,10.9,36.2,10.9C36.2,10.9,36.2,10.9,36.2,10.9z"/>
	</g>
	<g>
		<path class="st4" d="M43.5,20.9c-0.2,0-0.3-0.1-0.5-0.2c-0.2-0.2-0.3-0.4-0.4-0.6c-0.1-0.3-0.1-0.5-0.1-0.8
			c0.1-0.3,0.2-0.5,0.4-0.5c0.4-0.1,0.9,0.2,1.1,0.8v0c0.1,0.3,0.1,0.5,0.1,0.8c-0.1,0.3-0.2,0.5-0.4,0.5
			C43.6,20.8,43.6,20.9,43.5,20.9z M43.1,19.2C43.1,19.2,43.1,19.2,43.1,19.2c0,0-0.1,0.1-0.1,0.2c0,0.1,0,0.3,0.1,0.5
			c0.1,0.2,0.2,0.3,0.3,0.4c0.1,0.1,0.1,0.1,0.2,0.1c0,0,0.1-0.1,0.1-0.2c0-0.1,0-0.3-0.1-0.5l0,0C43.4,19.3,43.2,19.2,43.1,19.2z"
			/>
	</g>
	<g>
		<path class="st4" d="M22.5,11.5c-0.9,0-1.6-0.5-1.6-1.1c0-0.6,0.7-1.1,1.6-1.1c0.9,0,1.6,0.5,1.6,1.1C24,11,23.3,11.5,22.5,11.5z
			 M22.5,9.8c-0.6,0-1.1,0.3-1.1,0.6c0,0.3,0.4,0.6,1.1,0.6c0.6,0,1.1-0.3,1.1-0.6C23.5,10.1,23.1,9.8,22.5,9.8z"/>
	</g>
	<g>
		<path class="st4" d="M19.3,7.8c-0.3,0-0.5,0-0.7-0.1c-0.3-0.1-0.5-0.3-0.5-0.6s0.1-0.5,0.4-0.7c0.2-0.1,0.5-0.2,0.9-0.3
			c0.3,0,0.7,0,0.9,0.1c0.3,0.1,0.5,0.3,0.5,0.6c0,0.2-0.1,0.5-0.4,0.7c-0.2,0.1-0.5,0.2-0.9,0.3C19.5,7.8,19.4,7.8,19.3,7.8z
			 M19.6,6.7c-0.1,0-0.1,0-0.2,0c-0.3,0-0.5,0.1-0.7,0.2c-0.1,0.1-0.2,0.2-0.2,0.2c0,0,0.1,0.1,0.2,0.2c0.2,0.1,0.4,0.1,0.7,0.1
			c0.3,0,0.5-0.1,0.7-0.2c0.1-0.1,0.2-0.2,0.2-0.2v0c0,0-0.1-0.1-0.2-0.2C20,6.7,19.8,6.7,19.6,6.7z"/>
	</g>
	<g>
		<path class="st4" d="M8.5,13.1c-0.2,0-0.4-0.1-0.6-0.2c-0.3-0.5,0.2-1.2,0.8-1.6c0.3-0.2,0.7-0.4,1-0.5c0.5-0.1,0.7,0.1,0.8,0.2
			c0.3,0.5-0.2,1.2-0.8,1.6C9.4,12.9,8.9,13.1,8.5,13.1z M10.1,11.2c0,0-0.1,0-0.2,0c-0.2,0-0.5,0.2-0.8,0.4
			c-0.6,0.4-0.8,0.9-0.7,0.9c0.1,0.1,0.5,0.1,1.1-0.4c0.6-0.4,0.8-0.9,0.7-0.9l0,0C10.2,11.3,10.1,11.2,10.1,11.2z"/>
	</g>
	<g>
		<path class="st4" d="M5.4,20.7c-0.1,0-0.2-0.1-0.2-0.2c0-0.1,0.1-0.2,0.2-0.2c0.1,0,1.8,0,2.1-2.1c0.1-0.6,0-1.1-0.3-1.4
			c-0.3-0.3-0.8-0.3-0.8-0.3c-0.1,0-0.3-0.1-0.3-0.2c0-0.1,0.1-0.3,0.2-0.3c0,0,0.7,0,1.1,0.5c0.4,0.4,0.5,1,0.4,1.8
			C7.7,20.6,5.4,20.7,5.4,20.7z"/>
	</g>
	<g>
		<path class="st4" d="M20.7,23C20.7,23,20.7,23,20.7,23c-0.2-0.1-0.3-0.2-0.2-0.3c0-0.1,0.8-2.3,2.8-2.3c0,0,0,0,0,0
			c2.3,0,2.8,2,2.8,2c0,0.1,0,0.3-0.2,0.3c-0.1,0-0.3,0-0.3-0.2c0-0.1-0.5-1.7-2.3-1.7c0,0,0,0,0,0c-1.7,0-2.3,1.9-2.4,1.9
			C20.9,22.9,20.8,23,20.7,23z"/>
	</g>
	<g>
		<path class="st4" d="M23.5,26.7c-2.3,0-2.8-2-2.8-2c0-0.1,0-0.3,0.2-0.3c0.1,0,0.3,0,0.3,0.2c0,0.1,0.5,1.7,2.3,1.7c0,0,0,0,0,0
			c1.7,0,2.3-1.9,2.4-1.9c0-0.1,0.2-0.2,0.3-0.2c0.1,0,0.2,0.2,0.2,0.3C26.3,24.5,25.5,26.7,23.5,26.7
			C23.5,26.7,23.5,26.7,23.5,26.7z"/>
	</g>
	<g>
		<path class="st6" d="M8.7,21.4"/>
	</g>
	<g>
		<path class="st4" d="M29.8,17.3c-0.1,0-0.2-0.1-0.2-0.2c-0.1-0.6,0.1-1.1,0.4-1.5c0.5-0.6,1.4-0.6,1.5-0.6c0.1,0,0.2,0.1,0.2,0.3
			c0,0.1-0.1,0.3-0.3,0.2c0,0-0.7,0-1.1,0.4c-0.2,0.3-0.3,0.6-0.3,1.1C30.1,17.1,30,17.2,29.8,17.3C29.8,17.3,29.8,17.3,29.8,17.3z"
			/>
	</g>
	<g>
		<path class="st4" d="M32.5,20.2c-0.3,0-0.7-0.1-1-0.2c-0.8-0.3-1.4-0.9-1.7-1.8c0-0.1,0-0.3,0.1-0.3c0.1,0,0.3,0,0.3,0.1
			c0.3,0.8,0.8,1.3,1.4,1.5c0.7,0.2,1.4,0.2,2-0.1c0.1-0.1,0.3,0,0.3,0.1c0.1,0.1,0,0.3-0.1,0.3C33.4,20.1,33,20.2,32.5,20.2z"/>
	</g>
	<g>
		<path class="st4" d="M8.7,14.1c-0.1,0-0.3,0-0.4,0c-0.1,0-0.2-0.1-0.2-0.3c0-0.1,0.1-0.2,0.3-0.2c0.8,0.1,1.5-0.1,2-0.6
			c0.5-0.5,0.8-1.1,0.7-1.8c0-0.1,0.1-0.3,0.2-0.3c0.1,0,0.3,0.1,0.3,0.2c0,0.8-0.3,1.5-0.9,2.2C10.2,13.9,9.5,14.1,8.7,14.1z"/>
	</g>
	<g>
		<path class="st4" d="M36.5,25.8C36.5,25.8,36.5,25.8,36.5,25.8c-0.2-0.1-0.3-0.2-0.2-0.3c0.2-0.6,0.6-1,1-1.2
			c0.8-0.3,1.5,0.1,1.6,0.1c0.1,0.1,0.2,0.2,0.1,0.3c-0.1,0.1-0.2,0.2-0.3,0.1c0,0-0.6-0.3-1.2-0.1c-0.3,0.1-0.6,0.4-0.7,0.9
			C36.7,25.7,36.6,25.8,36.5,25.8z"/>
	</g>
	<g>
		<path class="st4" d="M38.7,29.9c-0.7,0-1.4-0.3-2-0.9c-0.6-0.6-0.9-1.4-0.8-2.4c0-0.1,0.1-0.2,0.3-0.2c0.1,0,0.2,0.1,0.2,0.3
			c-0.1,0.8,0.1,1.5,0.6,1.9c0.5,0.5,1.1,0.8,1.8,0.7c0.1,0,0.3,0.1,0.3,0.2s-0.1,0.3-0.2,0.3C38.8,29.9,38.8,29.9,38.7,29.9z"/>
	</g>
	<g>
		<path class="st4" d="M22.1,12.8c-0.6,0-1.2-0.2-1.7-0.6c-0.7-0.6-1.1-1.3-1.1-2.1c0-0.1,0.1-0.3,0.2-0.3c0.1,0,0.3,0.1,0.3,0.2
			c0,0.7,0.3,1.2,0.9,1.7c0.5,0.5,1.2,0.6,2,0.4c0.1,0,0.3,0.1,0.3,0.2c0,0.1-0.1,0.3-0.2,0.3C22.6,12.8,22.3,12.8,22.1,12.8z"/>
	</g>
	<g>
		<path class="st4" d="M19.5,8.7c-0.8,0-1.4-0.3-1.9-0.8c-0.1-0.1-0.1-0.3,0-0.4c0.1-0.1,0.3-0.1,0.4,0c0.4,0.4,0.9,0.6,1.5,0.6
			c0,0,0,0,0,0c0.6,0,1.1-0.3,1.5-0.8c0.1-0.1,0.2-0.1,0.3,0c0.1,0.1,0.1,0.2,0,0.3C20.9,8.3,20.2,8.7,19.5,8.7
			C19.5,8.7,19.5,8.7,19.5,8.7z"/>
	</g>
	<g>
		<path class="st4" d="M28.4,8.4c-0.1,0-0.3,0-0.4,0c-0.8-0.1-1.3-0.6-1.2-1c0-0.2,0.2-0.4,0.6-0.5c0.3-0.1,0.6-0.1,0.9,0
			C28.7,6.9,29,7,29.2,7.1c0.3,0.2,0.4,0.4,0.3,0.7l0,0c0,0.2-0.2,0.4-0.6,0.5C28.8,8.4,28.6,8.4,28.4,8.4z M27.9,7.3
			c-0.1,0-0.3,0-0.4,0c-0.1,0-0.2,0.1-0.2,0.1c0,0.1,0.3,0.4,0.8,0.5c0.3,0,0.5,0,0.7,0C29,7.9,29,7.8,29,7.8c0,0,0,0,0,0
			c0,0,0-0.1-0.2-0.2c-0.2-0.1-0.4-0.2-0.6-0.3C28.1,7.3,28,7.3,27.9,7.3z"/>
	</g>
	<g>
		<path class="st4" d="M28.3,9.3c-0.2,0-0.4,0-0.6-0.1C27,9,26.4,8.6,26.1,8c-0.1-0.1,0-0.3,0.1-0.3c0.1-0.1,0.3,0,0.3,0.1
			c0.3,0.5,0.7,0.8,1.3,1c0.6,0.2,1.1,0,1.7-0.4c0.1-0.1,0.3-0.1,0.3,0.1C30,8.5,30,8.7,29.8,8.8C29.4,9.1,28.9,9.3,28.3,9.3z"/>
	</g>
	<g>
		<path class="st4" d="M37.1,13.6c-0.6,0-1.2-0.2-1.7-0.6c-0.7-0.6-1.1-1.3-1.1-2.1c0-0.1,0.1-0.3,0.2-0.3c0.1,0,0.3,0.1,0.3,0.2
			c0,0.7,0.3,1.2,0.9,1.7c0.5,0.5,1.2,0.6,2,0.4c0.1,0,0.3,0.1,0.3,0.2c0,0.1-0.1,0.3-0.2,0.3C37.6,13.6,37.3,13.6,37.1,13.6z"/>
	</g>
	<g>
		<path class="st4" d="M43.1,21.9c0,0-0.1,0-0.1,0c-0.7-0.4-1.1-0.9-1.3-1.7c-0.2-0.7-0.1-1.4,0.2-2c0.1-0.1,0.2-0.2,0.3-0.1
			c0.1,0.1,0.2,0.2,0.1,0.3c-0.3,0.5-0.3,1-0.2,1.6c0.1,0.6,0.5,1,1.1,1.3c0.1,0.1,0.2,0.2,0.1,0.3C43.2,21.8,43.2,21.9,43.1,21.9z"
			/>
	</g>
	<g>
		<g>
			<path class="st4" d="M28.9,31.5c-0.2,0-0.3,0-0.4-0.1c-0.2-0.1-0.3-0.4-0.4-0.6c0-0.3,0-0.5,0.2-0.8c0.3-0.5,0.9-0.7,1.4-0.4
				c0.4,0.3,0.5,0.9,0.2,1.4c-0.2,0.2-0.4,0.4-0.6,0.5C29.1,31.5,29,31.5,28.9,31.5z M29.2,30c-0.2,0-0.4,0.1-0.5,0.3
				c-0.1,0.1-0.1,0.3-0.1,0.4c0,0.1,0,0.2,0.2,0.3c0.1,0.1,0.2,0,0.3,0c0.1,0,0.3-0.1,0.3-0.3c0.2-0.3,0.2-0.6,0-0.7
				C29.3,30,29.3,30,29.2,30z"/>
		</g>
		<g>
			<path class="st4" d="M30.9,30.6C30.8,30.6,30.8,30.6,30.9,30.6c-0.2,0-0.3-0.2-0.2-0.3c0.1-0.3,0-0.6-0.1-0.8
				c-0.3-0.4-0.8-0.4-0.8-0.4c-0.1,0-0.2-0.1-0.2-0.3c0-0.1,0.1-0.2,0.3-0.2c0,0,0.7,0.1,1.1,0.6c0.2,0.3,0.3,0.7,0.2,1.2
				C31.1,30.5,31,30.6,30.9,30.6z"/>
		</g>
		<g>
			<path class="st4" d="M28.8,32.6c-0.5,0-0.9-0.1-1.3-0.4c-0.1-0.1-0.1-0.2-0.1-0.3c0.1-0.1,0.2-0.1,0.3-0.1
				c0.4,0.3,0.9,0.4,1.5,0.3c0.5-0.1,0.9-0.4,1.2-1c0.1-0.1,0.2-0.2,0.3-0.1c0.1,0.1,0.2,0.2,0.1,0.3c-0.3,0.7-0.9,1.1-1.5,1.3
				C29.2,32.6,29,32.6,28.8,32.6z"/>
		</g>
		<g>
			<path class="st6" d="M30,31.3"/>
		</g>
		<g>
			<path class="st6" d="M30.1,30.6"/>
		</g>
	</g>
	<g>
		<g>
			<path class="st4" d="M11.8,17.5c-0.2,0-0.3,0-0.4-0.1c-0.4-0.3-0.5-0.9-0.2-1.4c0.3-0.5,0.9-0.7,1.4-0.4c0.4,0.3,0.5,0.9,0.2,1.4
				c-0.2,0.2-0.4,0.4-0.6,0.5C12,17.5,11.9,17.5,11.8,17.5z M12,15.9c-0.2,0-0.4,0.1-0.5,0.3c-0.2,0.3-0.2,0.6,0,0.7
				c0.1,0.1,0.2,0,0.3,0c0.1,0,0.3-0.1,0.3-0.3c0.2-0.3,0.2-0.6,0-0.7C12.2,16,12.1,15.9,12,15.9z"/>
		</g>
		<g>
			<path class="st4" d="M13.7,16.6C13.7,16.6,13.6,16.6,13.7,16.6c-0.2,0-0.3-0.2-0.2-0.3c0.1-0.3,0-0.6-0.1-0.8
				c-0.3-0.4-0.8-0.4-0.8-0.4c-0.1,0-0.2-0.1-0.2-0.3c0-0.1,0.1-0.2,0.3-0.2c0,0,0.7,0.1,1.1,0.6c0.2,0.3,0.3,0.7,0.2,1.2
				C13.9,16.5,13.8,16.6,13.7,16.6z"/>
		</g>
		<g>
			<path class="st4" d="M11.6,18.6c-0.5,0-0.9-0.1-1.3-0.4c-0.1-0.1-0.1-0.2-0.1-0.3c0.1-0.1,0.2-0.1,0.3-0.1
				c0.4,0.3,0.9,0.4,1.5,0.3c0.5-0.1,0.9-0.4,1.2-1c0.1-0.1,0.2-0.2,0.3-0.1c0.1,0.1,0.2,0.2,0.1,0.3c-0.3,0.7-0.9,1.1-1.5,1.3
				C12,18.6,11.8,18.6,11.6,18.6z"/>
		</g>
		<g>
			<path class="st6" d="M12.8,17.3"/>
		</g>
		<g>
			<path class="st6" d="M12.9,16.5"/>
		</g>
	</g>
	<g>
		<path class="st4" d="M15.8,19.7c-0.1,0-0.2-0.1-0.2-0.2c-0.1-0.4-0.2-1.4,0.7-2.1c0.5-0.4,0.8-0.7,1.2-1.1c0.3-0.3,0.7-0.7,1.1-1
			l0.1-0.1c0.9-0.7,2.5-1.9,2.3-2.9c0-0.1,0.1-0.3,0.2-0.3c0.1,0,0.3,0.1,0.3,0.2c0.3,1.3-1.4,2.6-2.4,3.4l-0.1,0.1
			c-0.4,0.3-0.7,0.6-1.1,1c-0.4,0.4-0.7,0.8-1.3,1.2c-0.8,0.6-0.6,1.5-0.6,1.5C16,19.5,16,19.7,15.8,19.7
			C15.8,19.7,15.8,19.7,15.8,19.7z"/>
	</g>
	<g>
		<path class="st4" d="M26.2,11.3c-0.4,0-0.8-0.1-1.1-0.5c-0.1-0.1-0.1-0.3,0-0.3c0.1-0.1,0.3-0.1,0.3,0c0.4,0.5,1.3,0.2,1.3,0.2
			c0.7-0.3,1.3-0.3,1.9-0.3c0.7,0,1.5,0,2.7-0.5c2.6-1,5.8-0.5,6-0.4c0.1,0,0.2,0.2,0.2,0.3c0,0.1-0.2,0.2-0.3,0.2
			c0,0-3.2-0.5-5.7,0.4c-1.3,0.5-2.2,0.5-2.9,0.5c-0.6,0-1.1,0-1.7,0.3C26.9,11.2,26.6,11.3,26.2,11.3z"/>
	</g>
	<g>
		<path class="st4" d="M20,19.3c-0.1,0-0.2,0-0.2-0.1c-0.2-0.2-0.6-0.9-1-1.1c-0.2-0.2-0.6-0.2-0.9-0.3c-0.3-0.1-0.7-0.1-1-0.3
			c-0.7-0.4-1.3-1.5-1.3-1.6c-0.1-0.1,0-0.3,0.1-0.3c0.1-0.1,0.3,0,0.3,0.1c0.1,0.3,0.6,1.1,1.1,1.4c0.3,0.1,0.6,0.2,0.9,0.3
			c0.4,0.1,0.7,0.2,1.1,0.4c0.5,0.3,1.1,1.2,1.1,1.3c0.1,0.1,0,0.3-0.1,0.3C20.1,19.2,20.1,19.3,20,19.3z"/>
	</g>
	<g>
		<path class="st4" d="M17.5,19.5c-0.1,0-0.1,0-0.2-0.1c-0.2-0.3-0.6-0.4-0.9-0.5c-0.2-0.1-0.5-0.1-0.7-0.3c-0.5-0.3-1-1.1-1-1.2
			c-0.1-0.1,0-0.3,0.1-0.3c0.1-0.1,0.3,0,0.3,0.1c0.1,0.2,0.5,0.8,0.8,1c0.2,0.1,0.4,0.1,0.6,0.2c0.4,0.1,0.8,0.3,1.2,0.6
			c0.1,0.1,0.1,0.3,0,0.4C17.6,19.5,17.6,19.5,17.5,19.5z"/>
	</g>
	<g>
		<path class="st4" d="M19.8,54c-0.1,0-0.3-0.1-0.3-0.2c0-0.2,0.1-0.4,0.2-0.4c1-0.3,3-2,3.5-2.6c0.2-0.2,0.4-0.4,0.6-0.5
			c1.2-0.7,2.5-0.3,2.6-0.3c0.2,0.1,0.3,0.2,0.2,0.4c-0.1,0.2-0.2,0.3-0.4,0.2c0,0-1.1-0.3-2,0.2c-0.2,0.1-0.3,0.2-0.5,0.4
			C23.2,51.8,21.1,53.6,19.8,54C19.9,54,19.8,54,19.8,54z"/>
	</g>
	<g>
		<path class="st4" d="M23.3,48.8C23.3,48.8,23.3,48.8,23.3,48.8c-0.2-0.1-0.3-0.2-0.2-0.3c4-10.5-4.7-19-4.8-19
			c-6.1-6.3-9.9-7.6-12.2-7.6c0,0,0,0,0,0c-1.6,0-2.4,0.8-2.4,0.8c-0.1,0.1-0.3,0.1-0.4,0c-0.1-0.1-0.1-0.3,0-0.4
			c0,0,0.9-0.9,2.7-0.9c0,0,0,0,0,0c2.3,0,6.3,1.4,12.5,7.8c0.1,0.1,9,8.7,4.9,19.6C23.5,48.8,23.4,48.8,23.3,48.8z"/>
	</g>
	<g>
		<path class="st4" d="M36.1,64.8c-0.1,0-0.1,0-0.2-0.1c-2.9-3-2.4-7.7-1.5-12.3c0-0.1,0.2-0.2,0.3-0.2c0.1,0,0.2,0.2,0.2,0.3
			c-0.9,4.5-1.4,9,1.4,11.9c0.1,0.1,0.1,0.3,0,0.4C36.3,64.8,36.2,64.8,36.1,64.8z"/>
	</g>
	<g>
		<path class="st4" d="M27.2,71.9c-3.9,0-7.6-0.4-7.7-0.4c-0.1,0-0.2-0.1-0.2-0.3c0-0.1,0.1-0.2,0.3-0.2c0.1,0,8.4,0.8,13.4,0
			c0.1,0,0.3,0.1,0.3,0.2c0,0.1-0.1,0.3-0.2,0.3C31.4,71.8,29.3,71.9,27.2,71.9z"/>
	</g>
	<g>
		<path class="st4" d="M70.5,47.6c-0.2,0-0.3-0.1-0.3-0.3l-0.9-6.3c0,0,0,0,0-0.1c0,0,0-0.5-0.4-0.9c-0.3-0.3-0.8-0.5-1.5-0.5
			c0,0,0,0-0.1,0c-0.1,0-6.2-1-9.4-0.6c-0.1,0-0.2,0.1-0.2,0.2c0,0.3,0,0.8,0,1.4l0,5c0,0.2-0.1,0.3-0.3,0.3h0
			c-0.2,0-0.3-0.1-0.3-0.3l0-5c0-0.6,0-1.1,0-1.4c0-0.5,0.4-0.8,0.8-0.9c3.3-0.3,9.1,0.6,9.6,0.6c0.9,0,1.5,0.2,2,0.7
			c0.5,0.5,0.6,1.2,0.6,1.4l0.9,6.3C70.8,47.4,70.7,47.5,70.5,47.6C70.5,47.6,70.5,47.6,70.5,47.6z"/>
	</g>
	<g>
		<path class="st4" d="M70.4,47.5c-1.3,0-8.9-0.8-10.5-1.2c-1.7-0.4-2.6-0.4-2.6-0.4c-0.1,0-0.2-0.1-0.2-0.3c0-0.1,0.1-0.2,0.3-0.2
			c0,0,0.9,0,2.7,0.4c1.7,0.4,9.9,1.2,10.4,1.2c0.1,0,0.3,0.1,0.3,0.2c0,0.1-0.1,0.3-0.2,0.3C70.5,47.5,70.4,47.5,70.4,47.5z"/>
	</g>
	<g>
		<path class="st4" d="M66.1,69.8c-4.4,0-7-0.1-7-0.1c0,0,0,0-0.1,0c-1.9-0.5-1.9-3.1-2-5.9c0-0.6,0-1.3-0.1-1.9
			c-0.1-1.4-0.1-5-0.2-8.5c0-6.5,0.1-6.6,0.3-6.7c0.1-0.1,0.3-0.1,0.5,0c0.1,0.1,0.1,0.3,0,0.4c-0.2,0.9-0.1,11.6,0,14.8
			c0,0.6,0,1.3,0.1,2c0,2.5,0.1,4.9,1.5,5.3c0.4,0,4.9,0.3,12,0.1c0.2,0,0.3,0.1,0.3,0.3c0,0.2-0.1,0.3-0.3,0.3
			C69.3,69.8,67.6,69.8,66.1,69.8z M57.6,47.1C57.6,47.1,57.6,47.1,57.6,47.1C57.6,47.1,57.6,47.1,57.6,47.1z M57.6,47.1L57.6,47.1
			L57.6,47.1z"/>
	</g>
	<g>
		<path class="st4" d="M70.5,48.1C70.5,48.1,70.5,48.1,70.5,48.1c-0.3,0-6.9-0.2-9.4-0.7c-0.5-0.1-1-0.2-1.4-0.3
			c-1-0.2-1.8-0.4-2.1-0.2c-0.1,0.1-0.3,0.1-0.4,0c-0.1-0.1-0.1-0.3,0-0.4c0.4-0.4,1.2-0.2,2.5,0.1c0.4,0.1,0.9,0.2,1.4,0.3
			c2.4,0.5,9.2,0.7,9.3,0.7c0.1,0,0.2,0.1,0.2,0.3C70.7,48,70.6,48.1,70.5,48.1z"/>
	</g>
	<g>
		<path class="st4" d="M61.8,71.2c-1.2,0-2.5-0.1-3.6-0.2c-0.9-0.1-1.6-0.7-1.8-1.6c-0.2-0.8-0.3-1.7-0.3-2.9
			c-0.2-3.3-0.6-23.3-0.7-25.5c0-0.2,0-0.4,0.1-0.6c0.3-0.5,1.2-1.8,2-2c0.2-0.1,0.4,0,0.4,0.2c0.1,0.2,0,0.4-0.2,0.4
			c-0.6,0.2-1.4,1.2-1.6,1.7c0,0.1-0.1,0.2-0.1,0.3c0.1,2.3,0.5,22.2,0.7,25.5c0.1,1.2,0.2,2.1,0.3,2.8c0.1,0.6,0.6,1,1.2,1.1
			c4.1,0.5,9.3-0.1,11.5-0.4c0.9-0.1,1.4-0.4,1.7-0.8c0.2-0.4,0.2-0.7,0.2-0.7c0,0,0-0.1,0-0.1c0-9.2-1.4-20.1-1.4-20.2
			c0-0.2,0.1-0.3,0.3-0.4c0.2,0,0.3,0.1,0.4,0.3c0,0.1,1.4,11,1.4,20.2c0,0.2,0.1,0.7-0.2,1.2c-0.4,0.6-1.1,1-2.2,1.1
			C68.2,70.8,65,71.2,61.8,71.2z"/>
	</g>
	<g>
		<path class="st4" d="M59.1,42.9c-0.1,0-0.2-0.1-0.2-0.2l-0.1-1.9c0,0,0-0.7,0.4-1c0.3-0.3,0.8-0.4,1.4-0.2c0.1,0,0.2,0.2,0.2,0.3
			c0,0.1-0.2,0.2-0.3,0.2c-0.5-0.1-0.8-0.1-1,0.1c-0.3,0.2-0.3,0.6-0.3,0.6l0.1,1.9C59.3,42.8,59.2,42.9,59.1,42.9
			C59.1,42.9,59.1,42.9,59.1,42.9z"/>
	</g>
	<g>
		<path class="st4" d="M61,67.9c-0.3,0-0.6-0.3-0.6-0.6c0-0.3,0.3-0.6,0.6-0.6c0.3,0,0.6,0.3,0.6,0.6C61.6,67.6,61.4,67.9,61,67.9z
			 M61,67c-0.1,0-0.3,0.1-0.3,0.3c0,0.1,0.1,0.3,0.3,0.3c0.1,0,0.3-0.1,0.3-0.3C61.3,67.2,61.2,67,61,67z"/>
	</g>
	<g>
		<path class="st4" d="M62.4,68.1c-0.3,0-0.6-0.3-0.6-0.6c0-0.3,0.3-0.6,0.6-0.6c0.3,0,0.6,0.3,0.6,0.6C63,67.8,62.8,68.1,62.4,68.1
			z M62.4,67.2c-0.1,0-0.3,0.1-0.3,0.3c0,0.1,0.1,0.3,0.3,0.3c0.1,0,0.3-0.1,0.3-0.3C62.7,67.3,62.6,67.2,62.4,67.2z"/>
	</g>
	<g>
		<path class="st4" d="M63.8,68.2c-0.3,0-0.6-0.3-0.6-0.6s0.3-0.6,0.6-0.6c0.3,0,0.6,0.3,0.6,0.6S64.1,68.2,63.8,68.2z M63.8,67.3
			c-0.1,0-0.3,0.1-0.3,0.3s0.1,0.3,0.3,0.3s0.3-0.1,0.3-0.3S63.9,67.3,63.8,67.3z"/>
	</g>
	<g>
		<path class="st4" d="M59.2,45.9c-0.1,0-0.2-0.1-0.2-0.2v-1.7c0-0.1,0.1-0.2,0.2-0.2s0.2,0.1,0.2,0.2v1.7
			C59.4,45.8,59.3,45.9,59.2,45.9z"/>
	</g>
	<g>
		<path class="st4" d="M58.9,57.9c-0.1,0-0.2-0.1-0.2-0.2l-0.2-9.4c0-0.1,0.1-0.3,0.2-0.3c0.1,0,0.3,0.1,0.3,0.2l0.2,9.4
			C59.2,57.8,59,57.9,58.9,57.9C58.9,57.9,58.9,57.9,58.9,57.9z"/>
	</g>
	<g>
		<path class="st4" d="M59.1,64.5c-0.1,0-0.2-0.1-0.2-0.2l-0.2-5.6c0-0.1,0.1-0.3,0.2-0.3c0.1,0,0.3,0.1,0.3,0.2l0.2,5.6
			C59.3,64.3,59.2,64.5,59.1,64.5C59.1,64.5,59.1,64.5,59.1,64.5z"/>
	</g>
	<g>
		<path class="st4" d="M64.6,54.6c-1.7,0-3.1-1.3-3.1-2.9c0-1.6,1.4-2.9,3.1-2.9c1.7,0,3.1,1.3,3.1,2.9
			C67.6,53.3,66.3,54.6,64.6,54.6z M64.6,49.2c-1.4,0-2.6,1.1-2.6,2.4c0,1.3,1.1,2.4,2.6,2.4c1.4,0,2.6-1.1,2.6-2.4
			C67.1,50.3,66,49.2,64.6,49.2z"/>
	</g>
	<g>
		<g>
			<path class="st4" d="M64.6,53.8c-1.1,0-2-0.8-2.2-1.8c0-0.1,0.1-0.3,0.2-0.3c0.1,0,0.3,0.1,0.3,0.2c0.1,0.8,0.8,1.4,1.7,1.4
				c0.8,0,1.4-0.5,1.7-1.2c0-0.1,0.2-0.2,0.3-0.2c0.1,0,0.2,0.2,0.2,0.3C66.5,53.2,65.6,53.8,64.6,53.8z"/>
		</g>
		<g>
			<path class="st4" d="M66.6,51.5c-0.1,0-0.2-0.1-0.2-0.2c-0.2-0.8-0.9-1.3-1.7-1.3c-0.7,0-1.4,0.4-1.6,1.1c0,0.1-0.2,0.2-0.3,0.2
				c-0.1,0-0.2-0.2-0.2-0.3c0.3-0.9,1.2-1.4,2.1-1.4c1.1,0,2,0.7,2.2,1.7C66.8,51.4,66.7,51.5,66.6,51.5
				C66.6,51.5,66.6,51.5,66.6,51.5z"/>
		</g>
	</g>
	<g>
		<path class="st4" d="M55.8,47.1c-0.1,0-0.1,0-0.2-0.1c-0.1-0.1-0.1-0.3,0-0.3l1.5-1.1c0.1-0.1,0.3-0.1,0.3,0
			c0.1,0.1,0.1,0.3,0,0.3L55.9,47C55.9,47,55.8,47.1,55.8,47.1z"/>
	</g>
	<g>
		<path class="st4" d="M55.8,48.1c-0.1,0-0.2,0-0.2-0.1c-0.1-0.1-0.1-0.3,0.1-0.3l1.7-1.2c0.1-0.1,0.3-0.1,0.3,0.1
			c0.1,0.1,0.1,0.3-0.1,0.3L55.9,48C55.9,48,55.8,48.1,55.8,48.1z"/>
	</g>
	<g>
		<path class="st4" d="M37.6,46.2c-0.2,0-0.4,0-0.6-0.1c-0.2-0.1-0.3-0.2-0.2-0.4c0.1-0.2,0.2-0.3,0.4-0.2c0.1,0,0.3,0.1,0.4,0.1
			c0.8,0,1.5-0.7,1.5-1.5c0-0.4-0.2-0.8-0.4-1c-0.1-0.1-0.1-0.3,0-0.5c0.1-0.1,0.3-0.1,0.5,0c0.4,0.4,0.6,0.9,0.6,1.5
			C39.7,45.2,38.8,46.2,37.6,46.2z"/>
	</g>
	<g>
		<path class="st4" d="M39.4,62.4c-1.2,0-2.1-1-2.1-2.1c0-1.2,1-2.1,2.1-2.1c1.2,0,2.1,1,2.1,2.1C41.5,61.4,40.6,62.4,39.4,62.4z
			 M39.4,58.8c-0.8,0-1.5,0.7-1.5,1.5s0.7,1.5,1.5,1.5s1.5-0.7,1.5-1.5S40.2,58.8,39.4,58.8z"/>
	</g>
	<g>
		<path class="st4" d="M45,59.1c-1.2,0-2.1-1-2.1-2.1s1-2.1,2.1-2.1c1.2,0,2.1,1,2.1,2.1S46.2,59.1,45,59.1z M45,55.5
			c-0.8,0-1.5,0.7-1.5,1.5s0.7,1.5,1.5,1.5s1.5-0.7,1.5-1.5S45.8,55.5,45,55.5z"/>
	</g>
	<g>
		<g>
			<path class="st4" d="M65.2,38.7c-0.3-1.6-1-4.3-1.7-5.9L65.2,38.7C65.2,38.7,65.2,38.7,65.2,38.7z"/>
		</g>
		<g>
			<path class="st4" d="M65.8,39.1c0.1-0.1,0.2-0.1,0.3-0.1c-0.1-0.2-0.2-0.5-0.3-0.9l0.2,0.7c0,0.1,0,0.2-0.1,0.2c0,0-0.1,0-0.1,0
				c0,0-0.1-0.1-0.1-0.1l0-0.2c0,0.1,0,0.2-0.1,0.3C65.6,39,65.7,39,65.8,39.1z"/>
		</g>
		<g>
			<path class="st4" d="M63.9,32.7l-0.1-0.3c0-0.1-1.1-3.7-6.8-4.6c-0.2,0-1.9-0.2-3.1,0.9c-0.9,0.8-1.4,2.2-1.3,4.1
				c0.3,5.7-0.2,8.1-2.1,9.9c-1.7,1.7-5.6,6.9-6.9,9.8c-1.3,2.9-2.9,5.8-3,6.2c0,0.1-0.1,0.1-0.2,0.1c0,0-0.1-0.1-0.1-0.1
				c0,0,0-0.1,0-0.1c0,0,1.7-3.1,3-6.1c1.3-3,5.1-8.2,6.9-9.9c1.7-1.7,2.2-4,2-9.6c-0.1-2,0.4-3.4,1.4-4.3c1-0.9,2.2-1,2.9-1
				c0.3,0,0.5,0,0.5,0c5.9,1,7,4.7,7.1,4.8l0.1,0.3c-0.1-0.6-0.6-2.2-2.2-3.5c-1-0.7-2.3-1.4-4.2-1.8c-0.6-0.1-1.2-0.1-1.9-0.1
				c-0.7,0.1-1.7,0.3-2.5,1.1c-1.1,1-1.6,2.5-1.5,4.6c0.2,5.5-0.2,7.7-1.9,9.4c-1.8,1.8-5.7,7-7,10c-1.3,3-3,6.1-3,6.1
				c-0.1,0.1-0.1,0.3,0,0.4c0,0.1,0.1,0.2,0.2,0.3c0.1,0,0.2,0.1,0.2,0.1c0.2,0,0.3-0.1,0.4-0.3c0.2-0.3,1.8-3.3,3.1-6.2
				c1.3-2.9,5.1-8,6.8-9.7c1.9-1.9,2.4-4.3,2.2-10.1c-0.1-1.8,0.3-3,1.2-3.8c1.1-1,2.7-0.9,2.8-0.8c3.2,0.5,4.9,1.9,5.7,2.9
				c0.2,0.1,0.3,0.2,0.4,0.3C63.4,31.7,63.6,32.1,63.9,32.7z"/>
		</g>
		<g>
			<path class="st4" d="M64.6,32.7c0.3,1.7,1,3.9,1.5,5.2l-1.5-5.4C64.6,32.6,64.6,32.7,64.6,32.7z"/>
		</g>
		<g>
			<path class="st4" d="M66.6,38.9c0,0,0.1,0,0.1,0c0,0,0,0,0,0c-0.1-0.1-1.1-3-1.7-5.3c0,0.2,0,0.3,0,0.3
				C65.1,34.8,66.4,38.2,66.6,38.9C66.6,38.9,66.6,38.9,66.6,38.9z"/>
		</g>
		<g>
			<path class="st4" d="M59,25.4c-3-1.2-5.9-1.1-7.9,0.2c-1.1,0.7-1.8,1.8-1.9,2.7c0,1.1,0,2.3,0.1,3.4c0.1,1.1,0.2,2.2,0.1,3.1
				c0,0.2,0,0.3,0,0.5c-0.1,1.7-0.2,3.6-3.6,5.9c-3.6,2.4-5.7,2.5-5.9,2.5v0.2l0-0.2c0,0-0.1,0-0.1-0.1c0,0,0-0.1,0-0.1
				c0,0,0-0.1,0.1-0.1c0,0,0.1,0,0.1,0c0,0,0,0,0,0c0.1,0,2.1,0,5.7-2.4c3.3-2.2,3.4-3.9,3.5-5.6c0-0.2,0-0.3,0-0.5
				c0.1-0.9,0-2-0.1-3.1c-0.1-1.1-0.2-2.3-0.1-3.4c0-1.1,0.8-2.2,2-3c2.1-1.4,5.1-1.5,8.2-0.2c5.3,2.1,6.7,6.7,6.7,8.9
				c0,0.7,1.1,3.6,1.5,4.7c0,0.1,0,0.2-0.1,0.2c0,0,0,0,0,0c0,0,0,0.1,0,0.1c0.1,0,0.2,0,0.3,0.1c0.1-0.1,0.2-0.3,0.1-0.5
				c-0.6-1.6-1.5-4.1-1.5-4.6c0-2.2-1.4-7-6.9-9.2c-3.2-1.3-6.3-1.2-8.5,0.3c-1.3,0.8-2.1,2.1-2.2,3.3c-0.1,1.2,0,2.3,0.1,3.5
				c0.1,1.1,0.2,2.1,0.1,3c0,0.2,0,0.3,0,0.5c-0.1,1.6-0.2,3.3-3.4,5.4c-3.5,2.3-5.5,2.4-5.5,2.4c-0.1,0-0.3,0-0.4,0.1
				c-0.1,0.1-0.2,0.2-0.2,0.4c0,0.1,0,0.3,0.1,0.4c0.1,0.1,0.2,0.1,0.4,0.2h0c0.2,0,2.4-0.1,6.1-2.5c3.6-2.4,3.7-4.4,3.8-6.2
				c0-0.2,0-0.3,0-0.5c0.1-1,0-2-0.1-3.2c-0.1-1.1-0.2-2.3-0.1-3.4c0-0.9,0.7-1.8,1.7-2.5c1.9-1.3,4.7-1.3,7.6-0.2
				c2,0.8,3.3,1.9,4.2,3c1.8,1.8,2.1,3.9,2.1,3.9c0.1,0.3,0.1,0.6,0.2,0.9C65.3,32.3,64.5,27.6,59,25.4z"/>
		</g>
		<g>
			<path class="st4" d="M65.8,38l-1.5-5.4c0,0.1,0,0.2,0,0.2C64.5,34.5,65.3,36.7,65.8,38z"/>
		</g>
		<g>
			<path class="st4" d="M66.9,38.8c0,0.1,0.1,0.1,0.2,0.1c0,0,0-0.1,0-0.1c-0.1-0.1-1.1-2.9-1.7-5.2c0,0.2,0,0.3,0,0.4
				C65.4,34.6,66.4,37.3,66.9,38.8z"/>
		</g>
		<g>
			<path class="st4" d="M54.9,26.9c-0.1,0-1.9,0.1-3,1.4c-0.8,0.9-1,2.1-0.8,3.7c0,0.2,0.7,5.1-2.6,8.3c-0.1,0.1-1.5,1.3-1.8,3.5
				c-0.2,1.9-1.3,3.5-2.8,4.3c-0.8,0.4-1.7,0.7-2.7,0.9l0,0l0,0c-0.6,0.2-3,1-4.8,2.1v0.4c1.8-1.2,4.4-2,4.9-2.2l0,0
				c1-0.2,2-0.5,2.7-1c1.6-0.9,2.8-2.6,3-4.5c0.3-2.1,1.6-3.3,1.7-3.3c3.4-3.3,2.7-8.4,2.7-8.6c-0.2-1.5,0-2.6,0.7-3.4
				c1-1.2,2.7-1.3,2.8-1.3c0.4,0,0.7,0,1,0c0.6-0.1,1.1,0,1.1,0c0.3,0,0.5,0.1,0.7,0.1c1.9,0.3,3.2,1,4.2,1.8c1.9,1.4,2.4,3,2.4,3.1
				l0.1,0.3C64.3,31.3,62.7,26.4,54.9,26.9z"/>
		</g>
		<g>
			<path class="st4" d="M63.1,28.7c-1.5-1.5-4-2.8-8.2-2.5c-0.1,0-2.2,0.1-3.5,1.6c-0.9,1-1.2,2.5-1,4.2c0,0,0.7,4.8-2.3,7.7
				c-0.1,0.1-1.6,1.4-2,3.9c-0.2,1.6-1.1,3.1-2.5,3.8c-0.7,0.4-1.6,0.7-2.5,0.9c-0.1,0-2.7,0.8-4.7,2v0.4c2-1.2,4.6-2,4.8-2.1
				c1-0.2,1.9-0.5,2.6-0.9c1.4-0.8,2.4-2.3,2.7-4c0.3-2.4,1.8-3.7,1.9-3.7c3.1-3,2.5-7.9,2.5-8c-0.2-1.7,0.1-3,0.9-4
				c1.2-1.4,3.2-1.5,3.2-1.5c0.3,0,0.7,0,1,0c7.9,0,9,6.1,9,6.2c0.1,0.3,0.1,0.6,0.2,0.9C65,32.9,64.7,30.7,63.1,28.7z"/>
		</g>
		<g>
			<path class="st4" d="M66.2,38.9C66.3,38.9,66.3,38.9,66.2,38.9c0.1,0,0.2,0,0.2,0c-0.1-0.2-0.2-0.5-0.4-1l0.2,0.7
				C66.3,38.7,66.3,38.8,66.2,38.9z"/>
		</g>
		<g>
			<path class="st4" d="M64.6,38.9c0.1,0,0.1,0,0.2,0c0.1,0,0.1,0,0.2,0c0.1,0,0.1,0,0.2,0c0,0,0.1,0,0.1,0c0,0,0,0,0,0l-0.1-0.2
				c0,0,0,0.1,0,0.1c0,0-0.1,0.1-0.1,0.1c0,0-0.1,0-0.1,0c0,0-0.1-0.1-0.1-0.1c0-0.1-1.2-5.8-2.3-6.8c-0.7-0.7-2.5-1.6-4.1-1.3
				c-1.2,0.2-2,1.1-2.7,2.6c-0.7,1.7-1.1,3.5-1.6,5.5c-0.8,3.1-1.6,6.3-3.4,9c-0.1,0.2-0.3,0.4-0.4,0.6c-1.1,1.7-3.7,5.9-4.2,7
				c0,0.1-0.1,0.1-0.2,0.1c0,0-0.1-0.1-0.1-0.1c0,0,0-0.1,0-0.1c0.6-1.1,3.1-5.3,4.2-7c0.1-0.2,0.3-0.4,0.4-0.7
				c1.8-2.6,2.6-5.8,3.3-8.8c0.5-2,0.9-3.8,1.6-5.5c0.7-1.6,1.6-2.5,2.9-2.8c0.3-0.1,0.5-0.1,0.8-0.1c1.5,0,2.9,0.8,3.6,1.4
				c0.2,0.2,0.5,0.6,0.7,1.1l-0.1-0.3c0-0.1-0.2-0.7-0.8-1.4c-1-0.7-2.6-1.4-4.2-1.1c-1.4,0.3-2.4,1.3-3.1,3
				c-0.7,1.7-1.2,3.6-1.7,5.6c-0.8,3.1-1.5,6.2-3.3,8.7c-0.2,0.2-0.3,0.4-0.5,0.7c-1.1,1.7-3.7,5.9-4.2,7c-0.1,0.1-0.1,0.3,0,0.4
				c0,0.1,0.1,0.2,0.2,0.3c0.1,0,0.1,0.1,0.2,0.1c0.2,0,0.4-0.1,0.4-0.3c0.6-1.1,3.4-5.6,4.2-7c0.1-0.2,0.3-0.4,0.4-0.6
				c1.9-2.7,2.7-5.9,3.4-9.1c0.5-1.9,0.9-3.8,1.6-5.4c0.6-1.4,1.4-2.2,2.4-2.4c1.5-0.3,3.1,0.6,3.8,1.2
				C63.2,32.8,64.1,36.6,64.6,38.9C64.6,38.8,64.6,38.9,64.6,38.9z"/>
		</g>
		<g>
			<path class="st4" d="M63.9,32.7l1.7,5.9c0,0,0,0,0,0C65.5,38.1,64.8,34.7,63.9,32.7z"/>
		</g>
	</g>
	<g>
		<path class="st4" d="M70.5,48.6c-0.2,0-0.3-0.1-0.3-0.3l0-0.5c0-0.2,0.1-0.3,0.3-0.3c0.2,0,0.3,0.1,0.3,0.3l0,0.5
			C70.9,48.4,70.7,48.6,70.5,48.6C70.5,48.6,70.5,48.6,70.5,48.6z"/>
	</g>
	<g>
		<path class="st4" d="M70.5,48.2c-0.2,0-0.3-0.1-0.3-0.3l0-0.6c0-0.2,0.1-0.3,0.3-0.3c0.2,0,0.3,0.1,0.3,0.3l0,0.6
			C70.8,48,70.7,48.1,70.5,48.2C70.5,48.2,70.5,48.2,70.5,48.2z"/>
	</g>
	<g>
		<path class="st4" d="M44.8,57.9c-0.1,0-0.2-0.1-0.2-0.2c0-0.1,0.1-0.2,0.2-0.2c0.1,0,0.1,0,0.2,0c0.4-0.1,0.6-0.4,0.8-0.7
			c0-0.1,0.1-0.1,0.2-0.1c0.1,0,0.1,0.1,0.1,0.2c-0.2,0.5-0.5,0.8-1,0.9C45,57.9,44.9,57.9,44.8,57.9C44.8,57.9,44.8,57.9,44.8,57.9
			z"/>
	</g>
	<g>
		<path class="st4" d="M39.1,61.4c-0.1,0-0.2-0.1-0.2-0.2c0-0.1,0.1-0.2,0.2-0.2c0.1,0,0.1,0,0.2,0c0.4-0.1,0.6-0.4,0.8-0.7
			c0-0.1,0.1-0.1,0.2-0.1c0.1,0,0.1,0.1,0.1,0.2c-0.2,0.5-0.5,0.8-1,0.9C39.3,61.3,39.2,61.3,39.1,61.4
			C39.1,61.4,39.1,61.4,39.1,61.4z"/>
	</g>
	<g>
		<path class="st4" d="M37.3,45.3c-0.1,0-0.2,0-0.2,0c-0.1,0-0.2-0.1-0.1-0.2c0-0.1,0.1-0.1,0.2-0.1c0.1,0,0.1,0,0.2,0
			c0.4,0,0.7-0.2,0.9-0.5c0-0.1,0.2-0.1,0.2-0.1c0.1,0,0.1,0.2,0.1,0.2C38.3,45,37.8,45.2,37.3,45.3C37.3,45.3,37.3,45.3,37.3,45.3z
			"/>
	</g>
	<g>
		<path class="st4" d="M57.1,70.4c-0.1,0-0.1,0-0.2-0.1c-0.1-0.1-0.1-0.2,0-0.4l1.2-1.4c0.1-0.1,0.2-0.1,0.4,0
			c0.1,0.1,0.1,0.2,0,0.4l-1.2,1.4C57.2,70.3,57.1,70.4,57.1,70.4z"/>
	</g>
</g>
</svg>
