<?xml version="1.0" encoding="utf-8"?>
<!-- Generator: Adobe Illustrator 20.0.0, SVG Export Plug-In . SVG Version: 6.00 Build 0)  -->
<svg version="1.1" id="Layer_3" xmlns="http://www.w3.org/2000/svg" xmlns:xlink="http://www.w3.org/1999/xlink" x="0px" y="0px"
	 width="111px" height="68px" viewBox="0 0 111 68" style="enable-background:new 0 0 111 68;" xml:space="preserve">
<style type="text/css">
	.st0{fill:#E8EAEA;}
	.st1{fill:#ABABAB;}
</style>
<g>
	<path class="st0" d="M20.7,38.1c-0.6,1.4-4.7,3.8-11,2.8s-9.8-3.5-9.3-6.4c0.2-1.2,1.5-1.9,1.5-1.9s2.1,4.7,8.3,6
		c6,1.2,10.7-2.3,10.7-2.3S21.2,37,20.7,38.1z"/>
</g>
<g>
	<path class="st0" d="M61.1,18.8c-1,0.9-4.7,1.7-8.2,0.2c-5.1-2.1-7.5-6-7-8.8c0.2-1.1,0.8-1.4,0.8-1.4s0.5,4.1,5.1,7.2
		c4.4,3,10.2,1.3,10.2,1.3S61.9,18.2,61.1,18.8z"/>
</g>
<g>
	<path class="st0" d="M44,24.8c0,0-5.5,5.2-12,3.5c-6.1-1.5-9.4-5.9-8.3-10.9c0.3-1.2-0.2,3.7,4.8,6.3c8.5,4.5,14.3-0.1,14.3-0.1
		L44,24.8z"/>
</g>
<g>
	<g>
		<path class="st1" d="M26.6,38.2l-0.4-0.3c-0.6-0.5-5.8-5-8.2-7.1l-1.3-1.1c-0.3-0.3-0.4-0.7-0.3-1.1c0.2-0.4,0.5-1,1.2-1.4
			c0.2-0.1,0.4-0.2,0.6-0.2c0.5-0.1,0.9,0,1.3,0.3l9.6,7.8l-0.5,0.2c-0.4,0.2-0.8,0.4-1.1,0.8c-0.5,0.6-0.8,1.2-0.8,1.7L26.6,38.2z
			 M18.5,27.5c-0.1,0-0.1,0-0.2,0c-0.2,0-0.3,0.1-0.4,0.2c-0.5,0.3-0.7,0.7-0.9,1c-0.1,0.1,0,0.3,0.1,0.4l1.3,1.1
			c2.2,1.9,6.4,5.6,7.8,6.8c0.1-0.4,0.4-1,0.9-1.5c0.3-0.3,0.5-0.5,0.9-0.7L19,27.7C18.9,27.6,18.7,27.5,18.5,27.5z"/>
	</g>
	<g>
		<path class="st1" d="M13.2,38.8c-6.8,0-12.4-4.5-12.4-10c0-5.4,5.3-9.5,12.4-9.5s12.4,4.1,12.4,9.5c0,1.1-0.2,2.2-0.6,3.2
			l-0.6-0.2c0.4-0.9,0.6-1.9,0.6-2.9c0-5-5.1-8.8-11.8-8.8c-6.7,0-11.8,3.8-11.8,8.8c0,5.2,5.3,9.4,11.8,9.4c3.7,0,7.3-1.4,9.5-3.8
			l0.5,0.4C20.7,37.4,17.1,38.8,13.2,38.8z"/>
	</g>
	<g>
		<path class="st1" d="M9.1,35.3c-3.4-1.5-5.5-4.2-5.5-7c0-1.9,0.7-3.8,2.1-5.2c1.9-1.9,4.7-3,8-3c4.9,0,9.5,2.8,10.8,6.6L23.9,27
			c-1.2-3.6-5.7-6.3-10.3-6.3c-3.1,0-5.9,1-7.6,2.8c-1.3,1.4-2,3-2,4.9c0,2.6,2.1,5.1,5.3,6.5L9.1,35.3z"/>
	</g>
	<g>
		<path class="st1" d="M14,28.4c0,0-0.1,0-0.1,0c-3,0-4.7-1.2-5.2-3.5c-0.2-1,0.1-2,0.8-2.8c1-1.2,2.6-1.9,4.4-1.9c0,0,0,0,0,0
			c1.7,0,3.3,0.6,4.3,1.6c0.7,0.7,1.1,1.6,1.1,2.6C19.2,26.8,17.1,28.4,14,28.4z M13.9,20.7c-1.6,0-3.1,0.7-4,1.7
			C9.3,23.1,9,24,9.2,24.8c0.4,2,2,3.1,4.7,3.1c0,0,0.1,0,0.1,0c2.8,0,4.8-1.4,4.8-3.5l0,0c0-0.8-0.3-1.6-0.9-2.2
			C17,21.2,15.5,20.7,13.9,20.7C13.9,20.7,13.9,20.7,13.9,20.7z"/>
	</g>
	<g>
		<path class="st1" d="M19.6,35.7c-0.2,0-0.4,0-0.6-0.1c-0.4-0.1-0.6-0.2-0.9-0.3c-0.4-0.1-0.6-0.2-1.3-0.2c-0.6,0-0.9,0.1-1.3,0.1
			c-0.5,0.1-1,0.2-1.7,0.2c-0.4,0-0.9,0-1.4,0c-1.8,0-2.9,0.1-3.2-0.1l0.2-0.4c0.2,0.1,1.9,0.1,3,0c0.5,0,1,0,1.4,0
			c0.7,0,1.2-0.1,1.6-0.1c0.4-0.1,0.8-0.1,1.4-0.1c0.8,0,1.1,0.1,1.5,0.2c0.2,0.1,0.4,0.2,0.8,0.3c0.5,0.1,0.7,0,0.7,0c0,0,0,0,0,0
			c-0.5-0.6-2.9-3.5-3.7-4.5c-0.7-0.9-1.1-0.9-1.5-0.8l-0.1,0c-0.4,0.1-1.9,0.1-2,0.1c0,0,0,0,0,0c-3.3,0-4-3.3-4-3.3l0,0l0.1-2
			l0.5,0l-0.1,1.9c0.1,0.3,0.7,2.9,3.5,2.9c0,0,1.5,0,1.9-0.1l0.1,0c0.4-0.1,1.1-0.1,1.9,1c0.8,1.1,3.7,4.5,3.8,4.6l0,0.1l0,0.1
			c0,0,0,0.3-0.2,0.5C20,35.6,19.8,35.7,19.6,35.7z"/>
	</g>
	<g>
		<path class="st1" d="M15.6,30l-0.1-0.5c0.4-0.1,0.8-0.2,1.2-0.4l0.2,0.4C16.5,29.8,16.1,29.9,15.6,30z"/>
	</g>
	<g>
		<path class="st1" d="M16.9,29.3"/>
	</g>
	<g>
		<path class="st1" d="M19.2,27.3l-0.4-0.2c0-0.1,0-1.1,0-2l0.5,0C19.3,27.1,19.2,27.2,19.2,27.3z"/>
	</g>
	<g>
		<path class="st1" d="M16.4,30.7l-0.1-0.5c0.4-0.1,0.7-0.3,1-0.5l0.3,0.4C17.2,30.4,16.8,30.6,16.4,30.7z"/>
	</g>
	<g>
		<path class="st1" d="M17.4,30"/>
	</g>
	<g>
		<path class="st1" d="M25,29.8c-0.7,0-1.1,0-1.2-0.1c-0.1-0.1-1.3-0.4-1.5-0.4c-0.4-0.1-1-0.8-1.2-1.2c-0.1-0.2-0.3-0.2-0.5-0.3
			c-0.1,0-0.2,0-0.3-0.1l-0.1-0.1c-0.3-0.1-0.6-0.2-0.7-0.5c0-0.1-0.1-0.1-0.1-0.2c0-0.1-0.1-0.2-0.2-0.2l0-0.5
			c0.3,0,0.4,0.3,0.6,0.5c0,0.1,0.1,0.1,0.1,0.2c0.1,0.1,0.3,0.2,0.5,0.3l0.1,0.1c0.1,0,0.1,0,0.2,0.1c0.2,0,0.6,0.1,0.8,0.5
			c0.3,0.5,0.7,1,0.9,1c0.2,0,1.5,0.3,1.7,0.5c0.1,0,0.5,0,0.9,0.1l0-0.9c-0.1-0.1-0.4-0.7-0.7-1.1c-0.1-0.1-0.7-0.3-1-0.5
			c-0.6-0.2-0.9-0.4-1.1-0.5c-0.2-0.2-0.9-0.9-1.7-1.9c-0.2-0.3-0.4-0.5-0.5-0.6c-0.2-0.2-0.9-0.5-1.3-0.7l0.2-0.4
			c0.2,0.1,1.3,0.5,1.5,0.8c0.1,0.1,0.3,0.3,0.5,0.6c0.5,0.6,1.4,1.7,1.6,1.8c0.1,0.1,0.6,0.3,1,0.5c0.7,0.3,1.1,0.5,1.2,0.6l0,0
			c0.8,1.2,0.8,1.3,0.8,1.4l0,1.4l-0.2,0C25.1,29.8,25.1,29.8,25,29.8z"/>
	</g>
	<g>
		<path class="st1" d="M21.5,29.2l-0.5-0.1c0.1-0.7,0-1.1,0-1.2l0.5-0.1C21.5,27.8,21.6,28.4,21.5,29.2z"/>
	</g>
	<g>
		<path class="st1" d="M17.6,32.3C17.6,32.3,17.6,32.3,17.6,32.3l0-0.5c0,0,0.9,0,1.7-0.4l0.2,0.4C18.7,32.3,17.8,32.3,17.6,32.3z"
			/>
	</g>
	<g>
		<path class="st1" d="M12.7,24.6c-0.1,0-0.1,0-0.2-0.1c-0.1-0.1-0.1-0.2,0-0.3c0.1-0.1,0.2-0.8,0.1-1.3c0-0.1,0.1-0.3,0.2-0.3
			c0.1,0,0.3,0.1,0.3,0.2c0,0.2,0.2,1.3-0.2,1.7C12.8,24.6,12.8,24.6,12.7,24.6z"/>
	</g>
	<g>
		<path class="st1" d="M14,23.7c-0.9,0-1.4-0.3-1.4-0.8c0-0.5,0.6-1,1.4-1c0.8,0,1.4,0.4,1.4,1C15.4,23.4,14.9,23.7,14,23.7z
			 M14,22.4c-0.5,0-0.9,0.3-0.9,0.5c0,0.2,0.4,0.4,0.9,0.4c0.5,0,0.9-0.2,0.9-0.4C15,22.6,14.6,22.4,14,22.4z"/>
	</g>
	<g>
		<path class="st1" d="M15.3,24.5c0,0-0.1,0-0.1,0c-0.1-0.1-0.3-0.2-0.2-1.6c0-0.1,0.1-0.2,0.3-0.2c0.1,0,0.2,0.1,0.2,0.3
			c0,0.5,0,1,0,1.1c0.1,0.1,0.1,0.2,0,0.3C15.5,24.4,15.4,24.5,15.3,24.5z M15.5,24.1L15.5,24.1L15.5,24.1z M15.4,24
			C15.4,24,15.4,24,15.4,24C15.4,24,15.4,24,15.4,24z"/>
	</g>
	<g>
		<path class="st1" d="M27,38.3c-0.2,0-0.4-0.1-0.5-0.2c-0.2-0.2-0.3-0.6-0.2-1c0.1-0.4,0.3-0.9,0.7-1.3c0.4-0.4,0.8-0.7,1.1-0.9
			c0.4-0.2,0.8-0.1,1,0.1c0.4,0.3,0.3,0.9-0.1,1.6l-0.4-0.2c0.3-0.4,0.3-0.9,0.2-1c-0.1-0.1-0.3-0.1-0.5,0c-0.3,0.1-0.6,0.4-1,0.7
			c-0.3,0.3-0.5,0.7-0.6,1.1c-0.1,0.3,0,0.5,0.1,0.6c0.1,0.1,0.4,0,0.8-0.2l0.3,0.4C27.5,38.2,27.2,38.3,27,38.3z"/>
	</g>
	<g>
		<path class="st1" d="M17.4,29.4C17.4,29.4,17.4,29.4,17.4,29.4c-0.2,0-0.3-0.2-0.2-0.3c0.1-0.5,0.6-1.5,1.8-1.5
			c0.1,0,0.2,0.1,0.3,0.2c0,0.1-0.1,0.2-0.2,0.3c-1.1,0.1-1.3,1.1-1.3,1.1C17.6,29.4,17.5,29.4,17.4,29.4z"/>
	</g>
	<g>
		<path class="st1" d="M32.2,28.3"/>
	</g>
	<g>
		<g>
			<path class="st1" d="M46.2,27.4L45.8,27c-0.5-0.6-4.6-5.6-6.6-8l-0.9-1.2C38,17.5,38,17,38.2,16.7c0.2-0.4,0.6-0.9,1.3-1.1
				c0.2-0.1,0.4-0.1,0.6-0.1c0.4,0,0.9,0.2,1.2,0.5l7.8,8.9l-0.5,0.1c-0.4,0.1-0.8,0.3-1.2,0.6c-0.6,0.5-0.9,1-1,1.4L46.2,27.4z
				 M40.2,16.1C40.2,16.1,40.2,16.1,40.2,16.1c-0.2,0-0.3,0-0.5,0.1c-0.5,0.2-0.8,0.5-1,0.8c-0.1,0.1-0.1,0.3,0,0.4l0.9,1.2
				c1.7,2.1,5.1,6.3,6.3,7.6c0.2-0.4,0.5-0.8,1-1.2c0.3-0.2,0.6-0.4,0.9-0.5l-7.1-8.1C40.6,16.2,40.4,16.1,40.2,16.1z"/>
		</g>
		<g>
			<path class="st1" d="M36,26c-0.8,0-1.7-0.1-2.5-0.2c-6.4-1.1-10.9-6.2-10-11.4c0.9-5.1,7.1-8.5,13.5-7.3c3.1,0.5,5.8,2,7.6,4.1
				c1.8,2.1,2.6,4.7,2.1,7.2c-0.2,1-0.6,2-1.1,2.9L45.1,21c0.5-0.8,0.9-1.7,1-2.7c0.4-2.3-0.3-4.7-2-6.7c-1.7-2-4.3-3.4-7.2-3.9
				c-6.1-1.1-12,2.1-12.8,6.8c-0.8,4.8,3.4,9.6,9.5,10.7c3.5,0.6,7-0.2,9.5-2l0.4,0.5C41.4,25.2,38.8,26,36,26z"/>
		</g>
		<g>
			<path class="st1" d="M30.2,21.8c-2.9-2-4.5-4.8-4.1-7.4c0.3-1.8,1.3-3.4,2.8-4.5c2.1-1.5,4.9-2,8-1.5c4.6,0.8,8.4,4.1,9,7.9
				l-0.5,0.1c-0.6-3.5-4.3-6.8-8.6-7.5c-2.9-0.5-5.6,0-7.6,1.4c-1.5,1-2.4,2.5-2.6,4.2c-0.4,2.4,1.1,5.1,3.9,7L30.2,21.8z"/>
		</g>
		<g>
			<path class="st1" d="M37.3,16.3c-0.5,0-0.9,0-1.4-0.1c-2.8-0.5-4.2-1.9-4.3-4.1c0-0.9,0.4-1.8,1.2-2.5c1.1-0.9,2.8-1.3,4.4-1
				c1.6,0.3,3,1.1,3.8,2.2c0.5,0.8,0.7,1.7,0.6,2.6C41.2,15.1,39.6,16.3,37.3,16.3z M36.2,8.8c-1.2,0-2.3,0.4-3.1,1
				c-0.7,0.6-1,1.3-1,2.1c0,1.9,1.3,3.2,3.9,3.6c2.7,0.5,4.8-0.5,5.2-2.5l0,0c0.1-0.8,0-1.5-0.5-2.2c-0.7-1-2-1.7-3.5-2
				C36.8,8.9,36.5,8.8,36.2,8.8z"/>
		</g>
		<g>
			<path class="st1" d="M40.2,23.9c-0.2,0-0.4-0.1-0.7-0.2c-0.4-0.2-0.6-0.3-0.8-0.4c-0.3-0.2-0.5-0.3-1.2-0.4
				c-0.5-0.1-0.9-0.1-1.3-0.1c-0.5,0-0.9,0-1.6-0.1c-0.4-0.1-0.9-0.1-1.4-0.2c-1.7-0.3-2.7-0.4-3-0.6l0.3-0.4
				c0.2,0.1,1.8,0.4,2.8,0.5c0.5,0.1,1,0.1,1.4,0.2c0.7,0.1,1.1,0.1,1.6,0.1c0.4,0,0.8,0,1.4,0.1c0.8,0.1,1,0.3,1.4,0.5
				c0.2,0.1,0.4,0.2,0.7,0.4c0.5,0.2,0.6,0.1,0.7,0.1c-0.4-0.6-2.2-3.8-2.7-4.8c-0.5-1-0.9-1-1.2-1l-0.1,0c-0.4,0-1.8-0.2-1.9-0.3
				c-3.1-0.5-3.2-3.7-3.2-3.8l0,0l0.4-1.8l0.5,0.1l-0.4,1.8c0,0.3,0.2,2.9,2.8,3.3c0,0,1.4,0.2,1.8,0.2l0.1,0c0.4,0,1,0,1.6,1.3
				c0.6,1.1,2.7,4.9,2.8,4.9l0,0.1l0,0.1c0,0.1-0.1,0.3-0.3,0.4C40.5,23.9,40.3,23.9,40.2,23.9z"/>
		</g>
		<g>
			<path class="st1" d="M37.3,17.9C37.3,17.9,37.3,17.9,37.3,17.9l-0.1-0.5c0.4,0,0.8,0,1.2-0.2l0.1,0.5
				C38.2,17.9,37.8,17.9,37.3,17.9z"/>
		</g>
		<g>
			<path class="st1" d="M38.5,17.5"/>
		</g>
		<g>
			<path class="st1" d="M41,16l-0.4-0.3l0.2,0.1l-0.2-0.1c0.1-0.1,0.2-1.1,0.3-1.9l0.5,0.1C41.2,15.8,41,15.9,41,16z"/>
		</g>
		<g>
			<path class="st1" d="M37.8,18.7l-0.1-0.5c0.4,0,0.7-0.1,1-0.3l0.2,0.4C38.6,18.6,38.3,18.7,37.8,18.7z"/>
		</g>
		<g>
			<path class="st1" d="M38.9,18.2"/>
		</g>
		<g>
			<path class="st1" d="M46.5,19.3l-0.2,0c-0.7-0.1-1.2-0.2-1.3-0.3c-0.1-0.1-1.1-0.6-1.4-0.6c-0.4-0.1-0.8-0.9-1-1.4
				c-0.1-0.2-0.2-0.3-0.4-0.3c-0.1,0-0.2-0.1-0.3-0.1l-0.1-0.1c-0.2-0.2-0.5-0.3-0.6-0.6c0-0.1-0.1-0.1-0.1-0.2
				c0-0.1-0.1-0.2-0.1-0.3l0.1-0.5c0.3,0,0.4,0.3,0.5,0.6c0,0.1,0,0.1,0.1,0.2c0.1,0.1,0.3,0.3,0.4,0.4l0.1,0.1c0,0,0.1,0.1,0.2,0.1
				c0.2,0.1,0.5,0.2,0.7,0.6c0.2,0.5,0.5,1,0.7,1.1c0.2,0.1,1.3,0.6,1.5,0.7c0.1,0,0.5,0.1,0.8,0.2l0.2-0.8c0-0.1-0.3-0.7-0.4-1.2
				c-0.1-0.1-0.6-0.4-0.9-0.6c-0.5-0.3-0.8-0.5-0.9-0.7c-0.2-0.2-0.7-1-1.3-2c-0.2-0.3-0.3-0.5-0.4-0.6c-0.1-0.2-0.7-0.6-1.2-0.8
				l0.2-0.4c0.2,0.1,1.1,0.6,1.3,1c0.1,0.1,0.2,0.3,0.4,0.7c0.4,0.6,1.1,1.8,1.2,2c0.1,0.1,0.5,0.4,0.8,0.6c0.6,0.4,0.9,0.6,1,0.8
				l0,0c0.5,1.2,0.5,1.3,0.5,1.4L46.5,19.3z"/>
		</g>
		<g>
			<path class="st1" d="M42.9,18.1L42.4,18c0.2-0.6,0.2-1.1,0.2-1.1l0.5-0.1C43.1,16.8,43.1,17.4,42.9,18.1z"/>
		</g>
		<g>
			<path class="st1" d="M39.3,20.5c-0.4,0-0.6,0-0.6,0l0.1-0.5c0,0,0.8,0.1,1.7-0.1l0.1,0.5C40.1,20.5,39.7,20.5,39.3,20.5z"/>
		</g>
		<g>
			<path class="st1" d="M35.4,12.4c-0.1,0-0.2,0-0.2-0.1c-0.1-0.1,0-0.3,0.1-0.3c0.2-0.1,0.3-0.7,0.3-1.2c0-0.1,0.1-0.2,0.2-0.2
				c0.1,0,0.2,0.1,0.2,0.2c0,0.2-0.1,1.3-0.5,1.6C35.5,12.4,35.5,12.4,35.4,12.4z"/>
		</g>
		<g>
			<path class="st1" d="M37.2,11.8c-0.1,0-0.3,0-0.5,0c-0.8-0.1-1.3-0.5-1.2-1c0.1-0.5,0.7-0.8,1.5-0.7c0.3,0.1,0.6,0.2,0.9,0.4
				c0.2,0.2,0.4,0.5,0.3,0.8c0,0.3-0.2,0.5-0.6,0.6C37.5,11.8,37.4,11.8,37.2,11.8z M36.7,10.5c-0.4,0-0.7,0.1-0.7,0.3
				c0,0.2,0.3,0.4,0.8,0.5c0.3,0,0.5,0,0.7,0c0.2-0.1,0.2-0.1,0.2-0.2v0c0-0.1,0-0.2-0.2-0.3c-0.1-0.1-0.4-0.2-0.6-0.3
				C36.9,10.5,36.8,10.5,36.7,10.5z"/>
		</g>
		<g>
			<path class="st1" d="M37.9,12.7c-0.1,0-0.1,0-0.2-0.1c-0.1-0.1-0.3-0.3,0.1-1.5c0-0.1,0.2-0.2,0.3-0.2c0.1,0,0.2,0.2,0.2,0.3
				c-0.1,0.4-0.2,0.9-0.2,1.1c0.1,0.1,0.1,0.2,0,0.3C38,12.7,37.9,12.7,37.9,12.7z M38.1,12.3L38.1,12.3L38.1,12.3z M38,12.3
				C38,12.3,38,12.3,38,12.3C38,12.3,38,12.3,38,12.3z"/>
		</g>
		<g>
			<path class="st1" d="M46.7,27.5c-0.2,0-0.5-0.1-0.6-0.2c-0.2-0.2-0.2-0.6,0-1c0.2-0.4,0.5-0.8,0.9-1.1c0.9-0.7,1.8-0.9,2.2-0.4
				c0.3,0.3,0.2,0.8-0.2,1.4l-0.4-0.3c0.2-0.3,0.3-0.6,0.2-0.8c-0.2-0.2-0.8-0.1-1.5,0.5c-0.3,0.3-0.6,0.6-0.7,0.9
				c-0.1,0.2-0.1,0.4,0,0.5c0.1,0.1,0.4,0.1,0.8,0l0.2,0.4C47.2,27.5,47,27.5,46.7,27.5z"/>
		</g>
		<g>
			<path class="st1" d="M39,17.7C39,17.7,39,17.7,39,17.7c-0.2-0.1-0.3-0.2-0.2-0.3c0.2-0.4,0.8-1.3,1.9-1.1c0.1,0,0.2,0.1,0.2,0.3
				c0,0.1-0.1,0.2-0.3,0.2c-1-0.1-1.4,0.8-1.4,0.8C39.2,17.7,39.1,17.7,39,17.7z"/>
		</g>
		<g>
			<path class="st1" d="M53,19"/>
		</g>
	</g>
	<g>
		<g>
			<path class="st1" d="M63.2,21.4L63,20.9c-0.3-0.6-2.5-5.6-3.7-8.3l-0.6-1.3c-0.2-0.3-0.1-0.8,0.2-1c0.3-0.3,0.8-0.6,1.4-0.6
				c0.2,0,0.4,0,0.5,0c0.4,0.1,0.7,0.3,0.9,0.7l4.6,9.4l-0.5,0c-0.4,0-0.7,0.1-1.1,0.2c-0.6,0.2-1,0.6-1.2,0.9L63.2,21.4z
				 M60.4,10.3C60.4,10.3,60.4,10.3,60.4,10.3c-0.5,0-0.9,0.3-1.1,0.5c-0.1,0.1-0.1,0.2-0.1,0.3l0.6,1.3c1,2.2,2.8,6.4,3.5,7.8
				c0.3-0.3,0.6-0.6,1.1-0.8c0.3-0.1,0.6-0.2,0.8-0.2l-4.2-8.5c-0.1-0.2-0.3-0.3-0.5-0.4C60.6,10.3,60.5,10.3,60.4,10.3z"/>
		</g>
		<g>
			<path class="st1" d="M58,18.3c-1.7,0-3.5-0.4-5.2-1.2c-2.5-1.2-4.5-3.1-5.6-5.4C46,9.4,45.9,7,46.9,5c1-2,3-3.6,5.6-4.2
				c2.6-0.6,5.5-0.3,7.9,0.8c2.5,1.2,4.4,3.1,5.4,5.4c1,2.3,1,4.8,0,6.8c-0.4,0.8-0.9,1.6-1.6,2.2l-0.4-0.5c0.6-0.6,1.1-1.3,1.5-2
				c0.9-1.9,0.9-4.2,0-6.3c-0.9-2.2-2.7-4-5.1-5.1C57.8,1,55,0.8,52.6,1.4c-2.4,0.6-4.3,2-5.2,3.9c-0.9,1.9-0.8,4.1,0.2,6.2
				c1,2.1,2.9,3.9,5.3,5.1c2.8,1.3,6,1.5,8.5,0.5l0.2,0.6C60.6,18,59.3,18.3,58,18.3z"/>
		</g>
		<g>
			<path class="st1" d="M50.9,12.9c-2-2.4-2.7-5.2-1.7-7.3c0.7-1.5,2.1-2.7,3.9-3.4c2.4-0.9,5.1-0.7,7.5,0.4c4,1.9,5.4,6.1,5.1,9.3
				l-0.5-0.1c0.3-3-1-7-4.8-8.8c-2.3-1.1-4.9-1.2-7.2-0.4c-1.7,0.6-3,1.8-3.6,3.2c-0.9,2-0.2,4.6,1.7,6.8L50.9,12.9z"/>
		</g>
		<g>
			<path class="st1" d="M59.6,10c-0.8,0-1.7-0.2-2.6-0.6c-2.3-1.1-3.2-2.6-2.7-4.5C54.6,4,55.1,3.3,56,2.9c1.2-0.5,2.7-0.5,4.1,0.1
				c1.3,0.6,2.3,1.6,2.7,2.8C63,6.7,63,7.5,62.6,8.2l0,0C62.1,9.4,61,10,59.6,10z M57.8,3c-0.6,0-1.1,0.1-1.6,0.3
				c-0.7,0.3-1.2,0.9-1.4,1.6c-0.4,1.7,0.4,3,2.5,4c2.2,1,4.2,0.7,4.9-0.9l0,0c0.3-0.6,0.3-1.3,0.1-2c-0.4-1-1.3-1.9-2.5-2.5
				C59.2,3.2,58.4,3,57.8,3z"/>
		</g>
		<g>
			<path class="st1" d="M59.1,17c-0.2,0-0.5-0.1-0.8-0.4c-0.3-0.2-0.4-0.4-0.6-0.5c-0.2-0.2-0.4-0.4-0.9-0.6
				c-0.4-0.2-0.7-0.3-1.1-0.4c-0.4-0.1-0.8-0.2-1.4-0.5c-0.3-0.1-0.7-0.3-1.1-0.5c-1.4-0.6-2.2-1-2.4-1.2l0.4-0.3
				c0.2,0.2,1.4,0.7,2.3,1.1c0.4,0.2,0.8,0.4,1.1,0.5c0.6,0.3,0.9,0.4,1.3,0.5c0.3,0.1,0.7,0.2,1.1,0.4c0.6,0.3,0.8,0.5,1.1,0.7
				c0.1,0.1,0.3,0.3,0.5,0.5c0.3,0.2,0.4,0.3,0.5,0.3c-0.2-0.7-1-3.7-1.2-4.7c-0.2-0.9-0.5-1-0.8-1.1l0,0c-0.4-0.1-1.5-0.6-1.5-0.6
				c-2.6-1.2-1.9-4-1.9-4l0-0.1l0.7-1.4l0.4,0.2l-0.7,1.4c-0.1,0.3-0.5,2.5,1.6,3.4c0,0,1.1,0.5,1.5,0.6l0,0
				c0.5,0.1,0.9,0.4,1.1,1.5c0.2,1.1,1.2,4.8,1.2,4.8l0,0.1l0,0.1c0,0.1-0.1,0.2-0.3,0.3C59.2,17,59.2,17,59.1,17z"/>
		</g>
		<g>
			<path class="st1" d="M58.8,11.3c-0.3,0-0.7,0-1-0.1l0.1-0.5c0.3,0.1,0.7,0.1,1,0.1l0,0.5C58.9,11.3,58.9,11.3,58.8,11.3z"/>
		</g>
		<g>
			<path class="st1" d="M59,11.1"/>
		</g>
		<g>
			<path class="st1" d="M61.5,10.4L61.2,10l0.1,0.2l-0.2-0.2c0.1-0.1,0.4-0.9,0.7-1.6l0.4,0.2C61.7,10.3,61.5,10.4,61.5,10.4z"/>
		</g>
		<g>
			<path class="st1" d="M58.7,12.1c-0.2,0-0.4,0-0.6,0l0.1-0.5c0.3,0,0.6,0,0.9,0l0.1,0.5C59,12.1,58.9,12.1,58.7,12.1z"/>
		</g>
		<g>
			<path class="st1" d="M59.2,11.8"/>
		</g>
		<g>
			<path class="st1" d="M65.4,14.5l-0.2-0.1c-0.9-0.4-1-0.6-1-0.6c-0.1-0.1-0.8-0.7-1-0.8c-0.3-0.2-0.5-1-0.5-1.4
				c0-0.2-0.1-0.3-0.3-0.4c-0.1-0.1-0.2-0.1-0.2-0.2L62,10.9c-0.2-0.2-0.3-0.4-0.4-0.6c0-0.1,0-0.1,0-0.2c0-0.1,0-0.2,0-0.2l0.2-0.4
				c0.2,0.1,0.3,0.4,0.3,0.6c0,0.1,0,0.1,0,0.2c0,0.1,0.2,0.3,0.3,0.4l0.1,0.1c0,0,0.1,0.1,0.1,0.1c0.2,0.1,0.4,0.3,0.5,0.7
				c0,0.4,0.2,1,0.3,1.1c0.1,0.1,1,0.8,1.1,1c0,0,0.3,0.2,0.6,0.3l0.3-0.7c0-0.1-0.1-0.6-0.1-1.1c-0.1-0.1-0.4-0.5-0.6-0.7
				c-0.3-0.4-0.6-0.6-0.6-0.8c-0.1-0.2-0.3-1-0.6-2c-0.1-0.3-0.1-0.5-0.2-0.6c0-0.2-0.4-0.6-0.8-1l0.3-0.3c0.1,0.1,0.8,0.8,0.9,1.2
				c0,0.1,0.1,0.3,0.2,0.7c0.2,0.6,0.5,1.8,0.6,2c0,0.1,0.3,0.4,0.6,0.7c0.5,0.5,0.6,0.7,0.7,0.9l0,0c0.1,1.2,0.1,1.3,0.1,1.3
				L65.4,14.5z"/>
		</g>
		<g>
			<path class="st1" d="M62.6,12.7l-0.4-0.3c0.3-0.5,0.4-0.9,0.4-0.9l0.5,0.1C63.1,11.6,63,12.1,62.6,12.7z"/>
		</g>
		<g>
			<path class="st1" d="M60,14c-0.9,0-1.5-0.3-1.5-0.3l0.2-0.4c0,0,0.6,0.3,1.5,0.3l0,0.5C60.1,14,60,14,60,14z"/>
		</g>
		<g>
			<path class="st1" d="M57.6,6.1c-0.1,0-0.2-0.1-0.2-0.2c0-0.1,0-0.3,0.1-0.3c0.2-0.1,0.4-0.5,0.5-0.9c0-0.1,0.2-0.2,0.3-0.2
				c0.1,0,0.2,0.2,0.2,0.3C58.4,5.1,58.1,5.9,57.6,6.1C57.6,6.1,57.6,6.1,57.6,6.1z"/>
		</g>
		<g>
			<path class="st1" d="M59.6,6.1c-0.2,0-0.5-0.1-0.8-0.2c-0.3-0.1-0.5-0.3-0.7-0.5C58,5.1,57.9,4.9,58,4.7c0.1-0.2,0.3-0.4,0.6-0.4
				c0.3,0,0.6,0,0.8,0.2c0.6,0.3,0.9,0.9,0.7,1.3l0,0C60.1,5.9,59.9,6.1,59.6,6.1z M58.8,4.7C58.8,4.7,58.8,4.7,58.8,4.7
				c-0.2,0-0.3,0.1-0.3,0.1c0,0,0,0.1,0.1,0.2c0.1,0.1,0.3,0.2,0.5,0.3c0.4,0.2,0.7,0.2,0.8,0.1c0.1-0.2-0.1-0.5-0.5-0.7
				C59.1,4.8,59,4.7,58.8,4.7z"/>
		</g>
		<g>
			<path class="st1" d="M59.6,6.9c-0.1,0-0.2,0-0.2-0.1c-0.1-0.1-0.2-0.3,0.4-1.3c0.1-0.1,0.2-0.2,0.3-0.1s0.2,0.2,0.1,0.3
				c-0.2,0.3-0.4,0.7-0.4,0.8c0,0.1,0,0.2-0.1,0.3C59.7,6.9,59.7,6.9,59.6,6.9z M59.8,6.6L59.8,6.6L59.8,6.6z M59.8,6.5
				C59.8,6.5,59.8,6.5,59.8,6.5C59.8,6.5,59.8,6.5,59.8,6.5z"/>
		</g>
		<g>
			<path class="st1" d="M63.9,21.6c-0.5,0-0.7-0.3-0.8-0.4c-0.1-0.3,0-0.6,0.2-0.9c0.2-0.3,0.6-0.5,1-0.7c0.4-0.2,0.8-0.3,1.2-0.3
				c0.4,0,0.7,0.2,0.8,0.4c0.2,0.3,0,0.8-0.5,1.1l-0.3-0.4c0.3-0.2,0.4-0.5,0.3-0.6c0-0.1-0.2-0.1-0.4-0.2c-0.3,0-0.6,0.1-1,0.2
				c-0.3,0.2-0.6,0.4-0.8,0.6c-0.1,0.2-0.2,0.3-0.1,0.4c0,0.1,0.3,0.2,0.7,0.1l0.1,0.5C64.2,21.6,64.1,21.6,63.9,21.6z"/>
		</g>
		<g>
			<path class="st1" d="M59.4,11.4c-0.1,0-0.1,0-0.1,0c-0.1-0.1-0.1-0.2,0-0.3c0.3-0.3,1-0.9,1.9-0.5c0.1,0,0.2,0.2,0.1,0.3
				c0,0.1-0.2,0.2-0.3,0.1c-0.8-0.3-1.4,0.3-1.4,0.4C59.6,11.4,59.5,11.4,59.4,11.4z"/>
		</g>
		<g>
			<path class="st1" d="M71,15.8"/>
		</g>
	</g>
	<g>
		<g>
			<path class="st1" d="M108.2,62h-0.9l-4.6-2.7c-0.2-0.1-0.3-0.3-0.4-0.5l-0.9-0.5l-0.1,0.1c-0.3,0.2-0.6,0.2-0.9,0l-7-3.9
				c-0.1-0.1-0.2-0.2-0.3-0.3l-2.4-2.6c-0.1-0.1-0.1-0.3-0.1-0.4c0.1-0.2,0.2-0.3,0.4-0.3h0c0.2,0,0.4-0.1,0.5-0.2
				c0.1-0.1,0.1-0.4,0.1-0.7c0-0.1,0-0.3,0.1-0.4c0.1-0.1,0.3-0.1,0.4-0.1l3.1,0.9c0.2,0,0.3,0.1,0.5,0.2l7,4.2
				c0.2,0.1,0.3,0.3,0.4,0.6l0,0.3l0.8,0.6c0.2-0.1,0.5-0.1,0.7,0.1L109,59l0.4,0.6c0.2,0.3,0.3,0.7,0.1,1l-0.3,0.8
				C109.1,61.7,108.7,62,108.2,62z M107.5,61.4h0.7c0.2,0,0.4-0.1,0.5-0.3l0.3-0.8c0.1-0.1,0-0.3,0-0.4l-0.4-0.5l-4.2-2.6
				c-0.1,0-0.1,0-0.2,0l-0.3,0.1l-1.3-0.9l-0.1-0.6c0-0.1,0-0.1-0.1-0.1l-7-4.2c-0.1-0.1-0.2-0.1-0.3-0.1l-2.8-0.8
				c0,0.4-0.1,0.6-0.2,0.9c-0.2,0.2-0.4,0.3-0.6,0.4l2.1,2.4c0.1,0.1,0.1,0.1,0.2,0.2l7,3.9c0.1,0,0.2,0,0.2,0l0.4-0.3l1.6,0.8v0.2
				c0,0.1,0,0.1,0.1,0.1L107.5,61.4z"/>
		</g>
		<g>
			<path class="st1" d="M102.8,59l-0.2-0.4l0.1,0.2l-0.1-0.2c0.1,0,1.4-0.5,1.3-2.1l0.5,0C104.5,58.4,102.8,59,102.8,59z"/>
		</g>
		<g>
			<path class="st1" d="M101.3,58.3l-0.3-0.4c0,0,1.6-1.2,1.6-2.5l0.5,0C103.1,56.9,101.3,58.2,101.3,58.3z"/>
		</g>
		<g>
			<path class="st1" d="M93.5,54.2l-0.3-0.4c0,0,1.7-1.2,1.7-3.1l0.5,0C95.4,52.9,93.6,54.1,93.5,54.2z"/>
		</g>
	</g>
	<g>
		<g>
			<path class="st1" d="M98.4,64.6c-0.1,0-0.2,0-0.3,0l-0.9-0.2l-3.9-3.7c-0.2-0.2-0.3-0.4-0.2-0.6l-0.8-0.7l-0.1,0
				c-0.3,0.1-0.6,0-0.9-0.2l-5.9-5.4c-0.1-0.1-0.2-0.2-0.3-0.4l-1.3-2.4l0.6-0.3l1.3,2.4c0,0.1,0.1,0.1,0.2,0.2l5.9,5.4
				c0.1,0.1,0.1,0.1,0.2,0l0.5-0.2l1.4,1.1L93.8,60c0,0.1,0,0.1,0,0.2l3.7,3.6l0.7,0.2c0.2,0,0.4,0,0.5-0.2l0.5-0.7
				c0.1-0.1,0.1-0.3,0-0.4l-0.2-0.6l-3.5-3.5c0,0-0.1-0.1-0.2-0.1l-0.3,0L94,57.4l0-0.6c0-0.1,0-0.1-0.1-0.1L88.1,51
				c-0.1-0.1-0.2-0.1-0.3-0.2L86.3,50l0.3-0.6l1.6,0.9c0.1,0.1,0.3,0.2,0.4,0.3l5.9,5.7c0.2,0.2,0.3,0.4,0.2,0.6l0,0.3l0.7,0.7
				c0.3,0,0.5,0.1,0.7,0.2l3.6,3.6l0.3,0.7c0.1,0.3,0.1,0.7-0.1,1l-0.5,0.7C99.1,64.4,98.8,64.6,98.4,64.6z"/>
		</g>
		<g>
			<path class="st1" d="M93.5,60.4l-0.1-0.5l0,0.2l0-0.2c0.1,0,1.5-0.2,1.7-1.7l0.5,0.1C95.3,60.2,93.5,60.4,93.5,60.4z"/>
		</g>
		<g>
			<path class="st1" d="M92.2,59.3L92,58.9c0,0,1.9-0.8,2.1-2.1l0.5,0.1C94.3,58.4,92.3,59.3,92.2,59.3z"/>
		</g>
		<g>
			<path class="st1" d="M85.6,53.6l-0.2-0.4c0,0,1.9-0.8,2.4-2.6l0.5,0.1C87.7,52.7,85.7,53.6,85.6,53.6z"/>
		</g>
	</g>
	<g>
		<g>
			<path class="st1" d="M91,67.7c-0.2,0-0.3,0-0.5-0.1l-0.8-0.4l-3.1-4.3c-0.1-0.2-0.2-0.4-0.1-0.6l-0.7-0.8l-0.1,0
				c-0.3,0.1-0.6-0.1-0.8-0.3l-4.8-6.4c-0.1-0.1-0.2-0.3-0.2-0.4l-1-3l0.6-0.2l1,3c0,0.1,0.1,0.1,0.1,0.2l4.8,6.4
				c0,0.1,0.1,0.1,0.2,0.1l0.5-0.1l1.1,1.4l-0.1,0.2c0,0.1,0,0.1,0,0.2l3,4.2l0.7,0.3c0.2,0.1,0.4,0,0.6-0.1l0.6-0.6
				c0.1-0.1,0.1-0.2,0.1-0.4l-0.1-0.6l-2.8-4.1c0-0.1-0.1-0.1-0.2-0.1l-0.3,0l-0.9-1.4l0.2-0.6c0-0.1,0-0.1,0-0.1l-4.7-6.6
				c-0.1-0.1-0.1-0.2-0.2-0.3l-1-0.8l0.4-0.5l1,0.8c0.1,0.1,0.2,0.2,0.3,0.4l4.7,6.6c0.1,0.2,0.2,0.4,0.1,0.7l-0.1,0.3l0.5,0.9
				c0.3,0,0.5,0.2,0.6,0.4l2.9,4.2l0.2,0.7c0.1,0.3,0,0.7-0.3,1l-0.6,0.6C91.6,67.6,91.3,67.7,91,67.7z"/>
		</g>
		<g>
			<path class="st1" d="M86.8,62.6C86.8,62.6,86.7,62.6,86.8,62.6l0-0.5l0,0.2l0-0.2c0.1,0,1.5,0.1,2-1.4l0.4,0.2
				C88.6,62.6,87.1,62.6,86.8,62.6z"/>
		</g>
		<g>
			<path class="st1" d="M85.7,61.4l-0.1-0.5c0,0,2-0.5,2.5-1.7l0.4,0.2C87.9,60.8,85.8,61.3,85.7,61.4z"/>
		</g>
		<g>
			<path class="st1" d="M80.2,54.5L80.1,54c0,0,2-0.4,2.8-2.2l0.4,0.2C82.5,54,80.3,54.5,80.2,54.5z"/>
		</g>
	</g>
	<g>
		<path class="st1" d="M47.7,66.7c-1.6,0-3.1-0.4-4.4-1.1c-2.7-1.5-3.6-4-4.8-7.5c-1-3-2.3-6.8-5.3-11.6c-0.4-0.7-0.8-1.3-1.3-2
			l-4.9-7.2c-0.4-0.5-0.2-1.2,0.3-1.6c0.5-0.4,1.2-0.2,1.6,0.3l4.9,7.2c0.5,0.7,0.9,1.4,1.3,2.1c0.6,1,1.1,1.9,1.6,2.8
			c-0.1-0.4-0.1-0.7,0-1.1c0.2-1.3,0.7-2.3,1.6-3c0.5-0.4,1.1-0.6,1.8-0.8c0.5-2.8,2.3-4.9,4.7-5.8c0.6-0.2,1.2-0.4,1.9-0.5l0,0
			c1.4-1.9,2.6-3.5,2.8-4.8c0.3-2.9-2.4-4.5-2.5-4.6c-0.5-0.3-0.7-1-0.4-1.5c0.3-0.5,1-0.7,1.5-0.4c0.2,0.1,4.2,2.4,3.7,6.8
			c-0.2,1.4-0.9,2.7-2,4.3c1.7-0.1,3.4,0.1,5,0.2c3.5,0.2,6.9,0.4,9.3-1c1.8-1.1,1.9-4.4,1.6-6.9c-0.4-3-1.3-6.2-2-8
			c-0.2-0.4-0.1-0.8,0.2-1.2l0.5,0.4c-0.1,0.1-0.2,0.3-0.1,0.5c0,0.1,4.8,12.8,0.2,15.7c-2.6,1.6-6,1.3-9.6,1.1
			c-1.8-0.1-3.7-0.2-5.6-0.1l-0.7,0l0.4-0.5c1.3-1.8,2.1-3.1,2.3-4.5c0.5-4-3.2-6.1-3.3-6.2c-0.2-0.1-0.5-0.1-0.7,0.2
			c-0.1,0.2-0.1,0.5,0.2,0.7c0.1,0.1,3.2,1.9,2.8,5.2c-0.2,1.5-1.4,3.2-2.9,5.1l-0.2,0.2l-0.1,0c-0.7,0.1-1.4,0.3-2,0.5
			c-2.3,0.8-3.9,2.9-4.3,5.5l0,0.2l-0.2,0c-0.7,0.1-1.3,0.4-1.8,0.7c-0.8,0.6-1.2,1.4-1.4,2.5c-0.1,1,0.1,1.9,0.8,2.5
			c0.9,0.8,2.4,1.3,4.5,1.6l0.2,0l0.1,0.2c0.2,0.8,0.5,1.7,0.9,2.5c1,2.2,3.5,3.6,6.2,3.6c0.9,0,1.8-0.2,2.6-0.5
			c0.1,0,0.2-0.1,0.3-0.1l0.3-0.2l0.1,0.4c0.6,2.5,0.2,4.7-1.1,6.1c-1.6,1.7-5.3,2.5-8.3,0.9c-2.2-1.2-2.9-3.2-4-6.6
			c-1-2.9-2.4-6.9-5.4-11.9c-0.4-0.7-0.9-1.4-1.3-2l-4.9-7.2c-0.2-0.2-0.5-0.3-0.7-0.1c-0.2,0.2-0.3,0.5-0.1,0.7l4.9,7.2
			c0.4,0.7,0.9,1.3,1.3,2c3,4.9,4.3,8.6,5.3,11.7c1.2,3.4,2,5.8,4.5,7.2c1.2,0.6,2.6,1,4.1,1c0.3,0,0.6,0,0.9,0
			c1.9-0.2,3.5-0.9,4.5-2.1c1.6-1.8,2.1-4.6,1.2-7.6l-0.1-0.2l0.1-0.1c0.7-0.7,1.1-1.5,1.3-2.4c0.1-0.5,0.1-0.9,0.1-1.4l0-0.2
			l0.2-0.1c4.4-1.4,10-2.9,13.9-2.3c0.5,0.1,1.1,0.2,1.6,0.3c2.8,0.4,6.3,1,9.2,1l0.2,0c2.7,0,4.6-0.6,5.5-1.6l0.1-0.1l0.2,0.1
			c1.5,0.4,2.9,1,4.1,1.6c0.1,0.1,0.3,0.1,0.4,0c0.1,0,0.2-0.1,0.3-0.3c0.1-0.1,0.1-0.3,0-0.4c0-0.1-0.1-0.2-0.3-0.3
			c-1.2-0.6-2.6-1.1-4-1.5L87,48.2l0.1-0.3c0.4-2.2-0.2-4.1-1.6-5.4c-1.5-1.3-4.6-2.4-10.8-0.1l0,0c-0.1,0-9.7,4.3-18.6,3.3
			c-2.4-0.3-4.8-0.7-6.8-1.1c-1.5-0.3-2.9-0.5-4.2-0.7l-0.4-0.1l0.2-0.4c0.8-1.8,2-3.5,3.1-4.9l0.1-0.1l0.1,0c2.2-0.3,4.6-0.2,6.9,0
			c3.8,0.2,7.4,0.5,10.2-1.2c2.3-1.4,3-4.7,2.1-9.8c-0.6-3.7-1.9-6.9-1.9-7.1C65.2,20.1,65,20,64.8,20l0-0.6c0.4,0,0.8,0.3,1,0.7
			c0.1,0.1,1.3,3.4,1.9,7.2c0.9,5.4,0.1,8.9-2.4,10.5c-3,1.8-6.7,1.6-10.6,1.3c-2.2-0.1-4.5-0.3-6.6,0c-0.9,1.3-2,2.7-2.7,4.3
			c1.2,0.2,2.4,0.4,3.8,0.7c2.1,0.4,4.4,0.8,6.8,1.1c8.8,1,18.2-3.2,18.3-3.3l0.1,0c6.5-2.4,9.8-1.2,11.5,0.2
			c1.6,1.3,2.3,3.4,1.9,5.8c1.3,0.4,2.6,0.9,3.8,1.5c0.3,0.1,0.5,0.4,0.6,0.6c0.1,0.3,0.1,0.6,0,0.9c-0.1,0.3-0.4,0.5-0.6,0.6
			c-0.3,0.1-0.6,0.1-0.9,0c-1.2-0.6-2.5-1-3.9-1.5c-1.1,1.1-3.1,1.6-5.8,1.7l-0.2,0c-3,0-6.5-0.6-9.3-1c-0.6-0.1-1.1-0.2-1.6-0.3
			c-3.7-0.6-9,0.9-13.4,2.2c0,0.4,0,0.9-0.1,1.3c-0.2,1-0.6,1.9-1.3,2.6c0.9,3.1,0.4,6.1-1.4,8c-1.2,1.3-2.9,2.1-4.9,2.3
			C48.3,66.7,48,66.7,47.7,66.7z M37.7,50c1.4,2.9,2.3,5.4,2.9,7.4c1.1,3.2,1.8,5.2,3.7,6.3c2.7,1.5,6,0.8,7.5-0.8
			c1.1-1.2,1.5-3.1,1.1-5.2c-0.9,0.3-1.8,0.5-2.8,0.5c-2.9,0-5.7-1.6-6.8-4c-0.4-0.8-0.7-1.6-0.9-2.4C40.3,51.5,38.7,51,37.7,50
			C37.8,50,37.8,50,37.7,50z M50.1,56.5c-2.2,0-4.4-1.2-5.3-3.1c-0.1-0.2-0.1-0.3-0.2-0.5l-0.4-0.8l0.8,0.5c0,0,0.1,0.1,0.1,0.1
			c1.1,0.5,2.3,0.8,3.5,0.8c0.4,0,0.9,0,1.3-0.1c0.4-0.1,0.9-0.2,1.4-0.2l0.3-0.1l0.1,0.3c0,0.1,0,0.1,0.1,0.2
			c0.4,0.6,0.8,1.3,1.1,2l0.1,0.3l-0.3,0.1c-0.1,0.1-0.2,0.1-0.4,0.2l0,0C51.7,56.4,50.9,56.5,50.1,56.5z M45.6,53.5
			c1.2,2,4.1,2.9,6.6,2l0.1,0.3l-0.1-0.3c0,0,0,0,0,0c-0.2-0.5-0.5-1.1-0.9-1.6c0,0,0-0.1-0.1-0.1c-0.4,0.1-0.8,0.1-1.1,0.2
			C48.6,54.3,47,54.1,45.6,53.5z M53.9,55.2l-0.2-0.5c-0.2-0.5-0.5-0.9-0.8-1.4l-0.2-0.4l0.4-0.1c0.1,0,0.2-0.1,0.4-0.1
			c0.3-0.1,0.6-0.2,0.9-0.3l0.4-0.1l0,0.5c0,0.3,0,0.5-0.1,0.7c-0.1,0.4-0.2,0.8-0.5,1.2L53.9,55.2z M53.6,53.3
			c0.1,0.2,0.2,0.4,0.3,0.5c0.1-0.1,0.1-0.3,0.1-0.4c0-0.1,0-0.1,0-0.2C53.9,53.2,53.8,53.2,53.6,53.3z M48.8,52.5
			c-1.1,0-2.1-0.2-3-0.7l-1.1-0.6l1.3,0c2.3-0.1,4.3-0.4,4.6-0.5l0.1,0l0,0c0,0,1.3-0.4,3.5-0.9l0.3-0.1l0.1,0.3
			c0.1,0.3,0.1,0.6,0.2,0.9l0,0.3l-0.3,0.1c-0.5,0.2-0.9,0.3-1.3,0.4c-1.3,0.4-2.5,0.6-3.3,0.7C49.5,52.5,49.2,52.5,48.8,52.5z
			 M47.6,51.8c0.7,0.1,1.5,0.1,2.3,0c0.7-0.1,1.9-0.3,3.2-0.7c0.3-0.1,0.6-0.2,1-0.3c0-0.1,0-0.2-0.1-0.3c-2,0.5-3.1,0.8-3.2,0.8
			l-0.1,0C50.4,51.4,49.2,51.6,47.6,51.8z M55.7,51l-0.1-0.4c0-0.2-0.1-0.5-0.2-0.7l-0.1-0.3l0.3-0.1c3.1-0.7,6.3-1.2,9.3-1.5
			c4-0.4,7.8-0.6,11.3-0.4l0.1,0l0.1,0c0.9,0.5,1.6,1,2.2,1.7l0.5,0.6l-0.8-0.1c-2.4-0.2-4.8-0.6-6.6-0.9c-0.6-0.1-1.1-0.2-1.7-0.3
			l0,0c-4.1-0.6-9.9,1-14,2.2L55.7,51z M56.1,50.1C56.2,50.1,56.2,50.1,56.1,50.1c0.3,0,0.6-0.1,0.9-0.2
			C56.8,49.9,56.5,50,56.1,50.1z M71.1,48.2c0.2,0,0.4,0.1,0.6,0.1c1.6,0.3,3.6,0.6,5.7,0.8c-0.4-0.3-0.8-0.6-1.3-0.9
			C74.5,48.1,72.9,48.1,71.1,48.2z M44.8,50.2c-0.2,0-0.5,0-0.7,0l-0.3,0l0-0.3c-0.3-1.6-0.1-3.2,0.4-4.9l0.1-0.3l0.3,0
			c1.4,0.2,2.9,0.5,4.5,0.7l0,0.3l0.1-0.3c1.1,0.2,2.4,0.4,3.8,0.7l0.2,0l0,0.2c0,0.1,0,0.1,0,0.1c0.4,0.6,0.7,1.2,0.9,1.8l0.1,0.3
			l-0.4,0.1c-1.9,0.4-3.1,0.8-3.4,0.9l0,0C49,50,46.9,50.2,44.8,50.2z M44.3,49.6c2.2,0,4.5-0.2,5.9-0.4c0.3-0.1,1.3-0.4,3-0.8
			c-0.2-0.5-0.4-0.9-0.7-1.4c0,0,0-0.1,0-0.1c-1.3-0.2-2.6-0.4-3.6-0.6l0,0c-1.5-0.3-2.9-0.5-4.2-0.7C44.2,46.9,44.1,48.2,44.3,49.6
			z M42.3,50.1L41.6,50c-1.2-0.2-2.1-0.6-2.7-1.1l0,0c-0.5-0.4-0.6-1-0.5-1.7c0.1-0.9,0.4-1.5,1-1.9c0.3-0.2,0.6-0.3,1-0.4l0.4-0.1
			l0,0.4c0,1.5,0.4,3,1.2,4.3L42.3,50.1z M39.4,48.4c0.4,0.3,0.9,0.6,1.7,0.8c-0.5-1.1-0.9-2.3-0.9-3.6c-0.1,0.1-0.3,0.1-0.4,0.2
			c-0.4,0.3-0.6,0.7-0.7,1.4C39,47.8,39.1,48.1,39.4,48.4L39.4,48.4z M80.8,49.9c-0.1,0-0.3,0-0.4,0l-0.2,0l-0.1-0.2
			c0,0,0-0.1,0-0.1c-0.3-0.4-0.6-0.9-1-1.3l-0.6-0.6l0.9,0.1c1.9,0.2,3.7,0.5,5.4,0.9l0.9,0.2l-0.8,0.4
			C83.9,49.7,82.6,49.9,80.8,49.9z M80.6,49.2c1.1,0,2.1-0.1,2.9-0.2c-1.1-0.2-2.2-0.4-3.4-0.5C80.3,48.7,80.4,49,80.6,49.2
			C80.6,49.2,80.6,49.2,80.6,49.2z M42.5,48.9l-0.5-1.6c-0.2-0.7-0.3-1.5-0.3-2.3l0-0.3l0.3,0c0.2,0,0.5,0,0.7,0l0.4,0l-0.1,0.4
			c-0.2,0.7-0.3,1.4-0.4,2.1L42.5,48.9z M55.1,48.6L55,48.4c-0.2-0.4-0.4-0.9-0.6-1.3l-0.3-0.5l0.6,0.1c0.4,0.1,0.8,0.1,1.2,0.1
			c3.6,0.4,7.7,0,12.1-1l0,0l0,0c0.4,0,1.5,0.1,3,0.3l0,0.6c-2,0.1-4,0.2-6.1,0.5c-3.1,0.4-6.3,0.9-9.5,1.6L55.1,48.6z M55.2,47.3
			c0.1,0.2,0.2,0.4,0.3,0.6c0.7-0.1,1.4-0.3,2.1-0.4c-0.6,0-1.2-0.1-1.8-0.1C55.6,47.3,55.4,47.3,55.2,47.3z M86.1,47.9l-0.3-0.1
			c-2.7-0.7-5.8-1.1-9.1-1.3l-0.1,0l-0.1,0c-1.1-0.5-2.3-1-3.8-1.3c-0.3-0.1-0.5-0.1-0.8-0.2l-1.2-0.2l1.1-0.4
			c1.7-0.6,2.8-1.1,3-1.2c4.5-1.6,8-1.7,9.8-0.1c1.2,1,1.6,2.6,1.3,4.4L86.1,47.9z M76.8,45.9c3.2,0.2,6.1,0.6,8.8,1.2
			c0.2-1.4-0.2-2.7-1.1-3.4c-1.7-1.4-5-1.4-9.2,0.2c-0.1,0.1-0.9,0.4-2,0.8C74.6,45,75.8,45.4,76.8,45.9z M43.5,43.8l-0.2,0
			c-0.4,0-0.8,0-1.1,0l-0.4,0l0.1-0.4c0.5-2.1,1.8-3.7,3.6-4.3l0.9-0.3l-0.5,0.7c-1,1.5-1.7,2.8-2.3,4.1L43.5,43.8z M42.6,43.1
			c0.2,0,0.3,0,0.5,0c0.4-1,0.9-2,1.6-3C43.7,40.7,43,41.8,42.6,43.1z"/>
	</g>
	<g>
		<path class="st1" d="M84.7,49.8"/>
	</g>
</g>
</svg>
