<?xml version="1.0" encoding="utf-8"?>
<!-- Generator: Adobe Illustrator 20.0.0, SVG Export Plug-In . SVG Version: 6.00 Build 0)  -->
<svg version="1.1" id="Layer_3" xmlns="http://www.w3.org/2000/svg" xmlns:xlink="http://www.w3.org/1999/xlink" x="0px" y="0px"
	 width="89px" height="50px" viewBox="0 0 89 50" style="enable-background:new 0 0 89 50;" xml:space="preserve">
<style type="text/css">
	.st0{fill:#E8EAEA;}
	.st1{fill:#ABABAB;}
</style>
<g>
	<path class="st0" d="M87.7,11.3c-4.7-3-5.5-4-5.5-4c-1.4,6.8-6.8,13.3-6.8,13.3c-0.1,0.1-5.3,8.2-6.4,10.7c-2.7,5.9-6.5,3-8.5,1.8
		l-1.7,2.3c1.3,0.8,5.8,1.6,6.1,1.7c0.3,0.1,2.6,0,4.4-2.3c1.6-2.1,8.4-10.4,9.1-11.2c0.7-0.4,6.8-2.8,9.3-10.2
		C87.9,13.1,88.4,11.7,87.7,11.3z"/>
</g>
<g>
	<g>
		<path class="st1" d="M63.7,35.1c0.2,0.1,0.3,0.1,0.4,0.1c0.3,0.1,2.4,0.8,3.9-1.8c1.3-2.3,6.9-11.6,7.5-12.5
			c0.7-0.5,5.8-4.8,7.1-12.5c0.2-0.3,0.7-1.3,0.1-1.8C76.6,1,70.2,0.3,70.2,0.3c-0.5-0.1-1,0.3-1.4,0.9c0,0,0,0,0,0
			c-0.3-0.1-0.6-0.1-0.9,0.1c-6.5,4.2-7.4,11.3-7.5,12.3c-0.7,1.1-7.6,11.9-8.2,12.8c-0.5,0.7-0.2,1.7,0.8,2.7
			c0.1,0.1,0.1,0.1,0.2,0.2l0.2,0.2c0.3,0.3,1.4,1,1.8,1.2l0.7-0.5c-0.3-0.2-1.7-1.1-1.9-1.3l-0.1-0.1c-0.1-0.1-0.1-0.1-0.2-0.2
			c-0.2-0.2-1.1-1.1-0.7-1.7c0.6-1,8.1-12.8,8.2-12.9l0.1-0.1l0-0.1c0-0.1,0.6-7.6,7.2-11.8c0.1,0,0.1,0,0.2,0c0,0,0,0,0,0
			c0.4,0.1,0.8,0,1-0.3c0.2-0.4,0.4-0.6,0.6-0.6c0.1,0,6.3,0.8,12.1,6.2c0.1,0.1,0,0.5-0.3,0.8l0,0.1l0,0.1
			c-1.4,7.8-6.9,12.1-6.9,12.1l-0.1,0l0,0.1c-0.1,0.1-6.2,10.2-7.5,12.6c-1.2,2.1-2.8,1.4-2.9,1.4l0,0l0,0c0,0-1.2-0.5-3.3-1.5
			l-0.7,0.7C61.7,34.2,63.3,34.9,63.7,35.1z"/>
	</g>
	<g>
		<path class="st1" d="M53.7,30"/>
	</g>
	<g>
		<path class="st1" d="M56.1,31.6"/>
	</g>
	<g>
		<path class="st1" d="M73.9,19.7l-0.5-1.1c-0.1-0.2-0.1-0.5,0.1-0.7c4.5-5.7,5.3-8.7,5.5-9.5l0,0c0-0.2,0.1-0.3,0.3-0.4
			C79.4,8,79.6,7.9,79.7,8l1.2,0.4c0.2,0.1,0.4,0.3,0.3,0.5c-1.3,5.6-5.2,9.8-6.3,10.9C74.7,20,74.5,20,74.3,20c0,0-0.1,0-0.1,0
			C74.1,19.9,74,19.8,73.9,19.7z M79.7,8.8c-0.3,1.2-1.3,4.2-5.5,9.5l0.4,0.7c1.1-1.1,4.6-5,5.9-10L79.7,8.8z M79.7,8.6L79.7,8.6
			L79.7,8.6L79.7,8.6z M80.4,8.8C80.4,8.8,80.4,8.8,80.4,8.8C80.4,8.8,80.4,8.8,80.4,8.8z"/>
	</g>
	<g>
		<path class="st1" d="M61.6,13.3c-0.1-0.2-0.1-0.4-0.1-0.5C62,11.3,64,6.1,68.3,2.6c0.2-0.2,0.5-0.1,0.6,0l0.8,0.8
			c0.1,0.1,0.2,0.3,0.2,0.5c0,0.2-0.1,0.3-0.2,0.5l0,0c-0.6,0.5-2.8,2.4-5.9,8.8c-0.1,0.2-0.3,0.4-0.6,0.4l-1.2,0
			c-0.1,0-0.1,0-0.2,0C61.8,13.5,61.7,13.4,61.6,13.3z M69,3.9l-0.5-0.5c-3.8,3.2-5.7,7.9-6.2,9.3l0.7,0C66,6.9,68.1,4.7,69,3.9z
			 M68.8,3.2C68.8,3.2,68.8,3.2,68.8,3.2C68.8,3.2,68.8,3.2,68.8,3.2z"/>
	</g>
	<g>
		<path class="st1" d="M62.2,26.7c0.6,0.2,1.3,0,2-0.6c0.1-0.1,0.1-0.3,0-0.4c-0.1-0.1-0.3-0.1-0.4,0c-0.5,0.5-1.1,0.6-1.5,0.4
			c-0.5-0.3-0.6-1-0.4-1.8c0-0.2,0-0.3-0.2-0.4c-0.2,0-0.3,0-0.4,0.2c-0.3,1.1-0.1,2.1,0.7,2.5C62,26.6,62.1,26.6,62.2,26.7z"/>
	</g>
	<g>
		<path class="st1" d="M61.5,24.1"/>
	</g>
	<g>
		<path class="st1" d="M62.6,22.5"/>
	</g>
	<g>
		<path class="st1" d="M64.5,25.3c0.1,0,0.3,0,0.4-0.1c0.3-0.6,0.5-1.3,0.5-1.9c-0.1-0.6-0.3-1.1-0.8-1.4c-0.6-0.3-1.4-0.2-2.1,0.4
			c-0.1,0.1-0.1,0.3,0,0.4c0.1,0.1,0.3,0.2,0.4,0c0.5-0.4,1.1-0.5,1.4-0.3c0.3,0.2,0.5,0.5,0.5,0.9c0,0.5-0.1,1-0.4,1.5
			C64.3,25,64.3,25.2,64.5,25.3C64.5,25.3,64.5,25.3,64.5,25.3z"/>
	</g>
	<g>
		<path class="st1" d="M61.2,27.9c-1.4-0.8-1.6-3.1-0.5-5.1c0.5-1,1.3-1.7,2.2-2.2c0.9-0.5,1.8-0.5,2.5-0.1c0.7,0.4,1.1,1.2,1.2,2.2
			c0.1,1-0.2,2-0.7,3c-1.1,1.9-2.9,2.9-4.3,2.4C61.4,28.1,61.3,28,61.2,27.9z M63.1,21.2c-0.7,0.4-1.4,1.1-1.9,1.9
			c-1,1.7-0.9,3.7,0.3,4.3c1.1,0.6,2.8-0.3,3.8-2c0.5-0.9,0.7-1.8,0.7-2.6c-0.1-0.8-0.4-1.4-0.9-1.7C65,21,64.9,21,64.8,21
			C64.3,20.8,63.7,20.9,63.1,21.2z"/>
	</g>
	<g>
		<path class="st1" d="M66,34.8l0.7-0.3c-0.1-0.2-1.5-3.7-7.3-6.4c-5.6-2.7-7-1.9-7.3-1.7l0.5,0.6l0,0c0,0,1.3-0.6,6.4,1.8
			C64.6,31.3,66,34.7,66,34.8z"/>
	</g>
	<g>
		<path class="st1" d="M72.1,9.5L72.1,9.5c-0.5-0.3-0.6-0.9-0.4-1.3l1.7-2.9c0.1-0.2,0.3-0.4,0.6-0.5s0.5,0,0.7,0.1
			c0.2,0.1,0.4,0.3,0.5,0.6c0.1,0.3,0,0.5-0.1,0.7l-1.7,2.9c-0.1,0.2-0.3,0.4-0.6,0.5c-0.2,0.1-0.4,0-0.6,0
			C72.2,9.6,72.1,9.6,72.1,9.5z M72.2,9.3L72.2,9.3L72.2,9.3z M74.1,5.4c-0.1,0-0.2,0.1-0.2,0.2l-1.7,2.9c-0.1,0.2,0,0.4,0.1,0.5
			l0,0c0.1,0.1,0.2,0.1,0.3,0c0.1,0,0.2-0.1,0.2-0.2l1.7-2.9c0-0.1,0.1-0.2,0-0.3c0-0.1-0.1-0.2-0.2-0.2c0,0,0,0-0.1,0
			C74.3,5.3,74.2,5.3,74.1,5.4z"/>
	</g>
	<g>
		<path class="st1" d="M69.3,14.5L69.3,14.5c-0.5-0.3-0.6-0.9-0.4-1.3l1.7-2.9c0.3-0.5,0.9-0.6,1.3-0.4c0.2,0.1,0.4,0.3,0.5,0.6
			c0.1,0.3,0,0.5-0.1,0.7l-1.7,2.9c-0.2,0.4-0.7,0.6-1.2,0.4C69.4,14.5,69.3,14.5,69.3,14.5z M69.4,14.2L69.4,14.2L69.4,14.2z
			 M71.1,10.5l-1.7,2.9c-0.1,0.2,0,0.4,0.1,0.5c0.2,0.1,0.4,0,0.5-0.1l1.7-2.9c0-0.1,0.1-0.2,0-0.3c0-0.1-0.1-0.2-0.2-0.2
			c0,0,0,0-0.1,0C71.4,10.3,71.2,10.3,71.1,10.5z"/>
	</g>
	<g>
		<path class="st1" d="M55.6,24.5c0.1,0.1,0.3,0,0.4-0.2c0.6-1.5,5.3-8,5.3-8c0.1-0.1,0.1-0.3-0.1-0.4c-0.1-0.1-0.3-0.1-0.4,0.1
			c-0.2,0.3-4.7,6.6-5.4,8.1C55.4,24.3,55.5,24.4,55.6,24.5C55.6,24.5,55.6,24.5,55.6,24.5z"/>
	</g>
	<g>
		<g>
			<path class="st1" d="M57.3,37.4c0.6,0,1-0.1,1.3-0.5c0,0,0.4-1,0.9-1.8c0.5-1.1,1.1-1.6,1.6-2c0.3-0.3,0.6-0.5,0.8-0.8L62,32
				l-0.1-0.1c0,0,0-0.1-0.1-0.1c-0.2-0.4-0.8-1.4-2.4-1.4l-0.1,0l-0.1,0.1c0,0-0.4,0.9-1,1.7c-0.5,0.8-1.1,1.6-1.9,2.4
				c-0.1,0.1-0.1,0.1-0.2,0.2c-0.3,0.3-0.7,0.6-0.6,1.2c0,0.3,0.2,0.6,0.4,0.8l0.3-0.3c-0.1-0.1-0.2-0.3-0.2-0.5
				c0-0.3,0.2-0.5,0.5-0.8c0.1-0.1,0.1-0.1,0.2-0.2c0.8-0.7,1.4-1.6,1.9-2.4c0.4-0.7,0.8-1.4,0.9-1.6c1.2,0,1.7,0.8,1.9,1.1
				c-0.2,0.2-0.4,0.4-0.7,0.7c-0.5,0.5-1.2,1-1.7,2.2c-0.4,0.9-0.9,1.8-0.9,1.8c-0.2,0.3-0.6,0.3-0.8,0.3L57.3,37.4z"/>
		</g>
		<g>
			<path class="st1" d="M57.8,37l0.4,0c0,0-0.1-0.9-0.8-1.4c-0.4-0.3-1-0.3-1.6-0.1l0.1,0.4c0.5-0.2,0.9-0.2,1.3,0
				C57.7,36.3,57.8,37,57.8,37z"/>
		</g>
		<g>
			<g>
				<path class="st1" d="M13.2,44.9C5.6,41.7,2.7,36.2,1.6,32.2c-1.4-5-0.4-9-0.4-9.1l0-0.1c0.6-2.3,1.8-4.5,3.4-6.3
					c3.2-3.5,7.9-5.6,14-6.5l0.3,0l0.3,1.9l-0.3,0C7.4,13.8,4.1,20,3.2,23.5l0,0.1c0,0-0.8,3.6,0.4,8.1c1.4,5.2,4.9,9.1,10.4,11.4
					c13.3,5.6,21.7,4.6,21.8,4.6l0,0c8.2-0.8,10.9-2.6,14.7-5.6c2.5-2,5.6-6.2,6-6.6c0.1-0.1,0.3-0.1,0.4-0.1c0.4,0,0.9,0.3,1.1,0.6
					l0.1,0.2c0,0,0.1,0.1,0.1,0.2c0,0.1,0,0.2-0.1,0.3c-0.4,0.5-3.6,4.9-6.4,7.1c-4.1,3.2-7.2,5.2-15.7,6c-0.7,0.1-7.1,0.8-17.7-2.8
					C16.6,46.2,14.9,45.6,13.2,44.9z M57.4,36.3c-0.1-0.2-0.3-0.3-0.6-0.4c-0.7,1-3.6,4.8-6,6.7c-3.9,3.1-6.6,5-15,5.7
					c-0.1,0-8.6,1-22.1-4.7C8,41.2,4.4,37.2,3,31.8c-1.2-4.6-0.4-8.3-0.4-8.4l0-0.1c0.9-3.6,4.3-10,16-11.8l-0.1-0.7
					c-5.9,0.9-10.4,3-13.4,6.3c-1.6,1.8-2.7,3.8-3.3,6l0,0.1c0,0-0.9,3.9,0.4,8.8c1.1,3.9,3.9,9.2,11.2,12.3c1.7,0.7,3.4,1.4,5,1.9
					c10.7,3.6,17.2,2.8,17.5,2.8c8.4-0.8,11.4-2.7,15.4-5.9C53.8,41.1,56.8,37.2,57.4,36.3L57.4,36.3z"/>
			</g>
		</g>
		<g>
			<path class="st1" d="M54.6,35.2l-0.8-0.6c-0.1-0.1-0.1-0.1-0.1-0.2s0-0.2,0.1-0.3c0.4-0.5,0.6-0.9,0.7-0.9
				c0.1-0.8,0.4-1.2,0.6-1.4c-0.1-0.2-0.1-0.4-0.1-0.8c0-0.5,0.6-1.3,1.2-1.9c0.2-0.2,0.4-0.2,0.6-0.2c1.3,0.3,2,1.2,2.1,1.4
				c0.1,0.1,0.2,0.4,0,0.9c-0.3,0.7-1.3,1.7-2.1,1.7c-0.2,0.6-0.8,1-1,1.1L55,35.1c0,0.1-0.1,0.1-0.2,0.1
				C54.8,35.3,54.7,35.3,54.6,35.2C54.6,35.2,54.6,35.2,54.6,35.2z M54.9,34.8C54.9,34.8,54.9,34.8,54.9,34.8L54.9,34.8z M56.6,29.4
				c-0.1,0-0.2,0-0.2,0c-0.6,0.7-1.1,1.3-1.1,1.6c0,0.4,0.1,0.7,0.2,0.7c0.1,0.1,0,0.2-0.1,0.3c0,0,0,0,0,0
				c-0.1,0.1-0.4,0.3-0.5,1.1c0,0.1,0,0.2-0.7,1.1l0.6,0.4l0.6-1l0.1,0c0,0,0.7-0.4,0.8-0.9c0-0.2,0.2-0.3,0.4-0.3
				c0.6,0.1,1.5-0.7,1.8-1.4c0.1-0.2,0.1-0.4,0.1-0.4l0-0.1c0,0-0.5-0.8-1.5-1.1C56.8,29.4,56.7,29.4,56.6,29.4z M56.5,32.9
				L56.5,32.9L56.5,32.9z M56.7,32.8C56.7,32.8,56.7,32.8,56.7,32.8C56.7,32.8,56.7,32.8,56.7,32.8z M55.1,31.9
				C55.1,31.9,55.1,31.9,55.1,31.9C55.1,31.9,55.1,31.9,55.1,31.9z"/>
		</g>
		<g>
			<g>
				<path class="st1" d="M17.1,40.6c-3.6-2.4-5.4-5.7-5.6-10.4c-0.1-3.1,1.1-5.9,3.7-8c4.2-3.6,11.3-4.8,15.5-3.9
					c4,0.9,12.7,5.9,14.2,12.1c0.8,3.1-0.3,5.9-3.1,8.4l0,0c-0.1,0.1-1.9,1.4-5.2,1c-3.1-0.3-5.6-2.7-5.9-5.7
					c-0.2-2,0.5-3.8,2.1-5.3l0.1-0.1c1.9-1.9,1.7-4.3,0.9-5.9c-1-2-3.2-3-5.4-2.6c-2.4,0.4-4.8,1.9-7.1,4.4
					c-1.8,1.9-2.5,3.8-2.2,5.6c0.2,1.1,1.2,3.9,6.1,6.5c0.3,0.2,0.7,0.1,0.9-0.1c0,0,0.1-0.1,0.1-0.2c0-0.1-0.1-0.3-0.4-0.5
					c-0.3-0.2-0.6-0.5-1-0.8c-2.1-1.7-5.3-4.2-4.1-6.5c0.1-0.1,0.2-0.3,0.4-0.3c0.2,0,0.3,0,0.5,0.1c0.3,0.2,0.4,0.6,0.3,0.9
					c-0.4,1.3,2.3,3.6,3.8,4.7c0.4,0.3,0.7,0.6,1,0.8c0.5,0.5,0.8,1,0.8,1.5c0,0.3-0.1,0.7-0.5,1.1c-0.6,0.6-1.6,0.7-2.4,0.3
					c-1.8-0.9-6.1-3.5-6.8-7.4c-0.4-2.2,0.5-4.5,2.6-6.7c1.9-2,3.9-3.5,5.9-4.2c-3.1,0.3-7.1,1.4-10,3.8c-2.3,1.9-3.4,4.3-3.2,7
					c0.2,4.2,1.8,7.2,5,9.4c2.8,1.9,7,3.2,13.9,4.5c6,1.1,11.7-1.6,15.4-4c4.1-2.7,6.7-5.7,6.7-5.7l0.1-0.1l1.1,0.7l-0.2,0.2
					c-0.1,0.1-2.8,3.2-7,6c-5.6,3.7-11.3,5.2-16.4,4.2c-3.8-0.7-6.8-1.4-9.1-2.2C20.2,42.4,18.5,41.6,17.1,40.6z M54,34.7
					c-0.6,0.6-3,3.3-6.7,5.7c-3.8,2.5-9.6,5.2-15.7,4.1c-7-1.3-11.2-2.7-14.1-4.6c-3.4-2.2-5-5.3-5.2-9.7c-0.1-2.9,1-5.3,3.4-7.3
					c3.6-3,8.8-4.1,12.2-4l0,0.4c-2.5,0.5-5,2-7.4,4.6c-2,2.1-2.8,4.2-2.4,6.3c0.6,3.7,4.8,6.2,6.5,7.1c0.6,0.3,1.4,0.2,1.9-0.2
					c0.3-0.3,0.4-0.6,0.4-0.8c0-0.4-0.2-0.7-0.7-1.1c-0.3-0.2-0.6-0.5-1-0.8c-1.8-1.4-4.5-3.6-4-5.2c0-0.2,0-0.3-0.1-0.4
					c0,0-0.1,0-0.1,0c0,0-0.1,0-0.1,0.1c-1,1.9,2,4.3,4,5.9c0.3,0.3,0.7,0.6,1,0.8c0.3,0.3,0.5,0.6,0.5,0.8c0,0.2-0.1,0.3-0.2,0.5
					c-0.4,0.3-0.9,0.4-1.4,0.2c-5.1-2.6-6.1-5.6-6.3-6.8c-0.3-1.9,0.5-3.9,2.3-6c2.4-2.6,4.9-4.1,7.4-4.5c2.4-0.4,4.7,0.7,5.9,2.9
					c0.9,1.7,1.1,4.3-1,6.4L32.9,29c-1.5,1.5-2.1,3.1-1.9,5c0.3,2.8,2.6,5,5.5,5.3c3.2,0.3,4.8-0.9,4.9-0.9l0,0c2.7-2.4,3.7-5,3-7.9
					c-1.5-6-10-10.9-13.9-11.7c-4-0.9-10.9,0.4-15.1,3.8c-2.4,2.1-3.7,4.7-3.5,7.7c0.2,4.5,1.9,7.7,5.4,10c1.4,0.9,3.1,1.7,5.2,2.4
					c2.3,0.8,5.3,1.5,9,2.2c5,0.9,10.6-0.5,16.1-4.2c3.6-2.4,6.1-5,6.8-5.8L54,34.7z M31.4,34c-0.2-1.7,0.4-3.3,1.8-4.6l0.1-0.1
					c1.8-1.9,2.2-4.6,1-6.9c-0.4-0.8-1-1.5-1.7-2l-1.5-1.1l1.8,0.8c3.8,1.6,9.9,5.8,11.2,10.6c0.7,2.7-0.3,5.2-2.9,7.5l0,0
					c-0.2,0.1-1.8,1.1-4.6,0.9c-0.5,0-0.9-0.1-1.3-0.3C33.2,37.9,31.6,36.1,31.4,34z M43.6,30.7c-1.1-4.1-5.9-7.8-9.6-9.7
					c0.3,0.4,0.6,0.8,0.8,1.2c1.3,2.5,0.9,5.4-1.1,7.4l-0.1,0.1c-1.3,1.3-1.9,2.7-1.7,4.3c0.3,2.4,2.2,4.3,4.7,4.5
					c2.7,0.3,4.2-0.7,4.3-0.8C43.3,35.6,44.2,33.2,43.6,30.7z"/>
			</g>
		</g>
		<g>
			<path class="st1" d="M27.7,15.7c-0.6-0.2-1.1-0.7-1.3-1.3c-0.3-0.6-0.3-1.2,0-1.8l0.2-0.6c0.3-0.7,0.8-1.3,1.5-1.6
				c0.7-0.3,1.5-0.3,2.2,0l8.3,3.3l-2.2,5.5L27.7,15.7z M30.1,10.9c-0.6-0.2-1.2-0.2-1.7,0s-1,0.7-1.2,1.2L27,12.8
				c-0.2,0.4-0.2,0.9,0,1.4c0.2,0.4,0.5,0.8,1,1l8.2,3.2l1.7-4.4L30.1,10.9z"/>
		</g>
		<g>
			<path class="st1" d="M36.2,18.2l1.6-4l1.4,0.5l-1.6,4L36.2,18.2z M38.1,14.9L37,17.8l0.3,0.1l1.2-2.9L38.1,14.9z"/>
		</g>
		<g>
			<path class="st1" d="M19.1,12.3c0.1,0,0.2,0,0.2,0c0.9,0,4.3,0,7.1,1.5l0.3-0.5c-2.9-1.5-6.1-1.6-7.4-1.5c-0.1,0-0.1,0-0.1-0.1
				l-0.1-1c0-0.1,0-0.1,0-0.2c0,0,0.1-0.1,0.1-0.1c3.8-0.3,7.6,1.3,7.6,1.3l0.2-0.6c-0.2-0.1-4-1.7-7.9-1.4c-0.2,0-0.4,0.1-0.6,0.3
				c-0.1,0.2-0.2,0.4-0.2,0.6l0.1,1C18.6,12,18.8,12.2,19.1,12.3z"/>
		</g>
		<g>
			<path class="st1" d="M25.1,13l0.6,0c0.1-1.1,0.5-1.7,0.5-1.7l-0.5-0.4C25.7,11,25.2,11.6,25.1,13z"/>
		</g>
		<g>
			<path class="st1" d="M24.1,12.7l0.6,0c0.1-1.1,0.5-1.7,0.5-1.7l-0.5-0.4C24.6,10.7,24.2,11.3,24.1,12.7z"/>
		</g>
		<g>
			<path class="st1" d="M23,12.4l0.6,0c0.1-1.1,0.5-1.7,0.5-1.7l-0.5-0.4C23.6,10.4,23.1,11,23,12.4z"/>
		</g>
		<g>
			<path class="st1" d="M22.1,12.1l0.6,0c0-1.1,0.4-1.8,0.4-1.8L22.5,10C22.5,10.1,22.1,10.8,22.1,12.1z"/>
		</g>
		<g>
			<path class="st1" d="M21,12.1l0.6,0c-0.1-1.1,0.3-1.8,0.3-1.8L21.3,10C21.3,10,20.9,10.8,21,12.1z"/>
		</g>
		<g>
			<path class="st1" d="M19.9,12.1l0.6-0.1c-0.3-1.1,0-1.8,0-1.8L19.9,10C19.9,10,19.6,10.8,19.9,12.1z"/>
		</g>
		<g>
			<path class="st1" d="M29.1,15.2l0.6-1.6l5.4,2.1l-0.6,1.6L29.1,15.2z M30.1,14.4l-0.2,0.5l4.3,1.7l0.2-0.5L30.1,14.4z"/>
		</g>
		<g>
			<path class="st1" d="M27.7,12.8C27.7,12.8,27.7,12.8,27.7,12.8c0.1,0,0.2,0,0.3-0.1c0.2-0.7,0.7-1,1.5-0.9c0.3,0,0.6,0.1,0.9,0.2
				l1.7,0.8c0.1,0,0.2,0,0.3-0.1c0.1-0.1,0-0.2-0.1-0.3l-1.7-0.8c-0.3-0.2-0.7-0.2-1-0.3c-1-0.1-1.7,0.3-2,1.2
				C27.5,12.7,27.6,12.8,27.7,12.8z"/>
		</g>
	</g>
</g>
</svg>
