<?xml version="1.0" encoding="utf-8"?>
<!-- Generator: Adobe Illustrator 20.0.0, SVG Export Plug-In . SVG Version: 6.00 Build 0)  -->
<svg version="1.1" id="Layer_3" xmlns="http://www.w3.org/2000/svg" xmlns:xlink="http://www.w3.org/1999/xlink" x="0px" y="0px"
	 width="64px" height="59px" viewBox="0 0 64 59" style="enable-background:new 0 0 64 59;" xml:space="preserve">
<style type="text/css">
	.st0{fill:#E8EAEA;}
	.st1{fill:#ABABAB;}
</style>
<g>
	<g>
		<ellipse class="st0" cx="32" cy="56.9" rx="24" ry="1.5"/>
	</g>
	<g>
		<path class="st1" d="M61.4,42.7H2.6c-1.4,0-2.6-1.2-2.6-2.6V3.1c0-1.4,1.2-2.6,2.6-2.6h58.8c1.4,0,2.6,1.2,2.6,2.6v36.9
			C64,41.5,62.8,42.7,61.4,42.7z M2.6,1.3c-1,0-1.9,0.8-1.9,1.9v36.9c0,1,0.8,1.9,1.9,1.9h58.8c1,0,1.9-0.8,1.9-1.9V3.1
			c0-1-0.8-1.9-1.9-1.9H2.6z"/>
	</g>
	<g>
		<path class="st1" d="M61.1,37.9H3V3.5h58.1V37.9z M3.7,37.2h56.7v-33H3.7V37.2z"/>
	</g>
	<g>
		<g>
			<path class="st1" d="M45.5,55.8h-27v-2.2l4.5-3.3c3.5-2.7,3.2-7.9,3.2-7.9l0.7-0.1c0,0.2,0.4,5.7-3.5,8.6l-4.2,3.1v1.1h25.6v-1.2
				c-0.5-0.4-2.2-1.8-3.7-3.1c-1.8-1.5-3-2.7-4-8.5l0.7-0.1c0.9,5.6,2,6.6,3.7,8c1.8,1.4,3.8,3.2,3.8,3.2l0.1,0.1V55.8z"/>
		</g>
		<g>
			<rect x="18.9" y="53.4" class="st1" width="26.3" height="0.7"/>
		</g>
		<g>
			<path class="st1" d="M42.7,52.8"/>
		</g>
		<g>
			<path class="st1" d="M40.8,52.4c-0.6-0.4-1.2-0.8-1.8-1.4l0.5-0.5c0.5,0.5,1,1,1.6,1.3L40.8,52.4z"/>
		</g>
		<g>
			<path class="st1" d="M39.3,50.8"/>
		</g>
		<g>
			<path class="st1" d="M37.4,48.6c-1.7-2.9-1.7-6.1-1.7-6.2h0.7c0,0,0,3.1,1.6,5.9L37.4,48.6z"/>
		</g>
	</g>
	<g>
		<rect x="0.3" y="37.2" class="st1" width="2.9" height="0.7"/>
	</g>
	<g>
		<rect x="60.7" y="37.2" class="st1" width="2.9" height="0.7"/>
	</g>
	<g>
		<path class="st1" d="M29.9,40.3"/>
	</g>
	<g>
		<g>
			<path class="st1" d="M30.8,40.2c-0.1,0-0.3-0.1-0.3-0.2c0-0.1,0-0.1,0-0.2c0-0.8,0.7-1.5,1.5-1.5c0.3,0,0.6,0.1,0.8,0.2
				c0.1,0.1,0.2,0.2,0.1,0.4c-0.1,0.1-0.2,0.2-0.4,0.1c-0.2-0.1-0.3-0.1-0.5-0.1c-0.6,0-1,0.4-1,1c0,0,0,0.1,0,0.1
				C31.1,40,31,40.2,30.8,40.2C30.8,40.2,30.8,40.2,30.8,40.2z"/>
		</g>
		<g>
			<path class="st1" d="M30.8,39.9"/>
		</g>
		<g>
			<path class="st1" d="M32.1,41.3c-0.3,0-0.6-0.1-0.9-0.3c-0.1-0.1-0.2-0.2-0.1-0.4c0.1-0.1,0.2-0.2,0.4-0.1
				c0.2,0.1,0.4,0.2,0.6,0.2c0.6,0,1-0.4,1-1c0,0,0-0.1,0-0.1c0-0.1,0.1-0.3,0.2-0.3c0.1,0,0.3,0.1,0.3,0.2c0,0.1,0,0.1,0,0.2
				C33.6,40.6,32.9,41.3,32.1,41.3z"/>
		</g>
		<g>
			<path class="st1" d="M33.3,39.6"/>
		</g>
		<g>
			<path class="st1" d="M33.2,39.2"/>
		</g>
		<g>
			<path class="st1" d="M33,38.9"/>
		</g>
	</g>
	<g>
		<path class="st1" d="M47.3,15.1C47.2,15.1,47.2,15.1,47.3,15.1c-0.2-0.1-0.3-0.1-0.1-1.2l-0.6,0.2c-0.1,0-0.1,0-0.2,0l-0.9-0.8
			l-1.2,1.1c-0.1,0.1-0.2,0.1-0.2,0l-0.6-0.5l-1.1,0.5c-0.1,0-0.1,0-0.2,0l-1.1-1L40.5,14c0,0-0.1,0.1-0.2,0.1l-1.4-0.3l-1.5,1.2
			c0,0-0.1,0-0.2,0c-0.1,0-0.1-0.1-0.1-0.1l-0.4-1.1l-1.3,0.7c-0.1,0-0.2,0-0.2-0.1l-0.6-1.1L33.6,14c-0.1,0.1-0.2,0.1-0.2,0
			l-0.9-0.8l-1.1,0.8c-0.1,0.1-0.2,0-0.2,0l-0.6-0.8l-0.7,0.9c0,0-0.1,0.1-0.2,0.1c-0.1,0-0.1,0-0.1-0.1l-0.5-0.9l-1.3,1
			c-0.1,0-0.1,0-0.2,0c-0.1,0-0.1-0.1-0.1-0.2v-1.8l-0.8,1.2c0,0-0.1,0.1-0.1,0.1c-0.4,0.1-1.3,0.2-1.6,0c-0.1-0.1-0.6,0.1-1.1,0.4
			c0,0-0.1,0-0.1,0l-1.6-0.3L21.5,14c-0.1,0-0.2,0-0.2-0.1L21,13.4c-0.1,0.2-0.3,0.5-0.5,0.6c-0.1,0.1-0.2,0.1-0.2,0
			c-0.1,0-0.3-0.1-0.4-1.3l-1.1,1.5c0,0.1-0.1,0.1-0.2,0.1c-0.1,0-0.1-0.1-0.1-0.1L18,12.6l-0.5,1.7c0,0.1-0.1,0.1-0.2,0.1
			c-0.1,0-0.1,0-0.2-0.1l-0.4-1L16.3,14c0,0-0.1,0.1-0.1,0.1c-0.1,0-0.1,0-0.1,0l-0.7-0.5l-1,0.5c-0.1,0-0.1,0-0.2,0
			c-0.3-0.1-1-0.5-1.3-0.6c-0.2,0-0.5,0.3-0.7,0.5c0,0-0.1,0.1-0.1,0.1h-0.7c0,0-0.1,0-0.1,0l-0.7-0.5L9.1,14c-0.1,0-0.1,0-0.2,0
			l-0.6-0.6H6.6L5,14c-0.1,0-0.1,0-0.2,0l-1.3-1.2c-0.1-0.1-0.1-0.2,0-0.3c0.1-0.1,0.2-0.1,0.3,0L5,13.7l1.5-0.6c0,0,0,0,0.1,0h1.8
			c0,0,0.1,0,0.1,0l0.6,0.5l1.4-0.6c0.1,0,0.1,0,0.2,0l0.7,0.6h0.5c0.2-0.2,0.6-0.7,1-0.6c0.3,0.1,1.1,0.4,1.3,0.6l1.1-0.6
			c0.1,0,0.1,0,0.2,0l0.6,0.5l0.5-0.8c0-0.1,0.1-0.1,0.2-0.1c0.1,0,0.1,0,0.1,0.1l0.3,0.9l0.6-1.8c0-0.1,0.1-0.1,0.2-0.1
			c0.1,0,0.1,0.1,0.2,0.1l0.5,1.7l1.2-1.6c0-0.1,0.1-0.1,0.2-0.1c0.1,0,0.1,0.1,0.1,0.2c0,0.5,0.1,1.1,0.2,1.4
			c0.1-0.2,0.3-0.4,0.4-0.6c0-0.1,0.1-0.1,0.2-0.1c0.1,0,0.1,0,0.2,0.1l0.4,0.6l0.6-0.3c0,0,0.1,0,0.1,0l1.6,0.3
			c0.4-0.2,1.1-0.6,1.4-0.3c0.1,0.1,0.7,0.1,1.2,0l1.1-1.6c0-0.1,0.1-0.1,0.2-0.1c0.1,0,0.1,0.1,0.1,0.2v2l1.2-0.9c0,0,0.1,0,0.1,0
			c0.1,0,0.1,0,0.1,0.1l0.5,0.9l0.6-0.9c0,0,0.1-0.1,0.1-0.1c0.1,0,0.1,0,0.1,0.1l0.6,0.8l1-0.8c0.1-0.1,0.2-0.1,0.2,0l0.9,0.8
			l0.9-0.8c0,0,0.1,0,0.1,0c0.1,0,0.1,0,0.1,0.1l0.6,1.1l1.4-0.7c0,0,0.1,0,0.1,0c0,0,0.1,0.1,0.1,0.1l0.4,1l1.4-1.1
			c0,0,0.1,0,0.2,0l1.4,0.3l0.7-0.8c0,0,0.1-0.1,0.1-0.1c0,0,0.1,0,0.1,0l1.1,1l1.1-0.5c0.1,0,0.1,0,0.2,0l0.6,0.5l1.2-1.1
			c0.1-0.1,0.2-0.1,0.2,0l0.9,0.9l0.8-0.3c0.1,0,0.1,0,0.2,0c0,0,0.1,0.1,0.1,0.2c0,0.2-0.1,0.5-0.1,0.7C47.7,13.8,48,13,48,13
			c0-0.1,0.1-0.1,0.1-0.1c0.1,0,0.1,0,0.2,0l0.7,0.5l0.9-0.5c0.1,0,0.1,0,0.2,0l0.8,0.4c0.8-0.2,1.3-0.3,1.4-0.1
			c0.1,0.1,0.1,0.2,0.1,0.3c0,0.1,0,0.2,0.1,0.3c0.1,0.1,0.2,0.2,0.2,0.2c0.1-0.1,0.2-0.4,0.3-0.5c0.2-0.5,0.3-0.7,0.6-0.7
			c0.1,0,0.2,0.1,0.2,0.3c0,0.4,0.3,1.1,0.5,1.5l0.7-1.1c0,0,0.1-0.1,0.1-0.1c0,0,0.1,0,0.1,0l0.9,0.6l0.3-0.9
			c0-0.1,0.1-0.1,0.1-0.1c0.1,0,0.1,0,0.2,0.1l0.8,1.2l0.8-0.7c0,0,0.1,0,0.1,0l1.1-0.2c0.1,0,0.1,0,0.2,0.1l0.9,1
			c0.1,0.1,0.1,0.2,0,0.3c-0.1,0.1-0.2,0.1-0.3,0l-0.8-0.9l-1,0.1l-0.9,0.8c0,0-0.1,0-0.1,0c-0.1,0-0.1,0-0.1-0.1l-0.7-1.1l-0.3,0.8
			c0,0.1-0.1,0.1-0.1,0.1c-0.1,0-0.1,0-0.2,0l-0.9-0.6L54.3,15c0,0.1-0.1,0.1-0.2,0.1c-0.1,0-0.1,0-0.2-0.1c0,0-0.5-1-0.6-1.6
			c0,0.1-0.1,0.2-0.1,0.3c-0.2,0.5-0.4,0.7-0.6,0.7c-0.2,0-0.4-0.2-0.5-0.3c-0.1-0.2-0.2-0.4-0.2-0.6c0,0,0,0,0,0
			c-0.2,0-0.6,0.1-1.1,0.2c0,0-0.1,0-0.1,0L50,13.3l-0.9,0.5c-0.1,0-0.1,0-0.2,0l-0.6-0.4c-0.2,0.4-0.5,1.2-0.8,1.6
			C47.4,15,47.3,15.1,47.3,15.1z"/>
	</g>
	<g>
		<path class="st1" d="M53.6,17.3C53.6,17.3,53.6,17.3,53.6,17.3c-0.1,0-0.1-0.1-0.2-0.1l-0.6-1.5l-0.6,0.8c0,0-0.1,0.1-0.1,0.1
			c-0.1,0-0.1,0-0.1-0.1l-0.4-0.6l-1,0.4c-0.1,0-0.1,0-0.2,0l-0.9-0.7l-0.9,0.5c-0.1,0-0.1,0-0.2,0l-0.6-0.4L47.4,17
			c0,0.1-0.1,0.1-0.2,0.1c-0.1,0-0.1,0-0.2-0.1l-0.5-1l-0.5,0.3c-0.1,0-0.2,0-0.2,0l-0.8-0.8l-1.1,1.1c-0.1,0.1-0.2,0.1-0.2,0
			l-0.6-0.5L42,16.6c-0.1,0-0.1,0-0.2,0l-1.1-1l-0.6,0.7c0,0-0.1,0.1-0.2,0.1L38.5,16l-1.1,0.9c-0.1,0.1-0.2,0.1-0.2,0L36.4,16
			L35,16.7c-0.1,0-0.2,0-0.2-0.1l-0.6-1.1l-0.9,0.7c-0.1,0.1-0.2,0.1-0.2,0l-0.9-0.8l-1.1,0.8c0,0-0.1,0-0.1,0c0,0-0.1,0-0.1-0.1
			l-0.6-0.7l-0.6,0.9c0,0.1-0.1,0.1-0.2,0.1c-0.1,0-0.1,0-0.1-0.1l-0.5-0.9l-1.3,1c0,0-0.1,0-0.2,0c-0.1,0-0.1,0-0.1-0.1L26.6,15
			l-0.8,1.4c0,0-0.1,0.1-0.1,0.1c-0.1,0-0.1,0-0.1,0l-0.8-0.7l-0.9,0.5c0,0-0.1,0-0.1,0l-1.6-0.3l-0.7,0.3c-0.1,0-0.2,0-0.2-0.1
			l-0.3-0.5l-0.4,0.6c0,0.1-0.1,0.1-0.2,0.1c-0.1,0-0.1-0.1-0.1-0.1L19.8,15l-0.7,1.7c0,0.1-0.1,0.1-0.2,0.1c-0.1,0-0.1,0-0.2-0.1
			L17.8,15l-0.4,1.7c0,0.1-0.1,0.1-0.2,0.1c0,0,0,0,0,0c-0.1,0-0.2-0.1-0.2-0.1l-0.2-0.9l-0.7,0.5c-0.1,0-0.1,0-0.2,0l-0.7-0.5
			l-1,0.5c-0.1,0-0.1,0-0.2,0l-1-0.9l-1,0.9c0,0-0.1,0-0.1,0h-0.7c0,0-0.1,0-0.1,0l-0.7-0.5l-1.4,0.6c-0.1,0-0.1,0-0.2,0l-0.6-0.6
			H6.6l-1.5,0.6c-0.1,0-0.1,0-0.2,0l-1.3-1.2c-0.1-0.1-0.1-0.2,0-0.3c0.1-0.1,0.2-0.1,0.3,0L5,16l1.5-0.6c0,0,0,0,0.1,0h1.8
			c0,0,0.1,0,0.1,0L9.1,16l1.4-0.6c0.1,0,0.1,0,0.2,0l0.7,0.6h0.5l1.1-1c0.1-0.1,0.2-0.1,0.2,0l1,0.9l1-0.5c0.1,0,0.1,0,0.2,0
			l0.6,0.5l0.8-0.5c0,0,0.1,0,0.2,0c0.1,0,0.1,0.1,0.1,0.1l0.1,0.4l0.3-1.5c0-0.1,0.1-0.1,0.1-0.1c0.1,0,0.1,0,0.2,0.1l1,1.8
			l0.8-1.8c0-0.1,0.1-0.1,0.2-0.1c0.1,0,0.1,0.1,0.2,0.1l0.3,1.3l0.4-0.5c0,0,0.1-0.1,0.2-0.1c0.1,0,0.1,0,0.1,0.1l0.4,0.6l0.6-0.3
			c0,0,0.1,0,0.1,0l1.6,0.3l0.9-0.6c0.1,0,0.1,0,0.2,0l0.7,0.6l0.9-1.5c0-0.1,0.1-0.1,0.2-0.1c0.1,0,0.1,0,0.2,0.1l0.8,1.6l1.3-1
			c0,0,0.1,0,0.1,0c0.1,0,0.1,0,0.1,0.1l0.5,0.9l0.6-0.9c0,0,0.1-0.1,0.1-0.1c0.1,0,0.1,0,0.1,0.1l0.6,0.8l1-0.8
			c0.1-0.1,0.2-0.1,0.2,0l0.9,0.8l0.9-0.8c0,0,0.1,0,0.1,0c0.1,0,0.1,0,0.1,0.1l0.6,1.1l1.3-0.7c0.1,0,0.2,0,0.2,0l0.7,0.8l1.1-0.9
			c0,0,0.1,0,0.2,0l1.4,0.3l0.7-0.8c0,0,0.1-0.1,0.1-0.1c0,0,0.1,0,0.1,0l1.1,1l1.1-0.5c0.1,0,0.1,0,0.2,0l0.6,0.5l1.2-1.1
			c0.1-0.1,0.2-0.1,0.2,0L46,16l0.5-0.4c0,0,0.1,0,0.1,0c0.1,0,0.1,0,0.1,0.1l0.4,0.8l0.4-1.2c0-0.1,0.1-0.1,0.1-0.1
			c0.1,0,0.1,0,0.2,0l0.7,0.5l0.9-0.5c0.1,0,0.1,0,0.2,0l0.9,0.7l1.1-0.4c0.1,0,0.2,0,0.2,0.1l0.3,0.5l0.7-0.9
			c0-0.1,0.1-0.1,0.2-0.1c0.1,0,0.1,0.1,0.1,0.1l0.5,1.5l0.6-1c0,0,0.1-0.1,0.1-0.1c0,0,0.1,0,0.1,0l0.9,0.6l0.3-0.9
			c0-0.1,0.1-0.1,0.1-0.1c0.1,0,0.1,0,0.2,0.1l0.8,1.2l0.8-0.7c0,0,0.1,0,0.1,0l1.1-0.2c0.1,0,0.1,0,0.2,0.1l0.9,1
			c0.1,0.1,0.1,0.2,0,0.3c-0.1,0.1-0.2,0.1-0.3,0l-0.8-0.9l-1,0.1l-0.9,0.8c0,0-0.1,0-0.1,0c-0.1,0-0.1,0-0.1-0.1l-0.7-1.1l-0.3,0.8
			c0,0.1-0.1,0.1-0.1,0.1c-0.1,0-0.1,0-0.2,0l-0.9-0.6l-0.7,1.2C53.8,17.3,53.7,17.3,53.6,17.3z"/>
	</g>
	<g>
		<path class="st1" d="M56.4,21.7l-1.2-0.7l-0.6,0.3l-0.2-0.4l-0.3,0.4l-0.6-0.3c-0.1,0.1-0.4,0.3-0.6,0.2c-0.1-0.1-0.3-0.3-0.5-0.4
			l-0.6,0.5l-0.5-0.5c-0.2,0.2-0.4,0.4-0.6,0.4c0,0,0,0,0,0c-0.1,0-0.1,0-0.2-0.1c-0.1-0.1-0.3-0.2-0.4-0.4l-0.5,0.5l-0.7-0.5
			l-0.8,0.8l-0.3-0.7l-0.8,0c-1,0.4-1.2,0.2-1.2,0.2c-0.1-0.1-0.2-0.3-0.3-0.4l-0.8,0.5l-0.5-0.5l-0.5,0.5L43,20.6l-0.9,0.5L42,21
			c-0.1,0-0.4-0.2-0.5-0.4c-0.1,0.1-0.1,0.2-0.2,0.3l0,0.1L40,21l-0.4-0.4l-0.7,0.5l-0.4-0.5l-0.6,0.5l-0.5-0.5l-0.7,0.5l-0.5-0.5
			L35.4,21l-0.6-0.5L34.2,21l-0.5-0.5L33,21l-1,0l-0.5-0.4L30.8,21l-1.8,0l-0.5-0.4l-0.7,0.9l-0.8-0.5l-0.7,0l-0.7-0.2L25,21.2
			l-0.7-0.7l-1,0.6l-1.1-0.4l-0.5,0.2l-1.1,0l-0.4-0.4L19.5,21l-0.1,0c-0.2,0-0.5,0-0.6,0c-0.1,0-0.4,0.2-0.5,0.3l-0.1,0.1l-0.5-0.6
			l-0.5,0.6L16.7,21l-1.1,0.3L15,20.7l-0.9,0.4l-0.5-0.2l-1,0.4l-0.9-0.4l-0.6,0.4l-0.9-0.4l-0.9,0.4l-0.8-0.4l-0.7,0.4l-0.5-0.4
			l-0.7,0.4L5,21l-1.2,0.2L3,20.7l0.2-0.3l0.7,0.4L5,20.6l1.4,0.2l0.8-0.4l0.5,0.4l0.7-0.4l0.9,0.4l0.9-0.4l0.8,0.4l0.6-0.4l0.9,0.4
			l1-0.4l0.4,0.2l1-0.4l0.7,0.7l1.1-0.3l0.4,0.3l0.5-0.7l0.5,0.7c0.1-0.1,0.3-0.2,0.4-0.2c0.2-0.1,0.5,0,0.7,0l0.8-0.7l0.6,0.5
			l0.9,0l0.5-0.2l1,0.4l1.1-0.7l0.7,0.7l0.7-0.4l0.8,0.3l0.7,0l0.6,0.4l0.7-0.9l0.7,0.6l1.6,0l0.8-0.5l0.6,0.5l0.8,0l0.8-0.5
			l0.5,0.5l0.6-0.5l0.7,0.5l0.7-0.5l0.5,0.5l0.7-0.5l0.5,0.5l0.7-0.5l0.4,0.5l0.7-0.5l0.5,0.5l0.9,0c0.2-0.5,0.4-0.5,0.5-0.5
			c0.1,0,0.2,0,0.2,0.1c0.1,0.1,0.3,0.2,0.4,0.4l0.9-0.5l0.6,0.5l0.6-0.5l0.6,0.5l0.8-0.5l0.1,0.1c0,0,0.2,0.3,0.4,0.5
			c0.1,0,0.5-0.1,0.9-0.3l0,0l1.1,0l0.1,0.4l0.6-0.7l0.7,0.5l0.5-0.5l0.1,0.1c0,0,0.4,0.3,0.5,0.5c0.1-0.1,0.3-0.2,0.4-0.4l0.1-0.1
			l0.5,0.5l0.6-0.5l0.1,0.1c0.1,0.1,0.4,0.4,0.5,0.5c0.1,0,0.2-0.1,0.2-0.2l0.1-0.1l0.6,0.3l0.4-0.6l0.3,0.6l0.5-0.2l1.2,0.7
			l0.8-0.5l0.6,0.2l1-0.2l2,0l0,0.4l-2,0l-1,0.2l-0.5-0.2L56.4,21.7z"/>
	</g>
	<g>
		<path class="st1" d="M56.4,9.8l-1.2-0.7l-0.6,0.3L54.3,9l-0.3,0.4L53.5,9c-0.1,0.1-0.4,0.3-0.6,0.2c-0.1-0.1-0.3-0.3-0.5-0.4
			l-0.6,0.5l-0.5-0.5c-0.2,0.2-0.4,0.4-0.6,0.4c0,0,0,0,0,0c-0.1,0-0.1,0-0.2-0.1c-0.1-0.1-0.3-0.2-0.4-0.4l-0.5,0.5l-0.7-0.5
			l-0.8,0.8l-0.3-0.7l-0.8,0c-1,0.4-1.2,0.2-1.2,0.2c-0.1-0.1-0.2-0.3-0.3-0.4l-0.8,0.5l-0.5-0.5l-0.5,0.5L43,8.6l-0.9,0.5L42,9.1
			c-0.1,0-0.4-0.2-0.5-0.4c-0.1,0.1-0.1,0.2-0.2,0.3l0,0.1l-1.3,0l-0.4-0.4l-0.7,0.5l-0.4-0.5l-0.6,0.4l-0.5-0.5l-0.8,0.5l-0.5-0.5
			L35.4,9l-0.6-0.5L34.2,9l-0.5-0.5L33,8.9l-1,0l-0.5-0.4l-0.7,0.4l-1.8,0l-0.5-0.4l-0.7,0.9l-0.8-0.5l-0.7,0l-0.7-0.2L25,9.1
			l-0.7-0.7l-1,0.6l-1.1-0.4l-0.5,0.2l-1.1,0l-0.4-0.4l-0.7,0.6l-0.1,0c-0.2,0-0.5,0-0.6,0c-0.1,0-0.4,0.2-0.5,0.3l-0.1,0.1
			l-0.5-0.6l-0.5,0.6l-0.5-0.4l-1.1,0.3L15,8.5L14,8.9l-0.5-0.2l-1,0.4l-0.9-0.4l-0.6,0.4l-0.9-0.4L9.3,9.1L8.4,8.6L7.7,9L7.2,8.6
			L6.5,9L5,8.8L3.8,9L3,8.5l0.2-0.3l0.7,0.4L5,8.4l1.4,0.2l0.8-0.4l0.5,0.4l0.7-0.4l0.9,0.4l0.9-0.4L11,8.7l0.6-0.4l0.9,0.5l1-0.4
			l0.4,0.2l1-0.4l0.7,0.7l1.1-0.3l0.4,0.3l0.5-0.7l0.5,0.7c0.1-0.1,0.3-0.2,0.5-0.2c0.2-0.1,0.5,0,0.7,0l0.8-0.7l0.5,0.5l0.9,0
			l0.5-0.2l1,0.4l1.1-0.7L25,8.6l0.7-0.4l0.8,0.3l0.7,0l0.6,0.4L28.4,8l0.7,0.6l1.6,0l0.8-0.5l0.6,0.5l0.8,0l0.8-0.5l0.5,0.5
			l0.6-0.4l0.7,0.5l0.7-0.5l0.5,0.5l0.7-0.5l0.5,0.5l0.7-0.5l0.4,0.5l0.7-0.5l0.5,0.5l0.9,0c0.2-0.5,0.4-0.5,0.5-0.5
			c0.1,0,0.2,0,0.2,0.1c0.1,0.1,0.3,0.2,0.4,0.4L43,8.2l0.6,0.5l0.6-0.5l0.5,0.5l0.8-0.5l0.1,0.1c0,0,0.2,0.3,0.4,0.5
			c0.1,0,0.5-0.1,0.9-0.2l0,0l1.1,0l0.1,0.4l0.6-0.6l0.7,0.5l0.5-0.5l0.1,0.1c0,0,0.4,0.3,0.5,0.5c0.1-0.1,0.3-0.2,0.5-0.4l0.1-0.1
			l0.5,0.5l0.6-0.5l0.1,0.1c0.1,0.1,0.4,0.4,0.5,0.5c0.1,0,0.2-0.1,0.2-0.2l0.1-0.1L54,8.9l0.4-0.6l0.3,0.6l0.5-0.2l1.2,0.7L57.2,9
			l0.6,0.2l1-0.2l2,0l0,0.4l-2,0l-1,0.2l-0.5-0.2L56.4,9.8z"/>
	</g>
	<g>
		<path class="st1" d="M56.4,7.5l-1.2-0.7L54.6,7l-0.2-0.4L54.1,7l-0.6-0.3c-0.1,0.1-0.4,0.3-0.6,0.2c-0.1-0.1-0.3-0.3-0.5-0.4
			L51.9,7l-0.5-0.5c-0.2,0.2-0.4,0.4-0.6,0.4c0,0,0,0,0,0c-0.1,0-0.1,0-0.2-0.1c-0.1-0.1-0.3-0.2-0.4-0.4L49.6,7l-0.7-0.5l-0.8,0.8
			l-0.3-0.7l-0.8,0c-1,0.4-1.2,0.2-1.2,0.2c-0.1-0.1-0.2-0.3-0.3-0.4l-0.8,0.5l-0.5-0.5l-0.5,0.5L43,6.4l-0.9,0.5L42,6.8
			c-0.1,0-0.4-0.2-0.5-0.4c-0.1,0.1-0.1,0.2-0.2,0.3l0,0.1l-1.3,0l-0.4-0.4l-0.7,0.5l-0.4-0.5l-0.6,0.4l-0.5-0.5l-0.8,0.5l-0.5-0.5
			l-0.6,0.4l-0.6-0.5l-0.6,0.5l-0.5-0.5L33,6.7l-1,0l-0.5-0.4l-0.7,0.4l-1.8,0l-0.5-0.4l-0.7,0.9l-0.8-0.5l-0.7,0l-0.7-0.2L25,6.8
			l-0.7-0.7l-1,0.6l-1.1-0.4l-0.5,0.2l-1.1,0L20.2,6l-0.7,0.6l-0.1,0c-0.2,0-0.5,0-0.6,0c-0.1,0-0.4,0.2-0.5,0.3L18.2,7l-0.5-0.6
			l-0.5,0.6l-0.5-0.4l-1.1,0.3L15,6.2l-0.9,0.4l-0.5-0.2l-1,0.4l-0.9-0.4l-0.6,0.4l-0.9-0.4L9.3,6.8L8.5,6.3L7.7,6.8L7.2,6.3
			L6.5,6.7L5,6.5L3.8,6.7L3,6.2l0.2-0.3l0.7,0.4L5,6.1l1.4,0.2l0.8-0.4l0.5,0.4l0.7-0.4l0.9,0.4L10.2,6l0.8,0.4L11.7,6l0.9,0.5
			l1-0.4l0.4,0.2l1-0.4l0.7,0.7l1.1-0.3l0.4,0.3l0.5-0.7l0.5,0.7c0.1-0.1,0.3-0.2,0.4-0.2c0.2-0.1,0.5,0,0.7,0l0.8-0.7l0.5,0.5
			l0.9,0l0.5-0.2l1,0.4l1.1-0.7l0.7,0.7l0.7-0.4l0.8,0.3l0.7,0l0.6,0.4l0.7-0.9l0.7,0.6l1.6,0l0.8-0.5l0.6,0.5l0.8,0l0.8-0.5
			l0.5,0.5l0.6-0.4l0.7,0.5l0.7-0.5l0.5,0.5l0.7-0.5l0.5,0.5l0.7-0.5L39,6.3l0.7-0.5l0.5,0.5l0.9,0c0.2-0.5,0.4-0.5,0.5-0.5
			c0.1,0,0.2,0,0.2,0.1c0.1,0.1,0.3,0.2,0.4,0.4L43,5.9l0.6,0.5l0.6-0.5l0.5,0.5L45.6,6l0.1,0.1c0,0,0.2,0.3,0.4,0.5
			c0.1,0,0.5-0.1,0.9-0.2l0,0l1.1,0l0.1,0.4L48.9,6l0.7,0.5L50.1,6l0.1,0.1c0,0,0.4,0.3,0.5,0.5c0.1-0.1,0.3-0.2,0.5-0.4L51.3,6
			l0.5,0.5l0.6-0.5l0.1,0.1c0.1,0.1,0.4,0.4,0.5,0.5c0.1,0,0.2-0.1,0.2-0.2l0.1-0.1L54,6.6L54.4,6l0.3,0.6l0.5-0.2l1.2,0.7l0.8-0.5
			l0.6,0.2l1-0.2l2,0l0,0.4l-2,0l-1,0.2l-0.5-0.2L56.4,7.5z"/>
	</g>
	<g>
		<path class="st1" d="M18.5,24.8c-8.5,0-15,0-15.1,0l0-0.4c0.5,0,56.8,0,57.4,0v0.4C60.3,24.8,35.3,24.8,18.5,24.8z"/>
	</g>
	<g>
		<path class="st1" d="M18.5,27.4c-8.5,0-15,0-15.1,0l0-0.4c0.5,0,56.8,0,57.4,0v0.4C60.3,27.4,35.3,27.4,18.5,27.4z"/>
	</g>
	<g>
		<path class="st1" d="M24,35.6c-0.1,0-0.2-0.1-0.2-0.1l-0.3-1.8l-0.2-1c-0.7,0.7-1.2,1-1.4,0.9c0,0-0.2-0.1-0.2-0.3
			c0-0.4-0.3-2.2-0.4-3.2c-0.5,0.9-1.2,2.1-1.5,2.2c-0.2,0.1-0.4,0.1-0.5,0.2c-0.2,0.1-0.5,0.2-0.7,0.3c-0.1,0-0.2,0.1-0.2,0.3
			c-0.2,0.2-0.4,0.6-0.8,0.6c-0.2,0-0.3,0-0.5-0.1c-0.2-0.2-0.2-0.5-0.2-0.7c0-0.1,0-0.2,0-0.2c0,0,0-0.1,0-0.1
			c-0.1-0.4-0.3-1.1-0.2-1.7c0-0.4-0.2-0.6-0.4-0.7c-0.1,0.3-0.2,0.9-0.3,1.2l-0.1,0.2c-0.1,0.3-0.3,0.7-0.5,0.9
			c-0.2,0.2-1,0.6-1.4,0.5c0,0-0.2,0.3-0.2,0.4c-0.1,0.3-0.3,0.5-0.5,0.5c-0.1,0-0.2,0-0.2-0.1c-0.3-0.3-0.3-1-0.3-1.4
			c0-0.4-0.1-0.8-0.3-1.1c-0.1-0.1-0.2-0.3-0.2-0.5c-0.1,0.3-0.2,0.6-0.3,0.9c-0.1,0.5-0.4,0.6-0.6,0.6c-0.1,0-0.1,0-0.1,0.1
			c-0.1,0.2-0.5,0.3-0.9,0.5c-0.1,0-0.2,0.1-0.3,0.1c-0.3,0.1-0.4,0.4-0.5,0.7c0,0.2-0.2,0.2-0.2,0.2c0,0,0,0,0,0
			c-0.2,0-0.2-0.2-0.5-0.8c-0.1-0.2-0.2-0.4-0.2-0.5c-0.1-0.2-0.1-0.4,0-0.8c0-0.1,0-0.3,0-0.4c-0.1-0.1-0.2-0.3-0.3-0.6L8,31.3
			c0,0.2-0.3,1.2-0.8,1.5c-0.4,0.3-0.9,0.1-1.1,0c-0.3,0.1-1,0.3-1.3,0.1c-0.1-0.1-0.1-0.1-0.2-0.3c-0.1-0.6-0.1-1.5,0-2.2
			c0.1-0.4-0.2-0.6-0.3-0.7l-0.7,0.8l-0.3-0.2l0.8-0.9c0,0,0.1-0.1,0.2-0.1c0.3,0.1,0.8,0.4,0.7,1.1c-0.1,0.7,0,1.6,0,2.1
			c0.1,0.1,0.6,0,1.1-0.1c0,0,0.1,0,0.1,0c0,0,0.4,0.2,0.8,0c0.3-0.2,0.5-0.9,0.6-1.3c0,0,0,0,0-0.1l0.5-0.9c0-0.1,0.1-0.1,0.2-0.1
			c0.1,0,0.1,0.1,0.2,0.1c0.1,0.3,0.3,0.7,0.4,0.8c0.1,0.1,0.1,0.3,0.1,0.7c0,0.2-0.1,0.4,0,0.5c0.1,0.1,0.1,0.3,0.2,0.5
			c0,0.1,0.1,0.2,0.1,0.3c0.1-0.2,0.3-0.5,0.6-0.6c0.1,0,0.2-0.1,0.3-0.1c0.3-0.1,0.7-0.2,0.7-0.3c0.1-0.1,0.2-0.2,0.3-0.2
			c0.2,0,0.3-0.1,0.3-0.3c0.1-0.5,0.3-1,0.4-1.3c0-0.1,0.1-0.2,0.1-0.2c0-0.2,0.2-0.2,0.2-0.2c0.2,0,0.2,0.1,0.2,0.4
			c0,0.2,0.1,0.6,0.2,0.7C13,31.3,13,32,13,32.2c0,0.3,0,0.9,0.2,1.1c0.1-0.1,0.1-0.2,0.2-0.3c0.2-0.3,0.4-0.7,0.7-0.6
			c0.2,0.1,0.8-0.2,1-0.4c0.1-0.2,0.3-0.5,0.4-0.8l0.1-0.2c0.1-0.3,0.3-1.3,0.3-1.3c0-0.1,0.1-0.2,0.2-0.1c0.3,0.1,0.9,0.4,0.8,1.1
			c-0.1,0.6,0.1,1.3,0.2,1.6c0,0.1,0,0.1,0,0.2c0,0.1,0,0.2,0,0.3c0,0.2,0,0.4,0.1,0.4c0,0,0.1,0,0.2,0c0.3,0,0.4-0.2,0.5-0.5
			c0.1-0.2,0.2-0.4,0.5-0.4c0.2,0,0.4-0.1,0.6-0.3c0.2-0.1,0.4-0.2,0.6-0.2c0.2-0.1,1-1.4,1.6-2.5c0-0.1,0.1-0.1,0.2-0.1
			c0.1,0,0.1,0.1,0.1,0.1c0,0.1,0.5,2.9,0.5,3.6c0.2-0.1,0.8-0.6,1.2-1c0,0,0.1-0.1,0.2,0c0.1,0,0.1,0.1,0.1,0.1l0.4,1.9
			c0.1-0.7,0.2-1.5,0.3-1.6c0-0.1,0-0.3,0.1-0.6c0-0.8,0.1-1.4,0.4-1.6c0.4-0.3,0.9-0.9,0.9-0.9c0-0.1,0.1-0.1,0.2-0.1
			c0.1,0,0.1,0.1,0.1,0.1l0.6,2.9l1.1-0.4c0,0,0.1,0,0.1,0l1.3,0.3L44.8,32c0.2,0,0.8,0,1-0.2c0.3-0.2,0.8-0.5,1.2-0.4
			c0.1,0.1,0.2,0.2,0.3,0.3c0.1,0.2,0.4,0.6,0.7,0.8l0.8-0.2c0.4-0.4,0.8-1,0.8-1.1c0-0.2,0.1-0.3,0.2-0.3c0.1,0,0.3-0.1,1,0.8
			c0.2,0.3,0.4,0.7,0.4,1c0.3-0.3,1-0.9,1.2-1c0.3-0.1,0.7-0.4,0.7-0.4c0.1,0,0.1,0,0.2,0c0.6,0.5,1.2,1,1.4,1c0.1,0,0.6-0.3,1-0.7
			l1-0.7c0.1-0.1,0.2,0,0.2,0l0.5,0.8l0.6,0.7l1.2-0.8c0,0,0,0,0,0l1.2-0.4l0.1,0.3L59.5,32l-1.3,0.8c-0.1,0-0.2,0-0.2,0l-0.7-0.9
			l-0.5-0.6L56,31.9c-0.3,0.3-1,0.8-1.3,0.8c-0.3,0-1.1-0.7-1.5-1c-0.2,0.1-0.5,0.3-0.6,0.4c-0.2,0.1-0.9,0.8-1.3,1.2
			c0,0-0.1,0.1-0.2,0c-0.1,0-0.1-0.1-0.1-0.1c0,0-0.1-0.7-0.4-1.1c-0.3-0.3-0.5-0.5-0.6-0.6c-0.1,0.4-0.7,1.1-0.9,1.3
			c0,0-0.1,0-0.1,0.1L48,32.8c0,0-0.1,0-0.1,0c-0.1-0.1-0.8-0.6-0.9-1c0,0,0-0.1,0-0.1c-0.1-0.1-0.5,0.1-0.8,0.3
			c-0.4,0.3-1.2,0.3-1.2,0.3l-15.7,0.3c0,0,0,0,0,0l-1.3-0.3l-1.2,0.5c0,0-0.1,0-0.1,0c0,0-0.1-0.1-0.1-0.1L25.7,30
			c-0.2,0.2-0.5,0.6-0.8,0.7c-0.2,0.1-0.2,0.9-0.3,1.3c0,0.4,0,0.6-0.1,0.7c-0.1,0.2-0.3,1.5-0.4,2.6C24.2,35.5,24.1,35.6,24,35.6
			C24,35.6,24,35.6,24,35.6z"/>
	</g>
</g>
</svg>
