<?xml version="1.0" encoding="utf-8"?>
<!-- Generator: Adobe Illustrator 20.0.0, SVG Export Plug-In . SVG Version: 6.00 Build 0)  -->
<svg version="1.1" id="Layer_3" xmlns="http://www.w3.org/2000/svg" xmlns:xlink="http://www.w3.org/1999/xlink" x="0px" y="0px"
	 width="54px" height="75px" viewBox="0 0 54 75" style="enable-background:new 0 0 54 75;" xml:space="preserve">
<style type="text/css">
	.st0{fill:#E8EAEA;}
	.st1{fill:#ABABAB;}
</style>
<g>
	<ellipse class="st0" cx="28.4" cy="72.4" rx="15.7" ry="1.5"/>
</g>
<g>
	<path class="st1" d="M26.2,70.9C12,70.9,0.3,59.3,0.3,45S12,19.1,26.2,19.1S52.2,30.8,52.2,45S40.5,70.9,26.2,70.9z M26.2,19.9
		C12.4,19.9,1.1,31.2,1.1,45c0,13.9,11.3,25.1,25.1,25.1S51.4,58.9,51.4,45C51.4,31.2,40.1,19.9,26.2,19.9z"/>
</g>
<g>
	<path class="st1" d="M26.2,67.6c-12.4,0-22.5-10.1-22.5-22.5s10.1-22.5,22.5-22.5s22.5,10.1,22.5,22.5S38.6,67.6,26.2,67.6z
		 M26.2,23.1C14.1,23.1,4.3,33,4.3,45.1S14.1,67,26.2,67s21.9-9.8,21.9-21.9S38.3,23.1,26.2,23.1z"/>
</g>
<g>
	<path class="st1" d="M26.1,65.7C14.7,65.7,5.3,56.4,5.3,45c0-11.5,9.3-20.8,20.8-20.8c11.5,0,20.8,9.3,20.8,20.8
		C46.9,56.4,37.6,65.7,26.1,65.7z M26.1,24.8C15,24.8,5.9,33.8,5.9,45c0,11.1,9.1,20.2,20.2,20.2c11.1,0,20.2-9.1,20.2-20.2
		C46.3,33.8,37.3,24.8,26.1,24.8z"/>
</g>
<g>
	<rect x="37.7" y="30.9" transform="matrix(0.7058 -0.7084 0.7084 0.7058 -10.5646 36.9748)" class="st1" width="3" height="0.6"/>
</g>
<g>
	<rect x="41" y="35.2" transform="matrix(0.8448 -0.535 0.535 0.8448 -12.3923 28.2812)" class="st1" width="3.1" height="0.6"/>
</g>
<g>
	<rect x="42.5" y="39.8" transform="matrix(0.9813 -0.1926 0.1926 0.9813 -6.8987 9.2766)" class="st1" width="3.5" height="0.6"/>
</g>
<g>
	<rect x="43.9" y="44.7" class="st1" width="2.8" height="0.6"/>
</g>
<g>
	<rect x="44" y="47.9" transform="matrix(0.2873 -0.9578 0.9578 0.2873 -15.9976 77.7735)" class="st1" width="0.6" height="3.5"/>
</g>
<g>
	<rect x="42.3" y="52.6" transform="matrix(0.5338 -0.8456 0.8456 0.5338 -25.896 61.2076)" class="st1" width="0.6" height="3.1"/>
</g>
<g>
	
		<rect x="35.3" y="59.6" transform="matrix(0.8334 -0.5526 0.5526 0.8334 -27.9317 29.8887)" class="st1" width="0.6" height="3.3"/>
</g>
<g>
	<rect x="30.8" y="62.4" transform="matrix(0.9669 -0.255 0.255 0.9669 -15.1659 10.0191)" class="st1" width="0.6" height="2.3"/>
</g>
<g>
	<rect x="25.8" y="62.6" class="st1" width="0.6" height="2.8"/>
</g>
<g>
	
		<rect x="20.1" y="63.2" transform="matrix(0.2551 -0.9669 0.9669 0.2551 -45.5878 67.8205)" class="st1" width="2.3" height="0.6"/>
</g>
<g>
	<rect x="15.2" y="61" transform="matrix(0.542 -0.8404 0.8404 0.542 -43.9456 41.917)" class="st1" width="2.7" height="0.6"/>
</g>
<g>
	<rect x="11.2" y="58.2" transform="matrix(0.7591 -0.651 0.651 0.7591 -35.0457 22.282)" class="st1" width="2.7" height="0.6"/>
</g>
<g>
	<rect x="8.5" y="54.2" transform="matrix(0.938 -0.3466 0.3466 0.938 -18.2852 6.741)" class="st1" width="2.4" height="0.6"/>
</g>
<g>
	<rect x="6.3" y="49.7" transform="matrix(0.9672 -0.2539 0.2539 0.9672 -12.441 3.623)" class="st1" width="3" height="0.6"/>
</g>
<g>
	
		<rect x="5.6" y="44.7" transform="matrix(0.9999 -1.562309e-02 1.562309e-02 0.9999 -0.7013 0.1167)" class="st1" width="3" height="0.6"/>
</g>
<g>
	<rect x="7.5" y="38.6" transform="matrix(0.1943 -0.981 0.981 0.1943 -33.0449 39.9292)" class="st1" width="0.6" height="3"/>
</g>
<g>
	<rect x="9.3" y="34" transform="matrix(0.5776 -0.8164 0.8164 0.5776 -24.9022 22.8429)" class="st1" width="0.6" height="2.9"/>
</g>
<g>
	<rect x="12.3" y="30.2" transform="matrix(0.7315 -0.6818 0.6818 0.7315 -18.209 17.0785)" class="st1" width="0.6" height="3"/>
</g>
<g>
	<rect x="16.4" y="27.1" transform="matrix(0.8749 -0.4842 0.4842 0.8749 -11.691 11.6456)" class="st1" width="0.6" height="2.8"/>
</g>
<g>
	<rect x="20.8" y="25.1" transform="matrix(0.9949 -0.1005 0.1005 0.9949 -2.5626 2.2522)" class="st1" width="0.6" height="2.9"/>
</g>
<g>
	<path class="st1" d="M26.1,27.3"/>
</g>
<g>
	<path class="st1" d="M26.1,24.5"/>
</g>
<g>
	<rect x="25.8" y="24.5" class="st1" width="0.6" height="2.8"/>
</g>
<g>
	<rect x="29.7" y="26.1" transform="matrix(0.2539 -0.9672 0.9672 0.2539 -2.396 49.6672)" class="st1" width="2.6" height="0.6"/>
</g>
<g>
	<rect x="34.1" y="28.2" transform="matrix(0.5817 -0.8134 0.8134 0.5817 -8.2667 40.838)" class="st1" width="3" height="0.6"/>
</g>
<g>
	<path class="st1" d="M45.1,28.3l-2.3-2.6l3.1-2.7l2.3,2.6L45.1,28.3z M43.7,25.7l1.5,1.7l2.2-1.9l-1.5-1.7L43.7,25.7z"/>
</g>
<g>
	<path class="st1" d="M49,27.5l-5.2-6l2.2-1.9l5.2,6L49,27.5z M44.6,21.5l4.5,5.1l1.3-1.1l-4.5-5.1L44.6,21.5z"/>
</g>
<g>
	<path class="st1" d="M51.7,26.9l-7-8l2.2-1.9l7,8L51.7,26.9z M45.5,19l6.3,7.2L53,25l-6.3-7.2L45.5,19z"/>
</g>
<g>
	<path class="st1" d="M28.1,19.9H24v-4.7h4.1V19.9z M24.7,19.2h2.6V16h-2.6V19.2z"/>
</g>
<g>
	<path class="st1" d="M30.1,16h-8v-5.4h8V16z M22.9,15.2h6.5v-3.9h-6.5V15.2z"/>
</g>
<g>
	<path class="st1" d="M27.8,18.1l-0.1-0.6c3.5-0.7,6-3.8,6-7.4c0-4.2-3.4-7.6-7.6-7.6c-4.2,0-7.6,3.4-7.6,7.6c0,3.4,2.3,6.4,5.5,7.3
		L23.9,18c-3.5-1-5.9-4.2-5.9-7.9c0-4.5,3.7-8.2,8.2-8.2c4.5,0,8.2,3.7,8.2,8.2C34.3,14,31.6,17.3,27.8,18.1z"/>
</g>
<g>
	<path class="st1" d="M24.3,19.8C19.5,19,16,14.9,16,10c0-5.5,4.5-10,10-10s10,4.5,10,10c0,4.9-3.5,9-8.3,9.8l-0.1-0.8
		c4.4-0.8,7.6-4.6,7.6-9.1c0-5.1-4.1-9.2-9.2-9.2s-9.2,4.1-9.2,9.2c0,4.5,3.2,8.3,7.6,9.1L24.3,19.8z"/>
</g>
<g>
	<path class="st1" d="M26.1,29.1"/>
</g>
<g>
	<path class="st1" d="M38.1,55.9l-0.4-0.4c2.8-2.8,4.3-6.6,4.3-10.6c0-8.3-6.6-15.1-14.7-15.1c-0.4,0-0.7,0-1.1,0l0-0.6
		c0.4,0,0.8,0,1.1,0c8.4,0,15.3,7,15.3,15.6C42.6,49,41,52.9,38.1,55.9z"/>
</g>
<g>
	<path class="st1" d="M26,48.6c-2,0-3.7-1.7-3.7-3.7c0-2,1.7-3.7,3.7-3.7s3.7,1.7,3.7,3.7C29.7,46.9,28,48.6,26,48.6z M26,41.8
		c-1.7,0-3.1,1.4-3.1,3.1c0,1.7,1.4,3.1,3.1,3.1c1.7,0,3.1-1.4,3.1-3.1C29.1,43.2,27.7,41.8,26,41.8z"/>
</g>
<g>
	<path class="st1" d="M26.2,47c-1.1,0-2.1-0.9-2.1-2.1c0-1.1,0.9-2.1,2.1-2.1s2.1,0.9,2.1,2.1C28.3,46,27.3,47,26.2,47z M26.2,43.4
		c-0.8,0-1.5,0.7-1.5,1.5c0,0.8,0.7,1.5,1.5,1.5s1.5-0.7,1.5-1.5C27.7,44.1,27,43.4,26.2,43.4z"/>
</g>
<g>
	<path class="st1" d="M22.8,43.4l-1.6-1.6c-0.4-0.4-0.5-1.1-0.2-1.5c0.2-0.3,0.4-0.5,0.8-0.5c0.4-0.1,0.9,0.1,1.2,0.4l1.4,1.4
		l-0.4,0.4l-1.4-1.4c-0.2-0.2-0.5-0.3-0.7-0.2c-0.2,0-0.3,0.1-0.4,0.3c-0.1,0.2-0.1,0.6,0.1,0.8l1.6,1.6L22.8,43.4z"/>
</g>
<g>
	<path class="st1" d="M39.1,59.2L39.1,59.2L27.3,48l0.4-0.4l11.6,10.9c0.1,0,0.3-0.1,0.4-0.2c0,0,0.1-0.1,0-0.2L28.9,46.7l0.4-0.4
		l10.9,11.6l0,0.1c0.1,0.4,0,0.6-0.1,0.8c-0.3,0.4-0.9,0.4-0.9,0.4L39.1,59.2z"/>
</g>
</svg>
