<?xml version="1.0" encoding="utf-8"?>
<!-- Generator: Adobe Illustrator 20.0.0, SVG Export Plug-In . SVG Version: 6.00 Build 0)  -->
<svg version="1.1" id="Layer_3" xmlns="http://www.w3.org/2000/svg" xmlns:xlink="http://www.w3.org/1999/xlink" x="0px" y="0px"
	 width="83px" height="82px" viewBox="0 0 83 82" style="enable-background:new 0 0 83 82;" xml:space="preserve">
<style type="text/css">
	.st0{fill:#E8EAEA;}
	.st1{fill:#ABABAB;}
</style>
<path class="st0" d="M62,81.4c0,0.8-12.2,0.5-27,0.5S8.3,81.3,8.3,80.4s12.4-0.4,27.2-0.9C45.8,79.3,62,80.6,62,81.4z"/>
<g>
	<g>
		<path class="st1" d="M60.5,67H2.6c-1.4,0-2.5-1.1-2.5-2.5V28.1c0-1.4,1.1-2.5,2.5-2.5h57.8c1.4,0,2.5,1.1,2.5,2.5v36.3
			C63,65.9,61.9,67,60.5,67z M2.6,26.2c-1,0-1.9,0.8-1.9,1.9v36.3c0,1,0.8,1.9,1.9,1.9h57.8c1,0,1.9-0.8,1.9-1.9V28.1
			c0-1-0.8-1.9-1.9-1.9H2.6z"/>
	</g>
	<g>
		<path class="st1" d="M60.1,62.3H3V28.5h57.1V62.3z M3.7,61.6h55.8V29.2H3.7V61.6z"/>
	</g>
	<g>
		<g>
			<path class="st1" d="M44.8,79.9H18.3v-2.2l4.4-3.2c3.5-2.6,3.1-7.8,3.1-7.8l0.7-0.1c0,0.2,0.4,5.6-3.4,8.4l-4.1,3v1.2h25.2v-1.2
				c-0.5-0.4-2.1-1.8-3.6-3c-1.8-1.4-2.9-2.6-3.9-8.3l0.7-0.1c0.9,5.5,1.9,6.5,3.6,7.9c1.7,1.4,3.8,3.1,3.8,3.1l0.1,0.1V79.9z"/>
		</g>
		<g>
			<rect x="18.6" y="77.6" class="st1" width="25.9" height="0.7"/>
		</g>
		<g>
			<path class="st1" d="M42,77"/>
		</g>
		<g>
			<path class="st1" d="M40.2,76.6c-0.6-0.4-1.2-0.8-1.7-1.4l0.5-0.5c0.5,0.5,1,0.9,1.6,1.3L40.2,76.6z"/>
		</g>
		<g>
			<path class="st1" d="M38.7,75"/>
		</g>
		<g>
			<path class="st1" d="M36.9,72.8c-1.6-2.9-1.6-6-1.6-6.1h0.7c0,0,0,3.1,1.6,5.8L36.9,72.8z"/>
		</g>
	</g>
	<g>
		<rect x="0.4" y="61.6" class="st1" width="2.9" height="0.7"/>
	</g>
	<g>
		<path class="st1" d="M29.5,64.7"/>
	</g>
	<g>
		<g>
			<path class="st1" d="M30.4,64.5c-0.1,0-0.2-0.1-0.2-0.2c0-0.1,0-0.1,0-0.2c0-0.8,0.7-1.5,1.5-1.5c0.3,0,0.5,0.1,0.8,0.2
				c0.1,0.1,0.2,0.2,0.1,0.3c-0.1,0.1-0.2,0.2-0.3,0.1c-0.2-0.1-0.3-0.1-0.5-0.1c-0.5,0-1,0.4-1,1c0,0,0,0.1,0,0.1
				C30.6,64.4,30.5,64.5,30.4,64.5C30.4,64.5,30.4,64.5,30.4,64.5z"/>
		</g>
		<g>
			<path class="st1" d="M30.4,64.3"/>
		</g>
		<g>
			<path class="st1" d="M31.6,65.6c-0.3,0-0.6-0.1-0.8-0.3c-0.1-0.1-0.1-0.2-0.1-0.3c0.1-0.1,0.2-0.1,0.3-0.1
				c0.2,0.1,0.4,0.2,0.6,0.2c0.5,0,1-0.4,1-1c0,0,0-0.1,0-0.1c0-0.1,0.1-0.3,0.2-0.3c0.1,0,0.3,0.1,0.3,0.2c0,0.1,0,0.1,0,0.2
				C33.1,65,32.4,65.6,31.6,65.6z"/>
		</g>
		<g>
			<path class="st1" d="M32.8,64"/>
		</g>
		<g>
			<path class="st1" d="M32.7,63.6"/>
		</g>
		<g>
			<path class="st1" d="M32.5,63.3"/>
		</g>
	</g>
	<g>
		<path class="st1" d="M27.5,36l-0.8-0.5l-0.6,0l-0.6-0.2l-0.7,0.5L24,35l-1,0.6l-1.1-0.4l-0.5,0.2l-1.1,0L19.9,35l-0.7,0.6l-0.1,0
			c-0.2,0-0.5,0-0.6,0c-0.1,0-0.4,0.2-0.5,0.3L18,35.9l-0.4-0.6l-0.5,0.6l-0.5-0.4l-1.1,0.3l-0.6-0.6l-0.9,0.4l-0.4-0.2l-1,0.4
			l-0.9-0.4L11,35.8l-0.9-0.4l-0.9,0.4l-0.8-0.4l-0.7,0.4l-0.5-0.4l-0.7,0.4L5,35.5l-1.2,0.2L3,35.2L3.2,35l0.7,0.4L5,35.2l1.4,0.2
			l0.8-0.4l0.5,0.4L8.4,35l0.9,0.4l0.9-0.4l0.8,0.4l0.6-0.4l0.9,0.4l1-0.4l0.4,0.2l1-0.4l0.7,0.6l1.1-0.3l0.4,0.3l0.5-0.7l0.5,0.7
			c0.1-0.1,0.3-0.2,0.4-0.2c0.2-0.1,0.5,0,0.6,0l0.8-0.6l0.5,0.5l0.9,0l0.5-0.2l1,0.4l1.1-0.7l0.7,0.7l0.7-0.4l0.8,0.3l0.7,0
			l0.6,0.4l0.7-0.9l0.7,0.5l1.6,0l0.8-0.5l0.6,0.5l0.8,0l0.8-0.5l0.5,0.5l0.6-0.4l0.6,0.5l0.7-0.5l0.5,0.5l0.7-0.5l0.5,0.5l0.7-0.5
			l0.4,0.5l0.6-0.5l0.5,0.5l0.9,0c0.2-0.5,0.4-0.5,0.4-0.5c0.1,0,0.2,0,0.2,0.1c0.1,0.1,0.3,0.3,0.5,0.4l-0.2,0.3
			c-0.1,0-0.4-0.2-0.5-0.4c-0.1,0.1-0.1,0.2-0.2,0.3l0,0.1l-1.2,0L39,35.1l-0.7,0.5l-0.4-0.5l-0.6,0.4l-0.5-0.5L36,35.6l-0.5-0.5
			l-0.6,0.4l-0.6-0.5l-0.6,0.5l-0.5-0.5l-0.6,0.4l-1,0l-0.5-0.4l-0.7,0.4l-1.8,0l-0.5-0.4L27.5,36z"/>
	</g>
	<g>
		<path class="st1" d="M27.5,33.6l-0.8-0.5L26,33l-0.6-0.2l-0.7,0.5l-0.7-0.7l-1,0.6l-1.1-0.4L21.4,33l-1.1,0l-0.4-0.4l-0.7,0.5
			l-0.1,0c-0.2,0-0.5-0.1-0.6,0c-0.1,0-0.4,0.2-0.5,0.3l-0.1,0.1l-0.4-0.6L17,33.4L16.5,33l-1.1,0.3l-0.6-0.6l-0.9,0.4l-0.4-0.2
			l-1,0.4l-0.9-0.4L11,33.3l-0.9-0.4l-0.9,0.4l-0.8-0.4l-0.7,0.4l-0.5-0.4l-0.7,0.4L5,33l-1.2,0.2L3,32.7l0.2-0.3l0.7,0.4L5,32.6
			l1.4,0.2l0.8-0.4l0.5,0.4l0.7-0.4l0.9,0.4l0.9-0.4l0.8,0.4l0.6-0.4l0.9,0.4l1-0.4l0.4,0.2l1-0.4l0.6,0.6l1.1-0.3L17,33l0.5-0.7
			L18,33c0.1-0.1,0.3-0.2,0.4-0.2c0.2-0.1,0.5,0,0.6,0l0.8-0.6l0.5,0.5l0.9,0l0.5-0.2l1,0.4l1.1-0.7l0.7,0.7l0.7-0.4l0.8,0.3l0.7,0
			l0.6,0.4l0.7-0.9l0.6,0.5l1.6,0l0.8-0.5l0.6,0.5l0.8,0l0.8-0.5l0.5,0.5l0.6-0.4l0.6,0.5l0.7-0.5l0.5,0.5l0.7-0.4l0.5,0.5l0.7-0.5
			l0.4,0.5l0.6-0.4l0.5,0.5l0.9,0c0.2-0.5,0.4-0.5,0.4-0.5c0.1,0,0.2,0,0.2,0.1c0.1,0.1,0.3,0.3,0.5,0.4l-0.2,0.3
			c-0.1,0-0.4-0.2-0.5-0.4c-0.1,0.1-0.1,0.2-0.2,0.3l0,0.1l-1.2,0L39,32.8l-0.7,0.5l-0.4-0.5l-0.6,0.4l-0.5-0.5L36,33.2l-0.5-0.5
			l-0.6,0.4l-0.6-0.5l-0.6,0.5l-0.5-0.5l-0.6,0.4l-1,0l-0.5-0.4l-0.7,0.4l-1.8,0l-0.5-0.4L27.5,33.6z"/>
	</g>
	<g>
		<path class="st1" d="M55.6,31.7L54.4,31l-0.6,0.3l-0.2-0.4l-0.3,0.4L52.7,31c-0.1,0.1-0.4,0.3-0.6,0.2c-0.1-0.1-0.3-0.3-0.5-0.4
			l-0.6,0.5l-0.5-0.5c-0.2,0.2-0.4,0.4-0.6,0.4c0,0,0,0,0,0c-0.1,0-0.1,0-0.2-0.1c-0.1-0.1-0.3-0.2-0.4-0.4l-0.5,0.5l-0.7-0.5
			l-0.8,0.8l-0.2-0.6l-0.8,0c-1,0.4-1.2,0.2-1.2,0.2c-0.1-0.1-0.2-0.3-0.3-0.4L44,31.1l-0.5-0.5L43,31.1l-0.7-0.5L41.5,31L41.4,31
			c-0.1,0-0.4-0.2-0.5-0.4c-0.1,0.1-0.1,0.2-0.2,0.3l0,0.1l-1.2,0L39,30.6L38.3,31l-0.4-0.5L37.3,31l-0.5-0.5L36,31l-0.5-0.5
			L34.9,31l-0.6-0.5L33.7,31l-0.5-0.5l-0.6,0.4l-1,0l-0.5-0.4l-0.7,0.4l-1.8,0l-0.5-0.4l-0.7,0.9l-0.8-0.5l-0.7,0l-0.6-0.2L24.7,31
			L24,30.3l-1,0.6l-1.1-0.4l-0.5,0.2l-1.1,0l-0.4-0.4l-0.7,0.5l-0.1,0c-0.2,0-0.5-0.1-0.6,0c-0.1,0-0.4,0.2-0.5,0.3L18,31.2
			l-0.4-0.6l-0.5,0.6l-0.5-0.4l-1.1,0.3l-0.6-0.6l-0.9,0.4l-0.4-0.2l-1,0.4l-0.9-0.4L11,31l-0.9-0.4L9.2,31l-0.8-0.4L7.7,31
			l-0.5-0.4l-0.7,0.4L5,30.7l-1.2,0.2L3,30.4l0.2-0.3l0.7,0.4L5,30.4l1.4,0.2l0.8-0.4l0.5,0.4l0.7-0.4l0.9,0.4l0.9-0.4l0.8,0.4
			l0.6-0.4l0.9,0.4l1-0.4l0.4,0.2l1-0.4l0.6,0.6l1.1-0.3l0.4,0.3l0.5-0.7l0.5,0.7c0.1-0.1,0.3-0.2,0.4-0.2c0.2-0.1,0.5,0,0.6,0
			l0.8-0.6l0.5,0.5l0.9,0l0.5-0.2l1,0.4l1.1-0.7l0.7,0.7l0.7-0.4l0.8,0.3l0.7,0l0.6,0.4l0.7-0.9l0.6,0.5l1.6,0l0.8-0.5l0.6,0.5
			l0.8,0l0.8-0.5l0.5,0.5l0.6-0.4l0.6,0.5l0.7-0.5l0.5,0.5l0.7-0.4l0.5,0.5l0.7-0.5l0.4,0.5l0.6-0.4l0.5,0.5l0.9,0
			c0.2-0.5,0.4-0.5,0.4-0.5c0.1,0,0.2,0,0.2,0.1c0.1,0.1,0.3,0.2,0.4,0.4l0.9-0.5l0.6,0.5l0.5-0.5l0.5,0.5l0.8-0.5l0.1,0.1
			c0,0,0.2,0.3,0.4,0.5c0.1,0,0.5-0.1,0.9-0.2l0,0l1.1,0l0.1,0.4l0.6-0.6l0.7,0.5l0.5-0.5l0.1,0.1c0,0,0.4,0.3,0.5,0.5
			c0.1-0.1,0.3-0.2,0.5-0.4l0.1-0.1l0.5,0.5l0.6-0.5l0.1,0.1c0.1,0.1,0.4,0.4,0.5,0.5c0,0,0.1-0.1,0.2-0.2l0.1-0.1l0.6,0.3l0.4-0.6
			l0.3,0.6l0.5-0.2l1.2,0.7l0.8-0.5l0.6,0.2l0.9-0.2l2,0l0,0.3l-1.9,0l-1,0.2l-0.5-0.2L55.6,31.7z"/>
	</g>
	<g>
		<path class="st1" d="M27.5,42.5L26.7,42l-0.7,0l-0.6-0.2l-0.7,0.5L24,41.6l-1,0.6l-1.1-0.4L21.4,42l-1.1,0l-0.4-0.4l-0.7,0.6
			l-0.1,0c-0.2,0-0.5,0-0.6,0c-0.1,0-0.4,0.2-0.5,0.3L18,42.5l-0.4-0.6L17,42.5l-0.5-0.4l-1.1,0.3l-0.6-0.6l-0.9,0.4L13.5,42l-1,0.4
			l-0.9-0.4L11,42.4l-0.9-0.4l-0.9,0.4l-0.8-0.4l-0.7,0.4l-0.5-0.4l-0.7,0.4L5,42.1l-1.2,0.2L3,41.8l0.2-0.3l0.7,0.4L5,41.7L6.4,42
			l0.8-0.4l0.5,0.4l0.7-0.4L9.2,42l0.9-0.4l0.8,0.4l0.6-0.4l0.9,0.4l1-0.4l0.4,0.2l1-0.4l0.7,0.6l1.1-0.3L17,42l0.5-0.7L18,42
			c0.1-0.1,0.3-0.2,0.4-0.2c0.2-0.1,0.5,0,0.6,0l0.8-0.6l0.5,0.5l0.9,0l0.5-0.2l1,0.4l1.1-0.7l0.7,0.7l0.7-0.4l0.8,0.3l0.7,0
			l0.6,0.4l0.7-0.9l0.7,0.5l1.6,0l0.8-0.5l0.6,0.5l0.8,0l0.8-0.5l0.5,0.5l0.6-0.4l0.6,0.5l0.7-0.5l0.5,0.5l0.7-0.5l0.5,0.5l0.7-0.5
			l0.4,0.5l0.6-0.5l0.5,0.5l0.9,0c0.2-0.5,0.4-0.5,0.4-0.5c0.1,0,0.2,0,0.2,0.1c0.1,0.1,0.3,0.3,0.5,0.4l-0.2,0.3
			c-0.1,0-0.4-0.2-0.5-0.4c-0.1,0.1-0.1,0.2-0.2,0.3l0,0.1l-1.2,0L39,41.7l-0.7,0.5l-0.4-0.5l-0.6,0.4l-0.5-0.5L36,42.1l-0.5-0.5
			l-0.6,0.4l-0.6-0.5l-0.6,0.5l-0.5-0.5l-0.6,0.4l-1,0l-0.5-0.4l-0.7,0.4l-1.8,0l-0.5-0.4L27.5,42.5z"/>
	</g>
	<g>
		<path class="st1" d="M27.5,40.2l-0.8-0.5l-0.6,0l-0.6-0.2l-0.7,0.5l-0.7-0.7l-1,0.6l-1.1-0.4l-0.5,0.2l-1.1,0l-0.4-0.4l-0.7,0.5
			l-0.1,0c-0.2,0-0.5-0.1-0.6,0c-0.1,0-0.4,0.2-0.5,0.3L17.9,40l-0.4-0.6L17,40l-0.5-0.4l-1.1,0.3l-0.6-0.6l-0.9,0.4l-0.4-0.2
			l-1,0.4l-0.9-0.4L11,39.9l-0.9-0.4l-0.9,0.4l-0.8-0.4l-0.7,0.4l-0.5-0.4l-0.7,0.4L5,39.5l-1.2,0.2L3,39.3L3.2,39l0.7,0.4L5,39.2
			l1.4,0.2L7.2,39l0.5,0.4L8.4,39l0.9,0.4l0.9-0.4l0.8,0.4l0.6-0.4l0.9,0.4l1-0.4l0.4,0.2l1-0.4l0.6,0.6l1.1-0.3l0.4,0.3l0.5-0.7
			l0.5,0.7c0.1-0.1,0.3-0.2,0.4-0.2c0.2-0.1,0.5,0,0.6,0l0.8-0.6l0.5,0.5l0.9,0l0.5-0.2l1,0.4l1.1-0.7l0.7,0.7l0.7-0.4l0.8,0.3
			l0.7,0l0.6,0.4l0.7-0.9l0.7,0.5l1.6,0l0.8-0.5l0.6,0.5l0.8,0l0.8-0.5l0.5,0.5l0.6-0.4l0.6,0.5l0.7-0.5l0.5,0.5l0.7-0.4l0.5,0.5
			L38,39l0.4,0.5L39,39l0.5,0.5l0.9,0c0.2-0.5,0.4-0.5,0.4-0.5c0.1,0,0.2,0,0.2,0.1c0.1,0.1,0.3,0.3,0.5,0.4l-0.2,0.3
			c-0.1,0-0.4-0.2-0.5-0.4c-0.1,0.1-0.1,0.2-0.2,0.3l0,0.1l-1.2,0L39,39.4l-0.7,0.5l-0.4-0.5l-0.6,0.4l-0.5-0.5L36,39.8l-0.5-0.5
			l-0.6,0.4l-0.6-0.5l-0.6,0.5l-0.5-0.5l-0.6,0.4l-1,0l-0.5-0.4l-0.7,0.4l-1.8,0l-0.5-0.4L27.5,40.2z"/>
	</g>
	<g>
		<path class="st1" d="M27.5,37.9l-0.8-0.5l-0.6,0l-0.6-0.2l-0.7,0.5L24,36.9l-1,0.6l-1.1-0.4l-0.5,0.2l-1.1,0l-0.4-0.4l-0.7,0.5
			l-0.1,0c-0.2,0-0.5-0.1-0.6,0c-0.1,0-0.4,0.2-0.5,0.3L18,37.8l-0.4-0.6l-0.5,0.6l-0.5-0.4l-1.1,0.3L14.8,37l-0.9,0.4l-0.4-0.2
			l-1,0.4l-0.9-0.4L11,37.6l-0.9-0.4l-0.9,0.4l-0.8-0.4l-0.7,0.4l-0.5-0.4l-0.7,0.4L5,37.3l-1.2,0.2L3,37l0.2-0.3l0.7,0.4L5,36.9
			l1.4,0.2l0.8-0.4l0.5,0.4l0.7-0.4l0.9,0.4l0.9-0.4l0.8,0.4l0.6-0.4l0.9,0.4l1-0.4l0.4,0.2l1-0.4l0.6,0.6l1.1-0.3l0.4,0.3l0.5-0.7
			l0.5,0.7c0.1-0.1,0.3-0.2,0.4-0.2c0.2-0.1,0.5,0,0.6,0l0.8-0.6l0.5,0.5l0.9,0l0.5-0.2l1,0.4l1.1-0.7l0.7,0.7l0.7-0.4l0.8,0.3
			l0.7,0l0.6,0.4l0.7-0.9l0.7,0.5l1.6,0l0.8-0.5l0.6,0.5l0.8,0l0.8-0.5l0.5,0.5l0.6-0.4l0.6,0.5l0.7-0.5l0.5,0.5l0.7-0.4l0.5,0.5
			l0.7-0.5l0.4,0.5l0.6-0.4l0.5,0.5l0.9,0c0.2-0.5,0.4-0.5,0.4-0.5c0.1,0,0.2,0,0.2,0.1c0.1,0.1,0.3,0.3,0.5,0.4l-0.2,0.3
			c-0.1,0-0.4-0.2-0.5-0.4c-0.1,0.1-0.1,0.2-0.2,0.3l0,0.1l-1.2,0L39,37.2l-0.7,0.5l-0.4-0.5l-0.6,0.4l-0.5-0.5L36,37.6l-0.5-0.5
			l-0.6,0.4l-0.6-0.5l-0.6,0.5l-0.5-0.5l-0.6,0.4l-1,0L31.1,37l-0.7,0.4l-1.8,0L28.1,37L27.5,37.9z"/>
	</g>
	<g>
		
			<rect x="58.7" y="47.9" transform="matrix(8.932730e-03 -1 1 8.932730e-03 9.4731 107.3279)" class="st1" width="0.3" height="1.9"/>
	</g>
	<g>
		
			<rect x="58.7" y="45.3" transform="matrix(9.101258e-03 -1 1 9.101258e-03 12.0634 104.743)" class="st1" width="0.3" height="1.9"/>
	</g>
	<g>
		
			<rect x="58.7" y="42.9" transform="matrix(8.932730e-03 -1 1 8.932730e-03 14.4491 102.3961)" class="st1" width="0.3" height="1.9"/>
	</g>
	<g>
		
			<rect x="58.7" y="40.9" transform="matrix(9.101258e-03 -1 1 9.101258e-03 16.5259 100.321)" class="st1" width="0.3" height="1.9"/>
	</g>
	<g>
		
			<rect x="58.7" y="38.4" transform="matrix(9.101258e-03 -1 1 9.101258e-03 18.9375 97.9311)" class="st1" width="0.3" height="1.9"/>
	</g>
	<g>
		
			<rect x="58.7" y="36.2" transform="matrix(9.101258e-03 -1 1 9.101258e-03 21.1969 95.6922)" class="st1" width="0.3" height="1.9"/>
	</g>
	<g>
		
			<rect x="58.7" y="34.3" transform="matrix(9.101258e-03 -1 1 9.101258e-03 23.1006 93.8058)" class="st1" width="0.3" height="1.9"/>
	</g>
	<g>
		
			<rect x="58.7" y="32.2" transform="matrix(8.932730e-03 -1 1 8.932730e-03 25.1886 91.7522)" class="st1" width="0.3" height="1.9"/>
	</g>
	<g>
		<path class="st1" d="M27.5,49.3l-0.8-0.5l-0.7,0l-0.6-0.2L24.7,49L24,48.3l-1,0.6l-1.1-0.4l-0.5,0.2l-1.1,0l-0.4-0.4l-0.7,0.6
			l-0.1,0c-0.2,0-0.5,0-0.6,0c-0.1,0-0.4,0.2-0.5,0.3L18,49.2l-0.4-0.6L17,49.2l-0.5-0.4l-1.1,0.3l-0.6-0.6l-0.9,0.4l-0.4-0.2
			l-1,0.4l-0.9-0.4L11,49.1l-0.9-0.4l-0.9,0.4l-0.8-0.4l-0.7,0.4l-0.5-0.4l-0.7,0.4L5,48.8L3.8,49L3,48.6l0.2-0.3l0.7,0.4L5,48.5
			l1.4,0.2l0.8-0.4l0.5,0.4l0.7-0.4l0.9,0.4l0.9-0.4l0.8,0.4l0.6-0.4l0.9,0.4l1-0.4l0.4,0.2l1-0.4l0.7,0.6l1.1-0.3l0.4,0.3l0.5-0.7
			l0.5,0.7c0.1-0.1,0.3-0.2,0.4-0.2c0.2-0.1,0.5,0,0.6,0l0.8-0.6l0.5,0.5l0.9,0l0.5-0.2l1,0.4l1.1-0.7l0.7,0.7l0.7-0.4l0.8,0.3
			l0.7,0l0.6,0.4l0.7-0.9l0.7,0.5l1.6,0l0.8-0.5l0.6,0.5l0.8,0l0.8-0.5l0.5,0.5l0.6-0.4l0.6,0.5l0.7-0.5l0.5,0.5l0.7-0.5l0.5,0.5
			L38,48l0.4,0.5L39,48l0.5,0.5l0.9,0c0.2-0.5,0.4-0.5,0.4-0.5c0.1,0,0.2,0,0.2,0.1c0.1,0.1,0.3,0.3,0.5,0.4l-0.2,0.3
			c-0.1,0-0.4-0.2-0.5-0.4c-0.1,0.1-0.1,0.2-0.2,0.3l0,0.1l-1.2,0L39,48.5l-0.7,0.5l-0.4-0.5l-0.6,0.4l-0.5-0.5L36,48.9l-0.5-0.5
			l-0.6,0.4l-0.6-0.5l-0.6,0.5l-0.5-0.5l-0.6,0.4l-1,0l-0.5-0.4l-0.7,0.4l-1.8,0l-0.5-0.4L27.5,49.3z"/>
	</g>
	<g>
		<path class="st1" d="M27.5,46.9l-0.8-0.5l-0.7,0l-0.6-0.2l-0.7,0.5l-0.7-0.7l-1,0.6l-1.1-0.4l-0.5,0.2l-1.1,0l-0.4-0.4l-0.7,0.5
			l-0.1,0c-0.2,0-0.5-0.1-0.6,0c-0.1,0-0.4,0.2-0.5,0.3l-0.1,0.1l-0.4-0.6L17,46.8l-0.5-0.4l-1.1,0.3l-0.6-0.6l-0.9,0.4l-0.4-0.2
			l-1,0.4l-0.9-0.4l-0.6,0.4l-0.9-0.4l-0.9,0.4l-0.8-0.4l-0.7,0.4l-0.5-0.4l-0.7,0.4L5,46.3l-1.2,0.2L3,46l0.2-0.3l0.7,0.4L5,45.9
			l1.4,0.2l0.8-0.4l0.5,0.4l0.7-0.4l0.9,0.4l0.9-0.4l0.8,0.4l0.6-0.4l0.9,0.4l1-0.4l0.4,0.2l1-0.4l0.6,0.6l1.1-0.3l0.4,0.3l0.5-0.7
			l0.5,0.7c0.1-0.1,0.3-0.2,0.4-0.2c0.2-0.1,0.5,0,0.6,0l0.8-0.6l0.5,0.5l0.9,0l0.5-0.2l1,0.4l1.1-0.7l0.7,0.7l0.7-0.4l0.8,0.3
			l0.7,0l0.6,0.4l0.7-0.9l0.6,0.5l1.6,0l0.8-0.5l0.6,0.5l0.8,0l0.8-0.5l0.5,0.5l0.6-0.4l0.6,0.5l0.7-0.5l0.5,0.5l0.7-0.4l0.5,0.5
			l0.7-0.5l0.4,0.5l0.6-0.4l0.5,0.5l0.9,0c0.2-0.5,0.4-0.5,0.4-0.5c0.1,0,0.2,0,0.2,0.1c0.1,0.1,0.3,0.3,0.5,0.4l-0.2,0.3
			c-0.1,0-0.4-0.2-0.5-0.4c-0.1,0.1-0.1,0.2-0.2,0.3l0,0.1l-1.2,0L39,46.2l-0.7,0.5l-0.4-0.5l-0.6,0.4l-0.5-0.5L36,46.6l-0.5-0.5
			l-0.6,0.4l-0.6-0.5l-0.6,0.5l-0.5-0.5l-0.6,0.4l-1,0L31.1,46l-0.7,0.4l-1.8,0L28.1,46L27.5,46.9z"/>
	</g>
	<g>
		<path class="st1" d="M27.5,44.7l-0.8-0.5l-0.7,0l-0.6-0.2l-0.7,0.5L24,43.7l-1,0.6l-1.1-0.4L21.4,44l-1.1,0l-0.4-0.4l-0.7,0.5
			l-0.1,0c-0.2,0-0.5-0.1-0.6,0c-0.1,0-0.4,0.2-0.5,0.3L18,44.5l-0.4-0.6l-0.5,0.6l-0.5-0.4l-1.1,0.3l-0.6-0.6l-0.9,0.4L13.5,44
			l-1,0.4l-0.9-0.4L11,44.4l-0.9-0.4l-0.9,0.4l-0.8-0.4l-0.7,0.4l-0.5-0.4l-0.7,0.4L5,44l-1.2,0.2L3,43.8l0.2-0.3l0.7,0.4L5,43.7
			l1.4,0.2l0.8-0.4l0.5,0.4l0.7-0.4l0.9,0.4l0.9-0.4l0.8,0.4l0.6-0.4l0.9,0.4l1-0.4l0.4,0.2l1-0.4l0.6,0.6l1.1-0.3L17,44l0.5-0.7
			L18,44c0.1-0.1,0.3-0.2,0.4-0.2c0.2-0.1,0.5,0,0.6,0l0.8-0.6l0.5,0.5l0.9,0l0.5-0.2l1,0.4l1.1-0.7l0.7,0.7l0.7-0.4l0.8,0.3l0.7,0
			l0.6,0.4l0.7-0.9l0.6,0.5l1.6,0l0.8-0.5l0.6,0.5l0.8,0l0.8-0.5l0.5,0.5l0.6-0.4l0.6,0.5l0.7-0.5l0.5,0.5l0.7-0.4l0.5,0.5l0.7-0.5
			l0.4,0.5l0.6-0.4l0.5,0.5l0.9,0c0.2-0.5,0.4-0.5,0.4-0.5c0.1,0,0.2,0,0.2,0.1c0.1,0.1,0.3,0.3,0.5,0.4l-0.2,0.3
			c-0.1,0-0.4-0.2-0.5-0.4c-0.1,0.1-0.1,0.2-0.2,0.3l0,0.1l-1.2,0L39,43.9l-0.7,0.5l-0.4-0.5l-0.6,0.4l-0.5-0.5L36,44.3l-0.5-0.5
			l-0.6,0.4l-0.6-0.5l-0.6,0.5l-0.5-0.5l-0.6,0.4l-1,0l-0.5-0.4l-0.7,0.4l-1.8,0l-0.5-0.4L27.5,44.7z"/>
	</g>
	<g>
		<path class="st1" d="M55.6,56.3l-1.2-0.7l-0.6,0.3l-0.2-0.4l-0.3,0.4l-0.6-0.3c-0.1,0.1-0.4,0.3-0.6,0.2c-0.1-0.1-0.3-0.3-0.5-0.4
			l-0.6,0.5l-0.5-0.5c-0.2,0.2-0.4,0.4-0.6,0.4c0,0,0,0,0,0c-0.1,0-0.1,0-0.2-0.1c-0.1-0.1-0.3-0.2-0.4-0.4l-0.5,0.5l-0.7-0.5
			l-0.8,0.8l-0.3-0.6l-0.8,0c-1,0.4-1.2,0.2-1.2,0.2c-0.1-0.1-0.2-0.3-0.3-0.4L44,55.7l-0.5-0.5L43,55.7l-0.7-0.5l-0.9,0.5l-0.1-0.1
			c-0.1,0-0.4-0.2-0.5-0.4c-0.1,0.1-0.1,0.2-0.2,0.3l0,0.1l-1.2,0L39,55.2l-0.7,0.5l-0.4-0.5l-0.6,0.4l-0.5-0.5L36,55.6l-0.5-0.5
			l-0.6,0.4l-0.6-0.5l-0.6,0.5l-0.5-0.5l-0.6,0.4l-1,0l-0.5-0.4l-0.7,0.4l-1.8,0l-0.5-0.4L27.5,56l-0.8-0.5l-0.7,0l-0.6-0.2
			l-0.7,0.5l-0.7-0.7l-1,0.6l-1.1-0.4l-0.5,0.2l-1.1,0l-0.4-0.4l-0.7,0.6l-0.1,0c-0.2,0-0.5,0-0.6,0c-0.1,0-0.4,0.2-0.5,0.3L17.9,56
			l-0.4-0.6L17,56l-0.5-0.4l-1.1,0.3l-0.6-0.6l-0.9,0.4l-0.4-0.2l-1,0.4l-0.9-0.4L11,55.9l-0.9-0.4l-0.9,0.4l-0.8-0.4l-0.7,0.4
			l-0.5-0.4l-0.7,0.4L5,55.6l-1.2,0.2L3,55.3L3.2,55l0.7,0.4L5,55.2l1.4,0.2L7.2,55l0.5,0.4L8.4,55l0.9,0.4l0.9-0.4l0.8,0.4l0.6-0.4
			l0.9,0.4l1-0.4l0.4,0.2l1-0.4l0.7,0.6l1.1-0.3l0.4,0.3l0.5-0.7l0.5,0.7c0.1-0.1,0.3-0.2,0.4-0.2c0.2-0.1,0.5,0,0.6,0l0.8-0.6
			l0.5,0.5l0.9,0l0.5-0.2l1,0.4l1.1-0.7l0.7,0.7l0.7-0.4l0.8,0.3l0.7,0l0.6,0.4l0.7-0.9l0.7,0.5l1.6,0l0.8-0.5l0.6,0.5l0.8,0
			l0.8-0.5l0.5,0.5l0.6-0.4l0.6,0.5l0.7-0.5l0.5,0.5l0.7-0.5l0.5,0.5l0.7-0.5l0.4,0.5l0.6-0.5l0.5,0.5l0.9,0
			c0.2-0.5,0.4-0.5,0.4-0.5c0.1,0,0.2,0,0.2,0.1c0.1,0.1,0.3,0.2,0.4,0.4l0.9-0.5l0.6,0.5l0.5-0.5l0.5,0.5l0.8-0.5l0.1,0.1
			c0,0,0.2,0.3,0.4,0.5c0.1,0,0.5-0.1,0.9-0.2l0,0l1.1,0l0.1,0.4l0.6-0.6l0.7,0.5l0.5-0.5l0.1,0.1c0,0,0.4,0.3,0.5,0.4
			c0.1-0.1,0.3-0.2,0.4-0.4l0.1-0.1l0.5,0.5l0.6-0.5l0.1,0.1c0.1,0.1,0.4,0.4,0.5,0.5c0,0,0.1-0.1,0.2-0.2l0.1-0.1l0.6,0.3l0.4-0.6
			l0.3,0.6l0.5-0.2l1.2,0.7l0.8-0.5l0.6,0.2l0.9-0.2l2,0l0,0.3l-1.9,0l-1,0.2l-0.5-0.2L55.6,56.3z"/>
	</g>
	<g>
		<path class="st1" d="M55.5,54.1l-1.2-0.7l-0.6,0.3l-0.2-0.4l-0.3,0.4l-0.6-0.3c-0.1,0.1-0.4,0.3-0.6,0.2c-0.1-0.1-0.3-0.3-0.5-0.4
			l-0.6,0.5l-0.5-0.5c-0.2,0.2-0.4,0.4-0.6,0.4c0,0,0,0,0,0c-0.1,0-0.1,0-0.2-0.1c-0.1-0.1-0.3-0.2-0.4-0.4l-0.5,0.5L48.1,53
			l-0.8,0.8l-0.2-0.6l-0.8,0c-1,0.4-1.2,0.2-1.2,0.2c-0.1-0.1-0.2-0.3-0.3-0.4L44,53.4L43.5,53L43,53.4l-0.7-0.5l-0.9,0.5l-0.1-0.1
			c-0.1,0-0.4-0.2-0.5-0.4c-0.1,0.1-0.1,0.2-0.2,0.3l0,0.1l-1.2,0L39,52.9l-0.7,0.5l-0.4-0.5l-0.6,0.4l-0.5-0.5L36,53.3l-0.5-0.5
			l-0.6,0.4l-0.6-0.5l-0.6,0.5l-0.5-0.5l-0.6,0.4l-1,0l-0.5-0.4l-0.7,0.4l-1.8,0l-0.5-0.4l-0.7,0.9l-0.8-0.5l-0.7,0l-0.6-0.2
			l-0.7,0.5l-0.7-0.7l-1,0.6l-1.1-0.4L21.4,53l-1.1,0l-0.4-0.4l-0.7,0.5l-0.1,0c-0.2,0-0.5-0.1-0.6,0c-0.1,0-0.4,0.2-0.5,0.3
			l-0.1,0.1l-0.4-0.6L17,53.5l-0.5-0.4l-1.1,0.3l-0.6-0.6l-0.9,0.4L13.4,53l-1,0.4l-0.9-0.4l-0.6,0.4l-0.9-0.4l-0.9,0.4l-0.8-0.4
			l-0.7,0.4l-0.5-0.4l-0.7,0.4L5,53l-1.2,0.2L3,52.8l0.2-0.3l0.7,0.4L5,52.7l1.4,0.2l0.8-0.4l0.5,0.4l0.7-0.4l0.9,0.4l0.9-0.4
			l0.8,0.4l0.6-0.4l0.9,0.4l1-0.4l0.4,0.2l1-0.4l0.6,0.6l1.1-0.3L17,53l0.5-0.7L18,53c0.1-0.1,0.3-0.2,0.4-0.2c0.2-0.1,0.5,0,0.6,0
			l0.8-0.6l0.5,0.5l0.9,0l0.5-0.2l1,0.4l1.1-0.7l0.7,0.7l0.7-0.4l0.8,0.3l0.7,0l0.6,0.4l0.7-0.9l0.7,0.5l1.6,0l0.8-0.5l0.6,0.5
			l0.8,0l0.8-0.5l0.5,0.5l0.6-0.4l0.6,0.5l0.7-0.5l0.5,0.5l0.7-0.4l0.5,0.5l0.7-0.5l0.4,0.5l0.6-0.4l0.5,0.5l0.9,0
			c0.2-0.5,0.4-0.5,0.4-0.5c0.1,0,0.2,0,0.2,0.1c0.1,0.1,0.3,0.2,0.4,0.4l0.9-0.5L43,53l0.5-0.5l0.5,0.5l0.8-0.5l0.1,0.1
			c0,0,0.2,0.3,0.4,0.5c0.1,0,0.5-0.1,0.9-0.2l0,0l1.1,0l0.1,0.4l0.6-0.6l0.7,0.5l0.5-0.5l0.1,0.1c0,0,0.4,0.3,0.5,0.5
			c0.1-0.1,0.3-0.2,0.5-0.4l0.1-0.1l0.5,0.5l0.6-0.5l0.1,0.1c0.1,0.1,0.4,0.4,0.5,0.5c0,0,0.1-0.1,0.2-0.2l0.1-0.1l0.6,0.3l0.4-0.6
			l0.3,0.6l0.5-0.2l1.2,0.7l0.8-0.5l0.6,0.2l0.9-0.2l2,0l0,0.3l-1.9,0l-1,0.2l-0.5-0.2L55.5,54.1z"/>
	</g>
	<g>
		<path class="st1" d="M55.6,60.9l-1.2-0.7l-0.6,0.3L53.5,60l-0.3,0.4l-0.6-0.3c-0.1,0.1-0.4,0.3-0.6,0.2c-0.1-0.1-0.3-0.3-0.5-0.4
			l-0.6,0.5l-0.5-0.5c-0.2,0.2-0.4,0.4-0.6,0.4c0,0,0,0,0,0c-0.1,0-0.1,0-0.2-0.1c-0.1-0.1-0.3-0.2-0.4-0.4l-0.5,0.5l-0.7-0.5
			l-0.8,0.8L47.1,60l-0.8,0c-1,0.4-1.2,0.2-1.2,0.2c-0.1-0.1-0.2-0.3-0.3-0.4L44,60.3l-0.5-0.5L43,60.3l-0.7-0.5l-0.9,0.5l-0.1-0.1
			c-0.1,0-0.4-0.2-0.5-0.4c-0.1,0.1-0.1,0.2-0.2,0.3l0,0.1l-1.2,0L39,59.8l-0.7,0.5l-0.4-0.5l-0.6,0.4l-0.5-0.5L36,60.2l-0.5-0.5
			l-0.6,0.4l-0.6-0.5l-0.6,0.5l-0.5-0.5l-0.6,0.4l-1,0l-0.5-0.4l-0.7,0.4l-1.8,0l-0.5-0.4l-0.6,0.9l-0.8-0.5l-0.7,0l-0.6-0.2
			l-0.7,0.5l-0.7-0.7l-1,0.6l-1.1-0.4l-0.5,0.2l-1.1,0l-0.4-0.4l-0.7,0.6l-0.1,0c-0.2,0-0.5,0-0.6,0c-0.1,0-0.4,0.2-0.5,0.3
			l-0.1,0.1L17.5,60L17,60.5l-0.5-0.4l-1.1,0.3l-0.6-0.6l-0.9,0.4l-0.4-0.2l-1,0.4L11.6,60L11,60.5L10.1,60l-0.9,0.4L8.4,60
			l-0.7,0.4L7.1,60l-0.7,0.4L5,60.2l-1.2,0.2L3,59.9l0.2-0.3L3.9,60L5,59.8L6.4,60l0.8-0.4L7.7,60l0.7-0.4l0.9,0.4l0.9-0.4l0.8,0.4
			l0.6-0.4l0.9,0.4l1-0.4l0.4,0.2l1-0.4l0.7,0.6l1.1-0.3l0.4,0.3l0.5-0.7l0.5,0.7c0.1-0.1,0.3-0.2,0.4-0.2c0.2-0.1,0.5,0,0.6,0
			l0.8-0.6l0.5,0.5l0.9,0l0.5-0.2l1,0.4l1.1-0.7l0.7,0.7l0.7-0.4l0.8,0.3l0.7,0l0.6,0.4l0.7-0.9l0.7,0.5l1.6,0l0.8-0.5l0.6,0.5
			l0.8,0l0.8-0.5l0.5,0.5l0.6-0.4l0.6,0.5l0.7-0.5l0.5,0.5l0.7-0.5l0.5,0.5l0.7-0.5l0.4,0.5l0.6-0.5l0.5,0.5l0.9,0
			c0.2-0.5,0.4-0.5,0.4-0.5c0.1,0,0.2,0,0.2,0.1c0.1,0.1,0.3,0.2,0.4,0.4l0.9-0.5l0.6,0.5l0.5-0.5l0.5,0.5l0.8-0.5l0.1,0.1
			c0,0,0.2,0.3,0.4,0.5c0.1,0,0.5-0.1,0.9-0.2l0,0l1.1,0l0.1,0.4l0.6-0.6l0.7,0.5l0.5-0.5l0.1,0.1c0,0,0.4,0.3,0.5,0.4
			c0.1-0.1,0.3-0.2,0.4-0.4l0.1-0.1l0.5,0.5l0.6-0.5l0.1,0.1c0.1,0.1,0.4,0.4,0.5,0.5c0,0,0.1-0.1,0.2-0.2l0.1-0.1l0.6,0.3l0.4-0.6
			l0.3,0.6l0.5-0.2l1.2,0.7l0.8-0.5l0.6,0.2l0.9-0.2l2,0l0,0.3l-1.9,0l-1,0.2l-0.5-0.2L55.6,60.9z"/>
	</g>
	<g>
		<path class="st1" d="M55.5,58.7l-1.2-0.7l-0.6,0.3l-0.2-0.4l-0.3,0.4l-0.6-0.3c-0.1,0.1-0.4,0.3-0.6,0.2c-0.1-0.1-0.3-0.3-0.5-0.4
			l-0.6,0.5l-0.5-0.5c-0.2,0.2-0.5,0.4-0.6,0.4c-0.1,0-0.1,0-0.2-0.1c-0.1-0.1-0.3-0.2-0.4-0.4l-0.5,0.5l-0.7-0.5l-0.8,0.8l-0.2-0.6
			l-0.8,0c-1,0.4-1.2,0.2-1.2,0.2c-0.1-0.1-0.2-0.3-0.3-0.4L44,58l-0.5-0.5L43,58l-0.7-0.5L41.4,58l-0.1-0.1c-0.1,0-0.4-0.2-0.5-0.4
			c-0.1,0.1-0.1,0.2-0.2,0.3l0,0.1l-1.2,0L39,57.5L38.3,58l-0.4-0.5l-0.6,0.4l-0.5-0.5L36,57.9l-0.5-0.5l-0.6,0.4l-0.6-0.5l-0.6,0.5
			l-0.5-0.5l-0.6,0.4l-1,0L31,57.4l-0.7,0.4l-1.8,0l-0.5-0.4l-0.7,0.9l-0.8-0.5l-0.6,0l-0.6-0.2l-0.7,0.5l-0.7-0.7l-1,0.6l-1.1-0.4
			l-0.5,0.2l-1.1,0l-0.4-0.4l-0.7,0.5l-0.1,0c-0.2,0-0.5-0.1-0.6,0c-0.1,0-0.4,0.2-0.5,0.3l-0.1,0.1l-0.4-0.6L17,58.1l-0.5-0.4
			L15.4,58l-0.6-0.6l-0.9,0.4l-0.4-0.2l-1,0.4l-0.9-0.4L10.9,58l-0.9-0.4l-0.9,0.4l-0.8-0.4l-0.7,0.4l-0.5-0.4l-0.7,0.4L5,57.6
			l-1.2,0.2L3,57.4l0.2-0.3l0.7,0.4L5,57.3l1.4,0.2l0.8-0.4l0.5,0.4l0.7-0.4l0.9,0.4l0.9-0.4l0.8,0.4l0.6-0.4l0.9,0.4l1-0.4l0.4,0.2
			l1-0.4l0.6,0.6l1.1-0.3l0.4,0.3l0.5-0.7l0.5,0.7c0.1-0.1,0.3-0.2,0.4-0.2c0.2-0.1,0.5,0,0.6,0l0.8-0.6l0.5,0.5l0.9,0l0.5-0.2
			l1,0.4l1.1-0.7l0.7,0.7l0.7-0.4l0.8,0.3l0.7,0l0.6,0.4l0.7-0.9l0.7,0.5l1.6,0l0.8-0.5l0.6,0.5l0.8,0l0.8-0.5l0.5,0.5l0.6-0.4
			l0.6,0.5l0.7-0.5l0.5,0.5l0.7-0.4l0.5,0.5l0.7-0.5l0.4,0.5l0.6-0.4l0.5,0.5l0.9,0c0.2-0.5,0.4-0.5,0.4-0.5c0.1,0,0.2,0,0.2,0.1
			c0.1,0.1,0.3,0.2,0.4,0.4l0.9-0.5l0.6,0.5l0.5-0.5l0.5,0.5l0.8-0.5l0.1,0.1c0,0,0.2,0.3,0.4,0.5c0.1,0,0.5-0.1,0.9-0.2l0,0l1.1,0
			l0.1,0.4l0.6-0.6l0.7,0.5l0.5-0.5l0.1,0.1c0,0,0.4,0.3,0.5,0.5c0.1-0.1,0.3-0.2,0.5-0.4l0.1-0.1l0.5,0.5l0.6-0.5l0.1,0.1
			c0.1,0.1,0.4,0.4,0.5,0.5c0,0,0.1-0.1,0.2-0.2l0.1-0.1l0.6,0.3l0.4-0.6l0.3,0.6l0.5-0.2l1.2,0.7l0.8-0.5l0.6,0.2l0.9-0.2l2,0
			l0,0.3l-1.9,0l-1,0.2l-0.5-0.2L55.5,58.7z"/>
	</g>
	<g>
		<path class="st1" d="M55.6,51.8l-1.2-0.7l-0.6,0.3L53.6,51l-0.3,0.4L52.7,51c-0.1,0.1-0.4,0.3-0.6,0.2c-0.1-0.1-0.3-0.3-0.5-0.4
			l-0.6,0.5l-0.5-0.5c-0.2,0.2-0.4,0.4-0.6,0.4c0,0,0,0,0,0c-0.1,0-0.1,0-0.2-0.1c-0.1-0.1-0.3-0.2-0.4-0.4l-0.5,0.5l-0.7-0.5
			l-0.8,0.8l-0.2-0.6l-0.8,0c-1,0.4-1.2,0.2-1.2,0.2c-0.1-0.1-0.2-0.3-0.3-0.4L44,51.2l-0.5-0.5L43,51.2l-0.7-0.5l-0.9,0.5l-0.1-0.1
			c-0.1,0-0.4-0.2-0.5-0.4c-0.1,0.1-0.1,0.2-0.2,0.3l0,0.1l-1.2,0L39,50.7l-0.7,0.5l-0.4-0.5l-0.6,0.4l-0.5-0.5L36,51.1l-0.5-0.5
			L34.9,51l-0.6-0.5L33.7,51l-0.5-0.5L32.6,51l-1,0l-0.5-0.4l-0.7,0.4l-1.8,0l-0.5-0.4l-0.7,0.9l-0.8-0.5l-0.6,0l-0.6-0.2l-0.7,0.5
			L24,50.4l-1,0.6l-1.1-0.4l-0.5,0.2l-1.1,0l-0.4-0.4l-0.7,0.5l-0.1,0c-0.2,0-0.5-0.1-0.6,0c-0.1,0-0.4,0.2-0.5,0.3L18,51.3
			l-0.4-0.6l-0.5,0.6l-0.5-0.4l-1.1,0.3l-0.6-0.6l-0.9,0.4l-0.4-0.2l-1,0.4l-0.9-0.4L11,51.1l-0.9-0.4l-0.9,0.4l-0.8-0.4l-0.7,0.4
			l-0.5-0.4L6.5,51L5,50.8L3.8,51l-0.8-0.5l0.2-0.3l0.7,0.4L5,50.4l1.4,0.2l0.8-0.4l0.5,0.4l0.7-0.4l0.9,0.4l0.9-0.4l0.8,0.4
			l0.6-0.4l0.9,0.4l1-0.4l0.4,0.2l1-0.4l0.6,0.6l1.1-0.3l0.4,0.3l0.5-0.7l0.5,0.7c0.1-0.1,0.3-0.2,0.4-0.2c0.2-0.1,0.5,0,0.6,0
			l0.8-0.6l0.5,0.5l0.9,0l0.5-0.2l1,0.4L24,50l0.7,0.7l0.7-0.4l0.8,0.3l0.7,0l0.6,0.4l0.7-0.9l0.7,0.5l1.6,0l0.8-0.5l0.6,0.5l0.8,0
			l0.8-0.5l0.5,0.5l0.6-0.4l0.6,0.5l0.7-0.5l0.5,0.5l0.7-0.4l0.5,0.5l0.7-0.5l0.4,0.5l0.6-0.4l0.5,0.5l0.9,0
			c0.2-0.5,0.4-0.5,0.4-0.5c0.1,0,0.2,0,0.2,0.1c0.1,0.1,0.3,0.2,0.4,0.4l0.9-0.5l0.6,0.5l0.5-0.5l0.5,0.5l0.8-0.5l0.1,0.1
			c0,0,0.2,0.3,0.4,0.5c0.1,0,0.5-0.1,0.9-0.2l0,0l1.1,0l0.1,0.4l0.6-0.6l0.7,0.5l0.5-0.5l0.1,0.1c0,0,0.4,0.3,0.5,0.5
			c0.1-0.1,0.3-0.2,0.5-0.4l0.1-0.1l0.5,0.5l0.6-0.5l0.1,0.1c0.1,0.1,0.4,0.4,0.5,0.5c0,0,0.1-0.1,0.2-0.2l0.1-0.1l0.6,0.3l0.4-0.6
			l0.3,0.6l0.5-0.2l1.2,0.7l0.8-0.5l0.6,0.2l0.9-0.2l2,0l0,0.3l-1.9,0l-1,0.2l-0.5-0.2L55.6,51.8z"/>
	</g>
	<g>
		<path class="st1" d="M58,49.3H41.1V32.4H58V49.3z M41.8,48.6h15.5V33.1H41.8V48.6z"/>
	</g>
	<g>
		<rect x="41.5" y="34.4" class="st1" width="16.4" height="0.7"/>
	</g>
	<g>
		<path class="st1" d="M56.8,77.8c-0.6,0-1.2-0.2-1.9-0.8L54.8,77V66.5h4.1v10.5L58.8,77C58.8,77,58,77.8,56.8,77.8z M55.5,76.6
			c1.3,1,2.4,0.3,2.8,0v-9.5h-2.8V76.6z"/>
	</g>
	<g>
		<path class="st1" d="M57.6,74.9c-0.1,0-0.3-0.1-0.3-0.3v-5.4c0-0.1,0.1-0.3,0.3-0.3c0.1,0,0.3,0.1,0.3,0.3v5.4
			C57.9,74.8,57.8,74.9,57.6,74.9z"/>
	</g>
	<g>
		<path class="st1" d="M57.6,22.9c-0.1,0-0.3-0.1-0.3-0.3v-5.4c0-0.1,0.1-0.3,0.3-0.3c0.1,0,0.3,0.1,0.3,0.3v5.4
			C57.9,22.8,57.8,22.9,57.6,22.9z"/>
	</g>
	<g>
		<g>
			<polygon class="st1" points="58.3,25.7 58.2,16.1 61.5,16.1 61.5,16.7 58.9,16.7 59,25.7 			"/>
		</g>
		<g>
			<path class="st1" d="M55.5,25.7h-0.7V9.5h-5.7l0.1-3.7h5.6V3.1c0-1.5,1.3-2.8,2.8-2.8h23.2c1.2,0,2.2,1,2.2,2.2
				c0,1-0.8,1.9-1.9,1.9H58.9v8.7h2.6v0.7h-3.3v-10h22.9c0.7,0,1.2-0.5,1.2-1.2c0-0.8-0.7-1.5-1.5-1.5H57.6c-1.2,0-2.1,1-2.1,2.1
				v3.4h-5.6l0,2.3h5.7V25.7z"/>
		</g>
		<g>
			<path class="st1" d="M66.6,22.2c0,0-0.1,0-0.1,0c-1.2-1-1-2.8-1-2.8c0-0.1,0.1-0.2,0.2-0.1c0.1,0,0.2,0.1,0.1,0.2
				c0,0-0.2,1.6,0.8,2.5c0.1,0.1,0.1,0.2,0,0.2C66.7,22.1,66.7,22.2,66.6,22.2z"/>
		</g>
		<g>
			<path class="st1" d="M73.9,23c-0.1,0-0.1,0-0.1-0.1c-0.1-0.1,0-0.2,0-0.2c0,0,0.8-0.6,1.1-1.3c0-0.1,0.1-0.1,0.2-0.1
				c0.1,0,0.1,0.1,0.1,0.2C74.9,22.3,74.1,22.9,73.9,23C74,23,74,23,73.9,23z"/>
		</g>
		<g>
			<path class="st1" d="M72.6,19.3c-0.2,0-0.5,0-0.7,0c-3.6,0-7.3-0.2-7.3-0.2c-2.4-0.2-2.9-0.9-3-1l-0.1-0.1v-1.2h-0.1
				c-0.2,0-0.3-0.1-0.4-0.2c-0.1-0.1-0.2-0.3-0.1-0.4L62,7.7c0.1-0.8,0.6-1.4,1.4-1.7l3.4-1.2c0.9-0.3,1.8-0.5,2.7-0.6
				c1.4-0.1,2.5,0,3.2,0c0.6,0.1,1.2,0.2,1.8,0.4l3.4,1.3c0.9,0.4,1.5,1.2,1.7,2.1l1,8.1c0,0.2,0,0.3-0.1,0.4
				c-0.1,0.1-0.3,0.2-0.4,0.2l-0.3,0l0,1.2C79.6,18.5,79.5,19.3,72.6,19.3z M62.2,17.7c0.2,0.1,0.8,0.5,2.5,0.6
				c6.5,0.4,13.9,0.4,14.4-0.4v-1.7l0.8-0.1l-1-8c-0.1-0.7-0.6-1.3-1.3-1.6l-3.4-1.3c-0.5-0.2-1-0.3-1.6-0.4c-0.7-0.1-1.7-0.1-3.1,0
				c-0.8,0.1-1.7,0.2-2.5,0.5l-3.4,1.2c-0.5,0.2-0.9,0.6-0.9,1.2L61.5,16h0.6V17.7z M79.9,16.3L79.9,16.3L79.9,16.3z M61.5,16.2
				L61.5,16.2C61.5,16.2,61.5,16.2,61.5,16.2z"/>
		</g>
		<g>
			<path class="st1" d="M74.1,16.8c-5.6,0-12.4-0.3-12.9-0.3c-0.1,0-0.2-0.1-0.2-0.3c0-0.1,0.1-0.3,0.3-0.2c0.1,0,14.6,0.6,18.8,0.1
				c0.1,0,0.3,0.1,0.3,0.2c0,0.1-0.1,0.3-0.2,0.3C78.8,16.8,76.5,16.8,74.1,16.8z"/>
		</g>
		<g>
			<path class="st1" d="M71,7.4c-3.3,0-6.1-0.2-6.2-0.2c-0.1,0-0.2-0.1-0.2-0.3c0-0.1,0.1-0.2,0.3-0.2c0.1,0,6.4,0.5,11.1,0
				c0.1,0,0.3,0.1,0.3,0.2c0,0.1-0.1,0.3-0.2,0.3C74.5,7.3,72.7,7.4,71,7.4z"/>
		</g>
		<g>
			<path class="st1" d="M79.4,18.2C79.4,18.2,79.4,18.2,79.4,18.2C74.9,18,62,18,61.8,18c-0.1,0-0.2-0.1-0.2-0.2
				c0-0.1,0.1-0.2,0.2-0.2c0.1,0,13.1,0,17.6,0.2c0.1,0,0.2,0.1,0.2,0.2C79.6,18.1,79.5,18.2,79.4,18.2z"/>
		</g>
		<g>
			<path class="st1" d="M70.7,24.9c-1.8,0-3.3-0.5-4.3-1.6c-1.8-1.8-1.7-4.5-1.7-4.6c0-0.1,0.1-0.2,0.3-0.2c0,0,0,0,0,0
				c0.1,0,0.2,0.1,0.2,0.3c0,0-0.1,2.6,1.5,4.2c0.9,1,2.3,1.5,4,1.5c0,0,0,0,0.1,0c2.4,0,4.1-0.9,5.1-2.7c0.7-1.4,0.8-2.7,0.8-2.7
				c0-0.1,0.1-0.2,0.3-0.2c0.1,0,0.2,0.1,0.2,0.3C77.1,19,76.9,24.9,70.7,24.9C70.7,24.9,70.7,24.9,70.7,24.9z"/>
		</g>
		<g>
			<path class="st1" d="M73,23.8h-4.1v-5.1H73V23.8z M69.2,23.5h3.5V19h-3.5V23.5z"/>
		</g>
		<g>
			<path class="st1" d="M70.9,22.5c-0.7,0-1.3-0.6-1.3-1.3s0.6-1.3,1.3-1.3s1.3,0.6,1.3,1.3S71.6,22.5,70.9,22.5z M70.9,20.1
				c-0.6,0-1,0.4-1,1s0.4,1,1,1s1-0.4,1-1S71.4,20.1,70.9,20.1z"/>
		</g>
		<g>
			<path class="st1" d="M55.2,6.2"/>
		</g>
		<g>
			<path class="st1" d="M59.4,8"/>
		</g>
		<g>
			<path class="st1" d="M54.9,11.9"/>
		</g>
		<g>
			<path class="st1" d="M72.8,23.1H69c-0.1,0-0.2-0.1-0.2-0.2c0-0.1,0.1-0.2,0.2-0.2h3.8c0.1,0,0.2,0.1,0.2,0.2
				C73,23,72.9,23.1,72.8,23.1z"/>
		</g>
		<g>
			<path class="st1" d="M70.9,21.9c-0.4,0-0.8-0.3-0.8-0.8c0-0.4,0.3-0.8,0.8-0.8s0.8,0.3,0.8,0.8C71.6,21.5,71.3,21.9,70.9,21.9z
				 M70.9,20.7c-0.2,0-0.4,0.2-0.4,0.4c0,0.2,0.2,0.4,0.4,0.4c0.2,0,0.4-0.2,0.4-0.4C71.3,20.9,71.1,20.7,70.9,20.7z"/>
		</g>
		<g>
			<path class="st1" d="M51.3,9.4c-0.1,0-0.2-0.1-0.2-0.2v-3c0-0.1,0.1-0.2,0.2-0.2s0.2,0.1,0.2,0.2v3C51.5,9.3,51.4,9.4,51.3,9.4z"
				/>
		</g>
		<g>
			<path class="st1" d="M52.4,9.4c-0.1,0-0.2-0.1-0.2-0.2v-3c0-0.1,0.1-0.2,0.2-0.2s0.2,0.1,0.2,0.2v3C52.6,9.3,52.5,9.4,52.4,9.4z"
				/>
		</g>
		<g>
			<path class="st1" d="M79.4,4.2c-0.1,0-0.2-0.1-0.2-0.2V0.7c0-0.1,0.1-0.2,0.2-0.2c0.1,0,0.2,0.1,0.2,0.2V4
				C79.6,4.1,79.5,4.2,79.4,4.2z"/>
		</g>
		<g>
			<path class="st1" d="M77.7,4.2c-0.1,0-0.2-0.1-0.2-0.2V0.7c0-0.1,0.1-0.2,0.2-0.2s0.2,0.1,0.2,0.2V4C77.9,4.1,77.8,4.2,77.7,4.2z
				"/>
		</g>
	</g>
	<g>
		<path class="st1" d="M56.8,79.1c-3.4,0-9.2-0.4-9.2-2c0-1.5,5.6-1.9,7.3-1.9l0,0.7c-4.6,0.2-6.6,0.9-6.7,1.3
			c0.1,0.4,3.2,1.3,8.6,1.3s8.5-0.9,8.6-1.3c-0.1-0.3-2.1-1.1-6.5-1.3l0-0.7c1.7,0.1,7.2,0.4,7.2,1.9C66.1,78.7,60.3,79.1,56.8,79.1
			z"/>
	</g>
	<g>
		<path class="st1" d="M56.7,81.3c-5.3,0-8.8-1.4-8.9-1.4l-0.2-0.1v-2.7h0.7v2.2c1.3,0.5,8.3,2.6,17.1,0v-2.2H66v2.7l-0.2,0.1
			C62.4,80.9,59.3,81.3,56.7,81.3z"/>
	</g>
	<g>
		<path class="st1" d="M81.6,3.6"/>
	</g>
</g>
</svg>
