<?xml version="1.0" encoding="utf-8"?>
<!-- Generator: Adobe Illustrator 20.0.0, SVG Export Plug-In . SVG Version: 6.00 Build 0)  -->
<svg version="1.1" id="Layer_1" xmlns="http://www.w3.org/2000/svg" xmlns:xlink="http://www.w3.org/1999/xlink" x="0px" y="0px"
	 width="22px" height="19px" viewBox="0 0 22 19" style="enable-background:new 0 0 22 19;" xml:space="preserve">
<style type="text/css">
	.st0{fill:#999999;}
</style>
<g>
	<path class="st0" d="M10.4,10.5L9.5,9.8l0,0C9.2,9.5,9,9.4,9,9c0-0.3,0.2-0.6,0.5-0.9l0,0c1-0.8,2.2-1.7,2.2-3.7
		c0-1.3-0.6-2.2-1.2-2.9h0.6l3-1.6H7.6C6.4,0,4.5,0.2,3,1.4l0,0C1.9,2.3,1.2,3.6,1.2,4.9c0,1,0.4,2.1,1.2,2.8C3.5,8.8,4.8,9,5.7,9
		C5.8,9,5.9,9,6,9c0,0.1-0.1,0.3-0.1,0.5c0,0.5,0.2,1,0.4,1.3c-1.2,0.1-2.9,0.3-4.2,1.1C0.2,13.1,0,14.7,0,15.2
		C0,17.1,1.8,19,5.7,19c4.5,0,6.9-2.5,6.9-4.9C12.6,12.3,11.5,11.3,10.4,10.5z M4.2,3.8c0-0.7,0.1-1.2,0.5-1.5
		C5,1.8,5.5,1.6,6.1,1.6c1,0,1.6,0.7,2,1.4c0.5,0.8,0.7,1.8,0.7,2.6c0,0.2,0,1-0.5,1.5C8,7.4,7.4,7.6,6.9,7.6c-1,0-1.7-0.7-2-1.3
		C4.4,5.4,4.2,4.4,4.2,3.8z M10.2,15c0,1.4-1.2,2.2-3.3,2.2c-2.4,0-4-1-4-2.5c0-1.3,1.1-1.8,1.9-2.1c0.9-0.3,2.2-0.4,2.5-0.4
		c0.2,0,0.3,0,0.4,0C9.5,13.5,10.2,14,10.2,15z"/>
	<polygon class="st0" points="18.3,3.9 18.3,0 16.6,0 16.6,3.9 12.7,3.9 12.7,5.5 16.6,5.5 16.6,9.5 18.3,9.5 18.3,5.5 22.1,5.5 
		22.1,3.9 	"/>
</g>
</svg>
