<?xml version="1.0" encoding="utf-8"?>
<!-- Generator: Adobe Illustrator 20.0.0, SVG Export Plug-In . SVG Version: 6.00 Build 0)  -->
<svg version="1.1" id="Layer_1" xmlns="http://www.w3.org/2000/svg" xmlns:xlink="http://www.w3.org/1999/xlink" x="0px" y="0px"
	 width="19px" height="19px" viewBox="0 0 19 19" style="enable-background:new 0 0 19 19;" xml:space="preserve">
<style type="text/css">
	.st0{fill:#999999;}
</style>
<g>
	<path class="st0" d="M17.5,0H1.6C0.8,0,0,0.6,0,1.5v15.9C0,18.2,0.8,19,1.6,19h15.9c0.9,0,1.5-0.8,1.5-1.6V1.5
		C19,0.6,18.3,0,17.5,0z M5.9,15.8H3.2V7.4h2.7V15.8z M4.6,6.1L4.6,6.1c-0.9,0-1.5-0.6-1.5-1.5c0-0.8,0.6-1.5,1.5-1.5
		s1.4,0.6,1.5,1.5C6.1,5.4,5.5,6.1,4.6,6.1z M15.8,15.8h-2.7v-4.6c0-1.1-0.4-1.9-1.4-1.9c-0.8,0-1.2,0.5-1.4,1
		c-0.1,0.2-0.1,0.4-0.1,0.7v4.8H7.5V7.4h2.7v1.2c0.4-0.6,1-1.4,2.5-1.4c1.8,0,3.1,1.2,3.1,3.7V15.8z"/>
</g>
</svg>
