<?xml version="1.0" encoding="utf-8"?>
<!-- Generator: Adobe Illustrator 20.0.0, SVG Export Plug-In . SVG Version: 6.00 Build 0)  -->
<svg version="1.1" id="Layer_1" xmlns="http://www.w3.org/2000/svg" xmlns:xlink="http://www.w3.org/1999/xlink" x="0px" y="0px"
	 width="46px" height="69px" viewBox="0 0 46 69" style="enable-background:new 0 0 46 69;" xml:space="preserve">
<style type="text/css">
	.st0{fill:#303030;}
	.st1{fill:#FFFFFF;}
</style>
<path class="st0" d="M43.9,31.8c1.3-2.7,2-5.8,2-8.9C45.9,10.8,35.7,1,23.1,1S0.3,10.8,0.3,22.9c0,1.3,0.1,2.6,0.3,3.8
	C1.1,29,1.9,31.1,3,33.1c0,0,12.2,21.3,16.8,32.7c0.7,1.8,3.2,2,4.2,0.3c4.3-7.6,12.7-22.4,17.7-30.4C42.2,34.8,43.9,31.8,43.9,31.8
	z"/>
<circle class="st1" cx="23.4" cy="23.8" r="13.7"/>
</svg>
