<?xml version="1.0" encoding="utf-8"?>
<!-- Generator: Adobe Illustrator 20.0.0, SVG Export Plug-In . SVG Version: 6.00 Build 0)  -->
<svg version="1.1" id="Layer_1" xmlns="http://www.w3.org/2000/svg" xmlns:xlink="http://www.w3.org/1999/xlink" x="0px" y="0px"
	 width="46px" height="32px" viewBox="0 0 46 32" style="enable-background:new 0 0 46 32;" xml:space="preserve">
<style type="text/css">
	.st0{fill:#AAAAAA;}
</style>
<g>
	<path class="st0" d="M45.9,25.4c0-2.7-2.2-5-5-5c-1,0-1.9,0.3-2.7,0.8l-6.4-6.7c0.5-0.8,0.8-1.7,0.8-2.8c0-2.7-2.2-5-5-5
		c-2.6,0-4.7,2-4.9,4.6l-2.3,1.9c-0.9-1.4-2.4-2.3-4.2-2.3c-1.2,0-2.2,0.4-3.1,1.1L9.4,8.4c0.5-0.7,0.7-1.6,0.7-2.5c0-2.7-2.2-5-5-5
		c-2.7,0-5,2.2-5,5c0,2.7,2.2,5,5,5c1.2,0,2.3-0.5,3.2-1.2l3.8,3.6c-0.5,0.8-0.8,1.7-0.8,2.6c0,2.7,2.2,5,5,5c2.7,0,5-2.2,5-5
		c0-0.4,0-0.7-0.1-1l1.8-1.6c0.7,2,2.5,3.4,4.7,3.4c1.1,0,2.2-0.4,3-1l6.3,6.6c-0.7,0.8-1.1,1.9-1.1,3c0,2.7,2.2,5,5,5
		C43.6,30.3,45.8,28.1,45.9,25.4z M8.4,5.8c0,1.8-1.5,3.3-3.3,3.3c-1.8,0-3.3-1.5-3.3-3.3s1.5-3.3,3.3-3.3S8.4,4,8.4,5.8z
		 M19.6,15.9c0,1.8-1.5,3.3-3.3,3.3c-1.8,0-3.3-1.5-3.3-3.3c0-1.8,1.5-3.3,3.3-3.3C18.1,12.6,19.6,14,19.6,15.9z M31,11.7
		c0,1.8-1.5,3.3-3.3,3.3c-1.8,0-3.3-1.5-3.3-3.3c0-1.8,1.5-3.3,3.3-3.3C29.5,8.4,31,9.9,31,11.7z M44.2,25.4c0,1.8-1.5,3.3-3.3,3.3
		c-1.8,0-3.3-1.5-3.3-3.3c0-1.8,1.5-3.3,3.3-3.3C42.7,22,44.2,23.5,44.2,25.4z"/>
</g>
</svg>
