<?xml version="1.0" encoding="utf-8"?>
<!-- Generator: Adobe Illustrator 20.0.0, SVG Export Plug-In . SVG Version: 6.00 Build 0)  -->
<svg version="1.1" id="Layer_1" xmlns="http://www.w3.org/2000/svg" xmlns:xlink="http://www.w3.org/1999/xlink" x="0px" y="0px"
	 width="46px" height="32px" viewBox="0 0 46 32" style="enable-background:new 0 0 46 32;" xml:space="preserve">
<style type="text/css">
	.st0{fill:#99CFE2;}
	.st1{fill:#DEF6F9;}
</style>
<g>
	<path class="st0" d="M45.8,24.6c0-2.7-2.2-5-5-5c-1,0-1.9,0.3-2.7,0.8l-6.4-6.7c0.5-0.8,0.8-1.7,0.8-2.8c0-2.7-2.2-5-5-5
		c-2.6,0-4.7,2-4.9,4.6l-2.3,1.9c-0.9-1.4-2.4-2.3-4.2-2.3c-1.2,0-2.2,0.4-3.1,1.1L9.3,7.6C9.7,6.8,10,5.9,10,5c0-2.7-2.2-5-5-5
		c-2.7,0-5,2.2-5,5s2.2,5,5,5c1.2,0,2.3-0.5,3.2-1.2l3.8,3.6c-0.5,0.8-0.8,1.7-0.8,2.6c0,2.7,2.2,5,5,5c2.7,0,5-2.2,5-5
		c0-0.4,0-0.7-0.1-1l1.8-1.6c0.7,2,2.5,3.4,4.7,3.4c1.1,0,2.2-0.4,3-1l6.3,6.6c-0.7,0.8-1.1,1.9-1.1,3c0,2.7,2.2,5,5,5
		C43.5,29.5,45.8,27.3,45.8,24.6z M8.4,5c0,1.8-1.5,3.3-3.3,3.3C3.2,8.3,1.7,6.8,1.7,5S3.2,1.7,5,1.7S8.4,3.2,8.4,5z M19.5,15.1
		c0,1.8-1.5,3.3-3.3,3.3c-1.8,0-3.3-1.5-3.3-3.3c0-1.8,1.5-3.3,3.3-3.3C18,11.8,19.5,13.3,19.5,15.1z M30.9,10.9
		c0,1.8-1.5,3.3-3.3,3.3c-1.8,0-3.3-1.5-3.3-3.3c0-1.8,1.5-3.3,3.3-3.3C29.4,7.6,30.9,9.1,30.9,10.9z M44.1,24.6
		c0,1.8-1.5,3.3-3.3,3.3c-1.8,0-3.3-1.5-3.3-3.3c0-1.8,1.5-3.3,3.3-3.3C42.6,21.2,44.1,22.7,44.1,24.6z"/>
	<circle class="st1" cx="5" cy="5" r="3.4"/>
	<circle class="st1" cx="16.2" cy="15.1" r="3.4"/>
	<circle class="st1" cx="27.6" cy="10.9" r="3.4"/>
	<circle class="st1" cx="40.8" cy="24.6" r="3.4"/>
</g>
</svg>
