<?xml version="1.0" encoding="utf-8"?>
<!-- Generator: Adobe Illustrator 20.0.0, SVG Export Plug-In . SVG Version: 6.00 Build 0)  -->
<svg version="1.1" id="Layer_1" xmlns="http://www.w3.org/2000/svg" xmlns:xlink="http://www.w3.org/1999/xlink" x="0px" y="0px"
	 width="42px" height="43px" viewBox="0 0 42 43" style="enable-background:new 0 0 42 43;" xml:space="preserve">
<style type="text/css">
	.st0{fill:#DEF6F9;}
	.st1{fill:none;stroke:#99CFE2;stroke-width:0.75;stroke-miterlimit:10;}
	.st2{fill:none;stroke:#99CFE2;stroke-linecap:round;stroke-linejoin:round;stroke-miterlimit:10;}
</style>
<g>
	<g>
		<g>
			<path class="st0" d="M15.7,18.9h-4.8c-0.5,0-0.9-0.2-1.2-0.5c-0.3-0.3-0.5-0.7-0.5-1.2c0-0.3,0.1-0.7,0.3-1c0,0,0.1-0.1,0.1-0.1
				l4.6-4.5h-4c-0.6,0-1-0.4-1-1s0.4-1,1-1H15c0.5,0,0.9,0.2,1.2,0.5c0.3,0.3,0.5,0.7,0.5,1.2c0,0.3-0.1,0.7-0.3,0.9
				c0,0.1-0.1,0.1-0.1,0.2l-4.6,4.6h4c0.6,0,1,0.4,1,1S16.2,18.9,15.7,18.9z"/>
		</g>
	</g>
	<g>
		<g>
			<path class="st0" d="M5.9,12.2H2.1c-0.4,0-0.8-0.2-1.1-0.5c-0.3-0.3-0.4-0.7-0.4-1.1c0-0.3,0.1-0.6,0.3-0.9c0,0,0.1-0.1,0.1-0.1
				l3.3-3.3H1.5c-0.6,0-1-0.4-1-1c0-0.6,0.4-1,1-1h3.9c0.4,0,0.8,0.2,1.1,0.5c0.3,0.3,0.4,0.7,0.4,1.1c0,0.3-0.1,0.6-0.3,0.9
				c0,0.1-0.1,0.1-0.1,0.2l-3.4,3.3h2.7c0.6,0,1,0.4,1,1S6.5,12.2,5.9,12.2z"/>
		</g>
	</g>
	<path class="st0" d="M22.8,0.8c0,0,1.4,2.2,2,5.9c2,10.6-4.9,20.7-15.3,23.6c-1.7,0.5-3.6,0.8-5.8,1c0,0,5.3,11,16.9,10.9
		c0,0,2.6,0.2,6.1-0.9C37.6,38,43.9,26.4,40.6,15.6C38.9,9.8,34.1,3.9,22.8,0.8z"/>
</g>
<g>
	<g>
		<path class="st1" d="M15.7,18.9h-4.8c-0.5,0-0.9-0.2-1.2-0.5c-0.3-0.3-0.5-0.7-0.5-1.2c0-0.3,0.1-0.7,0.3-1c0,0,0.1-0.1,0.1-0.1
			l4.6-4.5h-4c-0.6,0-1-0.4-1-1s0.4-1,1-1H15c0.5,0,0.9,0.2,1.2,0.5c0.3,0.3,0.5,0.7,0.5,1.2c0,0.3-0.1,0.7-0.3,0.9
			c0,0.1-0.1,0.1-0.1,0.2l-4.6,4.6h4c0.6,0,1,0.4,1,1S16.2,18.9,15.7,18.9z"/>
	</g>
</g>
<g>
	<g>
		<path class="st1" d="M5.9,12.2H2.1c-0.4,0-0.8-0.2-1.1-0.5c-0.3-0.3-0.4-0.7-0.4-1.1c0-0.3,0.1-0.6,0.3-0.9c0,0,0.1-0.1,0.1-0.1
			l3.3-3.3H1.5c-0.6,0-1-0.4-1-1c0-0.6,0.4-1,1-1h3.9c0.4,0,0.8,0.2,1.1,0.5c0.3,0.3,0.4,0.7,0.4,1.1c0,0.3-0.1,0.6-0.3,0.9
			c0,0.1-0.1,0.1-0.1,0.2l-3.4,3.3h2.7c0.6,0,1,0.4,1,1S6.5,12.2,5.9,12.2z"/>
	</g>
</g>
<circle class="st1" cx="26.2" cy="30.7" r="3.4"/>
<circle class="st1" cx="17.3" cy="34.1" r="2.2"/>
<path class="st2" d="M22.8,0.8c0,0,1.4,2.2,2,5.9c2,10.6-4.9,20.7-15.3,23.6c-1.7,0.5-3.6,0.8-5.8,1c0,0,5.3,11,16.9,10.9
	c0,0,2.6,0.2,6.1-0.9C37.6,38,43.9,26.4,40.6,15.6C38.9,9.8,34.1,3.9,22.8,0.8z"/>
</svg>
